<svg width="24" height="24" viewBox="0 0 24 24" fill="none" xmlns="http://www.w3.org/2000/svg">
<path d="M18.4993 12.7262C18.533 16.3512 21.6795 17.5575 21.7143 17.5729C21.6877 17.658 21.2116 19.2921 20.0566 20.9799C19.0582 22.4392 18.022 23.8931 16.3897 23.9232C14.7857 23.9527 14.27 22.972 12.4362 22.972C10.603 22.972 10.03 23.8931 8.51167 23.9527C6.93604 24.0123 5.73622 22.3747 4.72952 20.9208C2.67244 17.9469 1.10041 12.5171 3.21125 8.85184C4.25987 7.03169 6.13384 5.87909 8.16786 5.84953C9.71508 5.82002 11.1755 6.89045 12.1213 6.89045C13.0666 6.89045 14.8412 5.60316 16.7069 5.79222C17.4879 5.82472 19.6803 6.10771 21.0881 8.16833C20.9747 8.23865 18.4721 9.6955 18.4993 12.7262V12.7262ZM15.4849 3.82466C16.3214 2.8121 16.8845 1.40252 16.7309 0C15.5251 0.048461 14.067 0.803489 13.2022 1.81549C12.4271 2.71167 11.7483 4.14606 11.9314 5.52082C13.2754 5.6248 14.6484 4.83787 15.4849 3.82466" fill="black"/>
</svg>
