<svg width="24" height="24" viewBox="0 0 24 24" fill="none" xmlns="http://www.w3.org/2000/svg">
<path d="M12.72 8.74401C12.512 8.53601 12.272 8.43201 12 8.43201C11.728 8.43201 11.496 8.53601 11.304 8.74401L6.648 13.4C6.44 13.592 6.336 13.824 6.336 14.096C6.336 14.368 6.44 14.608 6.648 14.816L6.72 14.888C6.912 15.08 7.144 15.176 7.416 15.176C7.704 15.176 7.944 15.08 8.136 14.888L12 11.024L15.864 14.888C16.056 15.08 16.288 15.176 16.56 15.176C16.848 15.176 17.088 15.08 17.28 14.888L17.376 14.816C17.568 14.608 17.664 14.368 17.664 14.096C17.664 13.824 17.568 13.592 17.376 13.4L12.72 8.74401Z" fill="#2F3136"/>
</svg>
