<svg width="24" height="24" viewBox="0 0 24 24" fill="none" xmlns="http://www.w3.org/2000/svg">
<path d="M7.90678 12.0753C7.70339 12.256 7.44915 12.3463 7.14407 12.3463C6.85593 12.3463 6.61017 12.256 6.40678 12.0753L6.33051 11.985C6.11017 11.8043 6 11.5784 6 11.3074C6 11.0515 6.11017 10.8331 6.33051 10.6525L11.2627 6.27103C11.4661 6.09035 11.7119 6.00001 12 6.00001C12.2881 6.00001 12.5424 6.09035 12.7627 6.27103L17.6949 10.6525C17.8983 10.8331 18 11.0515 18 11.3074C18 11.5784 17.8983 11.8043 17.6949 11.985L17.5932 12.0753C17.3898 12.256 17.1356 12.3463 16.8305 12.3463C16.5424 12.3463 16.2966 12.256 16.0932 12.0753L12 8.43916L7.90678 12.0753Z" fill="#2F3136"/>
<path d="M7.90678 17.729C7.70339 17.9097 7.44915 18 7.14407 18C6.85593 18 6.61017 17.9097 6.40678 17.729L6.33051 17.6386C6.11017 17.458 6 17.2321 6 16.9611C6 16.7051 6.11017 16.4868 6.33051 16.3061L11.2627 11.9247C11.4661 11.744 11.7119 11.6537 12 11.6537C12.2881 11.6537 12.5424 11.744 12.7627 11.9247L17.6949 16.3061C17.8983 16.4868 18 16.7051 18 16.9611C18 17.2321 17.8983 17.458 17.6949 17.6386L17.5932 17.729C17.3898 17.9097 17.1356 18 16.8305 18C16.5424 18 16.2966 17.9097 16.0932 17.729L12 14.0928L7.90678 17.729Z" fill="#2F3136"/>
</svg>
