<svg width="24" height="24" viewBox="0 0 24 24" fill="none" xmlns="http://www.w3.org/2000/svg">
<path d="M7.90678 11.9247C7.70339 11.744 7.44915 11.6537 7.14407 11.6537C6.85593 11.6537 6.61017 11.744 6.40678 11.9247L6.33051 12.015C6.11017 12.1957 6 12.4216 6 12.6926C6 12.9485 6.11017 13.1669 6.33051 13.3475L11.2627 17.729C11.4661 17.9096 11.7119 18 12 18C12.2881 18 12.5424 17.9096 12.7627 17.729L17.6949 13.3475C17.8983 13.1669 18 12.9485 18 12.6926C18 12.4216 17.8983 12.1957 17.6949 12.015L17.5932 11.9247C17.3898 11.744 17.1356 11.6537 16.8305 11.6537C16.5424 11.6537 16.2966 11.744 16.0932 11.9247L12 15.5608L7.90678 11.9247Z" fill="#2F3136"/>
<path d="M7.90678 6.27102C7.70339 6.09034 7.44915 6 7.14407 6C6.85593 6 6.61017 6.09034 6.40678 6.27102L6.33051 6.36136C6.11017 6.54203 6 6.76788 6 7.0389C6 7.29486 6.11017 7.51318 6.33051 7.69385L11.2627 12.0753C11.4661 12.256 11.7119 12.3463 12 12.3463C12.2881 12.3463 12.5424 12.256 12.7627 12.0753L17.6949 7.69385C17.8983 7.51318 18 7.29486 18 7.0389C18 6.76788 17.8983 6.54203 17.6949 6.36136L17.5932 6.27102C17.3898 6.09034 17.1356 6 16.8305 6C16.5424 6 16.2966 6.09034 16.0932 6.27102L12 9.90715L7.90678 6.27102Z" fill="#2F3136"/>
</svg>
