<svg width="102" height="24" viewBox="0 0 102 24" fill="none" xmlns="http://www.w3.org/2000/svg">
<path fill-rule="evenodd" clip-rule="evenodd" d="M97.2418 2.65576C97.6043 2.65576 98.0186 2.75959 98.3812 2.96724C98.7437 3.17489 99.0027 3.43445 99.2098 3.79783C99.417 4.16122 99.5206 4.52461 99.5206 4.93991C99.5206 5.3552 99.417 5.71859 99.2098 6.08198C99.0027 6.44536 98.7437 6.70493 98.3812 6.91258C98.0186 7.12023 97.6561 7.22405 97.2418 7.22405C96.8275 7.22405 96.4649 7.12023 96.1024 6.91258C95.7399 6.70493 95.4809 6.44536 95.2738 6.08198C95.0666 5.71859 94.963 5.3552 94.963 4.93991C94.963 4.52461 95.0666 4.16122 95.2738 3.79783C95.4809 3.43445 95.7399 3.17489 96.1024 2.96724C96.4649 2.75959 96.8793 2.65576 97.2418 2.65576ZM97.2418 3.07106C96.931 3.07106 96.6203 3.17489 96.3096 3.33062C95.9988 3.48636 95.7917 3.74592 95.5845 4.0574C95.4291 4.36887 95.3255 4.68034 95.3255 4.99182C95.3255 5.30329 95.4291 5.61477 95.5845 5.92624C95.7399 6.23772 95.9988 6.44536 96.3096 6.65301C96.6203 6.80875 96.931 6.91258 97.2418 6.91258C97.5525 6.91258 97.8633 6.80875 98.174 6.65301C98.4848 6.49728 98.6919 6.23772 98.8991 5.92624C99.1062 5.61477 99.158 5.30329 99.158 4.99182C99.158 4.68034 99.0544 4.36887 98.8991 4.0574C98.7437 3.74592 98.4848 3.53827 98.174 3.33062C97.8633 3.12297 97.5525 3.07106 97.2418 3.07106ZM96.2578 6.23772V3.74592H97.0864C97.3972 3.74592 97.6043 3.74592 97.7079 3.79783C97.8115 3.84975 97.9151 3.90166 98.0186 4.0574C98.0704 4.16122 98.1222 4.26505 98.1222 4.42078C98.1222 4.57652 98.0704 4.73226 97.9151 4.88799C97.8115 5.04373 97.6043 5.09564 97.3972 5.09564C97.5007 5.14756 97.5525 5.19947 97.6043 5.25138C97.7079 5.35521 97.8115 5.51094 97.9669 5.71859L98.2776 6.1858H97.8115L97.6043 5.82242C97.4489 5.51094 97.2936 5.30329 97.19 5.25138C97.1382 5.19947 97.0346 5.14756 96.8793 5.14756H96.6721V6.1858H96.2578V6.23772ZM96.6203 4.83608H97.0864C97.2936 4.83608 97.449 4.78417 97.5525 4.73226C97.6561 4.68034 97.6561 4.57652 97.6561 4.47269C97.6561 4.42078 97.6561 4.31696 97.6043 4.26505C97.5525 4.21313 97.5007 4.16122 97.449 4.16122C97.3972 4.10931 97.2418 4.10931 97.0346 4.10931H96.5685V4.83608H96.6203Z" fill="#515151"/>
<path fill-rule="evenodd" clip-rule="evenodd" d="M53.3754 2.55191H53.4272V7.79506H48.1964V2.55191H53.3754ZM30.3805 13.6092L42.603 14.3879C43.1209 14.3879 43.5352 14.8032 43.5352 15.3224C43.5352 15.8415 43.1209 16.2568 42.603 16.2568H25.2015V9.40434C25.7194 11.4808 27.5838 13.2459 30.3805 13.6092ZM25.2015 21.4999H43.0173C45.6069 21.4999 47.782 19.6311 48.2482 17.1393C48.6625 19.5792 50.8377 21.4999 53.3754 21.4999H64.7693C67.307 21.4999 69.4304 19.6311 69.8965 17.2431V21.4999H88.1267C91.0787 21.4999 93.4611 19.06 93.4611 16.153V15.3743C93.4611 12.4153 91.0269 10.0273 88.1267 10.0273L87.1427 9.97538C81.4457 9.71582 75.8006 9.45626 70.1554 9.14478C70.6216 11.377 72.486 13.2459 75.3863 13.6092L87.7641 14.3879C88.2821 14.3879 88.6964 14.8032 88.6964 15.3224C88.6964 15.8415 88.2821 16.2568 87.7641 16.2568H69.9483V9.14478L64.6657 8.88522V14.959C64.6657 15.7896 63.9924 16.5163 63.112 16.5163H54.9809C54.1522 16.5163 53.4272 15.8415 53.4272 14.959V8.26227L48.1964 8.00271V14.0245C47.5749 11.7404 45.5033 10.0792 43.0173 10.0792L19.7635 8.57375V21.4999H24.7872H25.2015ZM47.3677 7.79506V2.5H30.3805C27.8946 2.5 25.7712 4.26502 25.2015 6.60108V2.55191H15.1024L11.6324 7.79506H25.0461H47.3677ZM17.4847 8.41801L9.14649 21.4999H2.62091L11.4253 8.10653L17.4847 8.41801ZM93.4611 7.79506V2.5H75.3863C72.486 2.5 70.1037 4.83606 70.0519 7.74315L93.4611 7.79506ZM64.6657 7.74315V2.55191H64.7175H69.9483V7.79506H64.6657V7.74315Z" fill="#515151"/>
</svg>
