<svg width="24" height="24" viewBox="0 0 24 24" fill="none" xmlns="http://www.w3.org/2000/svg">
<path d="M2.376 3.704C1.976 3.816 1.648 4.048 1.392 4.4C1.136 4.736 1.008 5.12 1.008 5.552V20.288C1.008 20.576 1.128 20.8 1.368 20.96C1.624 21.136 1.888 21.168 2.16 21.056C3.856 20.432 5.304 20.12 6.504 20.12C7.64 20.12 9.056 20.36 10.752 20.84C10.816 20.856 10.872 20.84 10.92 20.792C10.968 20.76 10.992 20.712 10.992 20.648V4.76C10.992 4.552 10.92 4.368 10.776 4.208C10.648 4.032 10.48 3.904 10.272 3.824C8.832 3.344 7.576 3.104 6.504 3.104C5.288 3.104 3.912 3.304 2.376 3.704ZM13.728 3.824C13.52 3.904 13.344 4.032 13.2 4.208C13.072 4.368 13.008 4.552 13.008 4.76V20.648C13.008 20.712 13.032 20.76 13.08 20.792C13.128 20.84 13.184 20.856 13.248 20.84C14.976 20.36 16.392 20.12 17.496 20.12C18.696 20.12 20.144 20.432 21.84 21.056C22.112 21.168 22.368 21.136 22.608 20.96C22.864 20.8 22.992 20.576 22.992 20.288V5.552C22.992 5.12 22.864 4.736 22.608 4.4C22.352 4.048 22.024 3.816 21.624 3.704C20.088 3.304 18.712 3.104 17.496 3.104C16.424 3.104 15.168 3.344 13.728 3.824Z" fill="#2F3136"/>
</svg>
