<svg width="24" height="24" viewBox="0 0 24 24" fill="none" xmlns="http://www.w3.org/2000/svg">
<path d="M12 3.104C9.87201 3.104 8.04001 3.472 6.50401 4.208C5.03201 4.928 3.91201 5.968 3.14401 7.32801C2.37601 8.672 1.99201 10.264 1.99201 12.104C1.99201 13.88 2.32801 15.344 3.00001 16.496L1.99201 20C1.92801 20.224 1.94401 20.432 2.04001 20.624C2.15201 20.816 2.30401 20.96 2.49601 21.056C2.70401 21.152 2.90401 21.168 3.09601 21.104L6.40801 20C8.08801 20.736 9.95201 21.104 12 21.104C14.128 21.104 15.96 20.736 17.496 20C18.968 19.28 20.088 18.248 20.856 16.904C21.624 15.544 22.008 13.944 22.008 12.104C22.008 10.264 21.624 8.672 20.856 7.32801C20.088 5.968 18.968 4.928 17.496 4.208C15.96 3.472 14.128 3.104 12 3.104ZM12 17.096C11.696 17.096 11.448 17.008 11.256 16.832C11.08 16.64 10.992 16.392 10.992 16.088C10.992 15.784 11.08 15.544 11.256 15.368C11.448 15.192 11.696 15.104 12 15.104C12.304 15.104 12.544 15.192 12.72 15.368C12.912 15.544 13.008 15.784 13.008 16.088C13.008 16.392 12.912 16.64 12.72 16.832C12.544 17.008 12.304 17.096 12 17.096ZM13.8 12.896C13.672 13.024 13.576 13.16 13.512 13.304C13.256 13.544 13.032 13.72 12.84 13.832C12.552 14.008 12.264 14.096 11.976 14.096C11.688 14.096 11.456 13.992 11.28 13.784C11.12 13.576 11.096 13.344 11.208 13.088C11.384 12.56 11.712 12.096 12.192 11.696L12.312 11.6L12.456 11.408C12.696 11.12 12.856 10.904 12.936 10.76C13.048 10.552 13.104 10.328 13.104 10.088C13.104 9.944 13.08 9.80801 13.032 9.68001C13 9.53601 12.952 9.44 12.888 9.392C12.84 9.328 12.728 9.26401 12.552 9.20001C12.376 9.136 12.192 9.104 12 9.104C11.632 9.104 11.4 9.2 11.304 9.392L11.208 9.488C11 9.696 10.848 9.832 10.752 9.896C10.56 10.024 10.376 10.088 10.2 10.088H10.008C9.70401 10.088 9.46401 9.992 9.28801 9.8C9.12801 9.592 9.09601 9.36 9.19201 9.104C9.28801 8.752 9.48801 8.41601 9.79201 8.096C10.048 7.792 10.368 7.552 10.752 7.376C11.152 7.184 11.568 7.088 12 7.088C12.432 7.088 12.848 7.176 13.248 7.35201C13.616 7.512 13.928 7.72 14.184 7.976C14.44 8.232 14.64 8.56001 14.784 8.96001C14.928 9.34401 15 9.72 15 10.088C15 10.664 14.864 11.224 14.592 11.768C14.416 12.104 14.152 12.48 13.8 12.896Z" fill="#2F3136"/>
</svg>
