<svg width="24" height="24" viewBox="0 0 24 24" fill="none" xmlns="http://www.w3.org/2000/svg">
<path d="M1.008 6.104C1.008 5.56 1.144 5.064 1.416 4.616C1.688 4.152 2.048 3.784 2.496 3.512C2.96 3.24 3.464 3.104 4.008 3.104H19.992C20.536 3.104 21.032 3.24 21.48 3.512C21.944 3.784 22.312 4.152 22.584 4.616C22.856 5.064 22.992 5.56 22.992 6.104V7.088H1.008V6.104ZM1.008 10.088H22.992V18.104C22.992 18.648 22.856 19.152 22.584 19.616C22.312 20.064 21.944 20.424 21.48 20.696C21.032 20.968 20.536 21.104 19.992 21.104H4.008C3.464 21.104 2.96 20.968 2.496 20.696C2.048 20.424 1.688 20.064 1.416 19.616C1.144 19.152 1.008 18.648 1.008 18.104V10.088ZM6 15.104C5.728 15.104 5.488 15.2 5.28 15.392C5.088 15.584 4.992 15.816 4.992 16.088C4.992 16.36 5.088 16.6 5.28 16.808C5.488 17 5.728 17.096 6 17.096H12C12.272 17.096 12.504 17 12.696 16.808C12.904 16.6 13.008 16.36 13.008 16.088C13.008 15.816 12.904 15.584 12.696 15.392C12.504 15.2 12.272 15.104 12 15.104H6Z" fill="#2F3136"/>
</svg>
