<svg width="24" height="24" viewBox="0 0 24 24" fill="none" xmlns="http://www.w3.org/2000/svg">
<path d="M19.008 7.088H16.008V5.096C16.008 4.552 15.808 4.088 15.408 3.704C15.024 3.304 14.552 3.104 13.992 3.104H10.008C9.44801 3.104 8.96801 3.304 8.56801 3.704C8.184 4.088 7.992 4.552 7.992 5.096V7.088H4.992C4.448 7.088 3.944 7.224 3.48 7.496C3.016 7.75201 2.648 8.11201 2.376 8.57601C2.12 9.04001 1.992 9.544 1.992 10.088V18.104C1.992 18.664 2.12 19.176 2.376 19.64C2.648 20.088 3.008 20.44 3.456 20.696C3.92 20.968 4.432 21.104 4.992 21.104H19.008C19.568 21.104 20.072 20.968 20.52 20.696C20.984 20.44 21.344 20.088 21.6 19.64C21.872 19.176 22.008 18.664 22.008 18.104V10.088C22.008 9.528 21.872 9.02401 21.6 8.57601C21.344 8.11201 20.984 7.75201 20.52 7.496C20.072 7.224 19.568 7.088 19.008 7.088ZM7.008 18.104C7.008 18.408 6.912 18.648 6.72 18.824C6.544 19 6.304 19.088 6 19.088C5.696 19.088 5.448 19 5.256 18.824C5.08 18.648 4.992 18.408 4.992 18.104V10.088C4.992 9.784 5.08 9.54401 5.256 9.36801C5.448 9.19201 5.696 9.104 6 9.104C6.304 9.104 6.544 9.19201 6.72 9.36801C6.912 9.54401 7.008 9.784 7.008 10.088V18.104ZM13.992 6.608C13.992 6.752 13.944 6.872 13.848 6.968C13.768 7.048 13.656 7.088 13.512 7.088H10.512C10.352 7.088 10.224 7.048 10.128 6.968C10.048 6.872 10.008 6.752 10.008 6.608V5.6C10.008 5.44 10.048 5.32 10.128 5.24001C10.224 5.144 10.352 5.096 10.512 5.096H13.512C13.656 5.096 13.768 5.144 13.848 5.24001C13.944 5.32 13.992 5.44 13.992 5.6V6.608ZM19.008 18.104C19.008 18.408 18.912 18.648 18.72 18.824C18.544 19 18.304 19.088 18 19.088C17.696 19.088 17.448 19 17.256 18.824C17.08 18.648 16.992 18.408 16.992 18.104V10.088C16.992 9.784 17.08 9.54401 17.256 9.36801C17.448 9.19201 17.696 9.104 18 9.104C18.304 9.104 18.544 9.19201 18.72 9.36801C18.912 9.54401 19.008 9.784 19.008 10.088V18.104Z" fill="#2F3136"/>
</svg>
