<svg width="16" height="16" viewBox="0 0 16 16" fill="none" xmlns="http://www.w3.org/2000/svg">
<path d="M8 2C6.91607 2 5.90887 2.27338 4.97842 2.82014C4.07674 3.35731 3.35731 4.07674 2.82014 4.97842C2.27338 5.90887 2 6.91607 2 8C2 9.08393 2.27338 10.0911 2.82014 11.0216C3.35731 11.9233 4.07674 12.6427 4.97842 13.1799C5.90887 13.7266 6.91607 14 8 14C9.08393 14 10.0911 13.7266 11.0216 13.1799C11.9233 12.6427 12.6427 11.9233 13.1799 11.0216C13.7266 10.0911 14 9.08393 14 8C14 6.91607 13.7266 5.90887 13.1799 4.97842C12.6427 4.07674 11.9233 3.35731 11.0216 2.82014C10.0911 2.27338 9.08393 2 8 2ZM7.22302 10.2158C7.10791 10.3309 6.96883 10.3885 6.80576 10.3885C6.64269 10.3885 6.4988 10.3309 6.3741 10.2158L5.00719 8.83453C4.89209 8.71942 4.83453 8.58034 4.83453 8.41727C4.83453 8.2542 4.89209 8.11511 5.00719 8C5.1223 7.88489 5.26139 7.82734 5.42446 7.82734C5.58753 7.82734 5.72662 7.88489 5.84173 8L6.80576 8.94964L10.1583 5.59712C10.2734 5.48202 10.4125 5.42446 10.5755 5.42446C10.7386 5.42446 10.8777 5.48202 10.9928 5.59712C11.1079 5.71223 11.1655 5.85132 11.1655 6.01439C11.1655 6.17746 11.1079 6.31655 10.9928 6.43165L7.22302 10.2158Z" fill="#31C375"/>
</svg>
