<svg width="24" height="24" viewBox="0 0 24 24" fill="none" xmlns="http://www.w3.org/2000/svg">
<path d="M19.008 7.08799C18.8 6.89599 18.56 6.79999 18.288 6.79999C18.016 6.79999 17.784 6.89599 17.592 7.08799L10.416 14.264C10.016 14.664 9.54401 14.864 9.00002 14.864C8.45602 14.864 7.98401 14.664 7.58401 14.264L5.42401 12.104C5.21601 11.912 4.97601 11.816 4.70401 11.816C4.43201 11.816 4.20001 11.912 4.00801 12.104C3.81601 12.296 3.71201 12.528 3.69601 12.8C3.69601 13.072 3.80001 13.312 4.00801 13.52L7.58401 17.096C7.98401 17.496 8.45602 17.696 9.00002 17.696C9.54401 17.696 10.016 17.496 10.416 17.096L19.008 8.50399C19.2 8.31199 19.296 8.07999 19.296 7.80799C19.296 7.53599 19.2 7.29599 19.008 7.08799Z" fill="#2F3136"/>
</svg>
