<svg width="24" height="24" viewBox="0 0 24 24" fill="none" xmlns="http://www.w3.org/2000/svg">
<path d="M9.60001 3.59999C9.60001 3.28173 9.72643 2.97651 9.95148 2.75147C10.1765 2.52642 10.4817 2.39999 10.8 2.39999H13.2C13.5183 2.39999 13.8235 2.52642 14.0485 2.75147C14.2736 2.97651 14.4 3.28173 14.4 3.59999C14.4 3.91825 14.2736 4.22348 14.0485 4.44852C13.8235 4.67357 13.5183 4.79999 13.2 4.79999H10.8C10.4817 4.79999 10.1765 4.67357 9.95148 4.44852C9.72643 4.22348 9.60001 3.91825 9.60001 3.59999Z" fill="#2F3136"/>
<path d="M7.2 3.60001C6.56348 3.60001 5.95303 3.85286 5.50295 4.30295C5.05286 4.75304 4.8 5.36349 4.8 6.00001V19.2C4.8 19.8365 5.05286 20.447 5.50295 20.8971C5.95303 21.3471 6.56348 21.6 7.2 21.6H16.8C17.4365 21.6 18.047 21.3471 18.4971 20.8971C18.9471 20.447 19.2 19.8365 19.2 19.2V6.00001C19.2 5.36349 18.9471 4.75304 18.4971 4.30295C18.047 3.85286 17.4365 3.60001 16.8 3.60001C16.8 4.55479 16.4207 5.47046 15.7456 6.14559C15.0705 6.82072 14.1548 7.20001 13.2 7.20001H10.8C9.84522 7.20001 8.92955 6.82072 8.25442 6.14559C7.57929 5.47046 7.2 4.55479 7.2 3.60001Z" fill="#2F3136"/>
</svg>
