<svg width="24" height="24" viewBox="0 0 24 24" fill="none" xmlns="http://www.w3.org/2000/svg">
<g clip-path="url(#clip0)">
<path d="M11.6293 0H12.3732C15.9913 0.204682 18.571 1.58296 20.4835 3.51457C22.3961 5.44618 23.8099 7.99381 23.9988 11.639V12.3611C23.8151 16.0645 22.3764 18.5088 20.4835 20.4975C18.4952 22.3866 16.0508 23.8178 12.3612 23.9999H11.6293C8.01167 23.7949 5.43148 22.4171 3.51894 20.4854C1.60639 18.5538 0.192584 16.0062 0.00366211 12.3611V11.639C0.0130771 11.6363 0.0176812 11.6289 0.0156637 11.6149C0.196567 7.98363 1.61808 5.40954 3.51899 3.50253C5.42864 1.58665 8.0351 0.198506 11.6293 0ZM9.27779 1.72117C8.56493 1.91267 7.92564 2.15586 7.3462 2.44331C5.58249 3.31825 4.12802 4.57 3.11104 6.1745C2.11842 7.74065 1.25897 9.75535 1.38343 12.3972C1.46191 14.0627 1.84073 15.4637 2.43916 16.658C3.62095 19.016 5.42016 20.7535 7.91012 21.8095C9.14142 22.3317 10.6671 22.698 12.3852 22.6159C14.0332 22.5371 15.4612 22.1655 16.6444 21.5687C18.9632 20.3991 20.7906 18.5944 21.8034 16.1043C22.3157 14.8447 22.703 13.3896 22.6193 11.6269C22.4608 8.28765 21.1068 6.02348 19.32 4.29687C18.4358 3.44254 17.3712 2.71582 16.1166 2.19057C14.8993 1.68095 13.3147 1.30308 11.6175 1.38415C10.7831 1.424 9.99602 1.52821 9.27779 1.72117Z" fill="#737373"/>
<path d="M10.8963 8.88269C11.2764 9.13522 11.6652 9.37909 12.0241 9.653C11.2134 10.1637 10.4187 10.6904 9.61261 11.2057C9.735 11.2995 9.87416 11.3766 9.9965 11.4704C10.8093 10.9539 11.6224 10.4376 12.432 9.91778C12.7952 10.1433 13.1527 10.3744 13.4879 10.6279C12.6765 11.142 11.8924 11.6833 11.0883 12.2046C11.2075 12.3018 11.3535 12.3719 11.4842 12.4574C12.3152 11.9471 13.1256 11.416 13.9437 10.8928V9.18359H15.7434V12.5899C16.2512 12.6179 16.8112 12.5938 17.3391 12.6018V14.2027H13.9437V12.5777C12.9461 13.1857 11.9238 13.8733 10.9203 14.5155C9.8753 13.8348 8.86815 13.1159 7.82494 12.4333C7.52273 13.3943 6.80496 14.1172 5.61732 14.2027C4.87663 14.2558 4.03497 14.163 3.18182 14.2027V9.18359C4.24841 9.25448 5.4196 9.04051 6.2652 9.30394C7.01287 9.5369 7.54295 10.1354 7.78888 10.8807C8.83286 10.2229 9.86009 9.54837 10.8963 8.88269ZM4.89743 10.7964V12.6018C5.32612 12.604 5.65219 12.6289 5.9052 12.4334C6.28165 12.1425 6.35749 11.4214 6.02517 11.0371C5.8034 10.7808 5.42897 10.727 4.90938 10.7603C4.89552 10.7623 4.8964 10.7794 4.89743 10.7964ZM17.8069 9.18359H19.6065V12.6018H21.1902V14.2027H17.7948V9.21971C17.7939 9.20264 17.7929 9.18561 17.8069 9.18359Z" fill="#737373"/>
</g>
<defs>
<clipPath id="clip0">
<rect width="24" height="24" fill="white"/>
</clipPath>
</defs>
</svg>
