<svg width="24" height="24" viewBox="0 0 24 24" fill="none" xmlns="http://www.w3.org/2000/svg">
<path d="M18 19.088C18 19.36 17.896 19.6 17.688 19.808C17.496 20 17.264 20.096 16.992 20.096H7.008C6.736 20.096 6.496 20 6.288 19.808C6.096 19.6 6 19.36 6 19.088V5.09599C6 4.82399 6.096 4.59199 6.288 4.39999C6.496 4.19199 6.736 4.08799 7.008 4.08799H13.752C14.024 4.08799 14.264 4.19199 14.472 4.39999L17.712 7.63999C17.904 7.83199 18 8.06399 18 8.33599V19.088ZM7.008 2.09599C6.464 2.09599 5.96 2.23199 5.496 2.50399C5.048 2.77599 4.688 3.14399 4.416 3.60799C4.144 4.05599 4.008 4.55199 4.008 5.09599V19.088C4.008 19.632 4.144 20.136 4.416 20.6C4.688 21.064 5.048 21.432 5.496 21.704C5.96 21.976 6.464 22.112 7.008 22.112H16.992C17.536 22.112 18.032 21.976 18.48 21.704C18.944 21.432 19.312 21.064 19.584 20.6C19.856 20.136 19.992 19.632 19.992 19.088V8.33599C19.992 7.93599 19.912 7.55199 19.752 7.18399C19.608 6.81599 19.4 6.49599 19.128 6.22399L15.888 2.98399C15.6 2.69599 15.272 2.47999 14.904 2.33599C14.536 2.17599 14.152 2.09599 13.752 2.09599H7.008ZM7.992 9.10399C7.992 8.83199 8.088 8.59999 8.28 8.40799C8.488 8.19999 8.728 8.09599 9 8.09599H15C15.272 8.09599 15.504 8.19999 15.696 8.40799C15.904 8.59999 16.008 8.83199 16.008 9.10399C16.008 9.37599 15.904 9.60799 15.696 9.79999C15.504 9.99199 15.272 10.088 15 10.088H9C8.728 10.088 8.488 9.99199 8.28 9.79999C8.088 9.60799 7.992 9.37599 7.992 9.10399ZM7.992 13.088C7.992 12.816 8.088 12.584 8.28 12.392C8.488 12.2 8.728 12.104 9 12.104H15C15.272 12.104 15.504 12.2 15.696 12.392C15.904 12.584 16.008 12.816 16.008 13.088C16.008 13.36 15.904 13.6 15.696 13.808C15.504 14 15.272 14.096 15 14.096H9C8.728 14.096 8.488 14 8.28 13.808C8.088 13.6 7.992 13.36 7.992 13.088ZM7.992 17.096C7.992 16.824 8.088 16.592 8.28 16.4C8.488 16.192 8.728 16.088 9 16.088H10.992C11.264 16.088 11.496 16.192 11.688 16.4C11.896 16.592 12 16.824 12 17.096C12 17.368 11.896 17.608 11.688 17.816C11.496 18.008 11.264 18.104 10.992 18.104H9C8.728 18.104 8.488 18.008 8.28 17.816C8.088 17.608 7.992 17.368 7.992 17.096Z" fill="#2F3136"/>
</svg>
