<svg width="24" height="24" viewBox="0 0 24 24" fill="none" xmlns="http://www.w3.org/2000/svg">
<path d="M13.992 5.096C13.992 5.64 13.8 6.112 13.416 6.512C13.032 6.896 12.56 7.088 12 7.088C11.456 7.088 10.984 6.896 10.584 6.512C10.2 6.112 10.008 5.64 10.008 5.096C10.008 4.536 10.2 4.064 10.584 3.68001C10.984 3.296 11.456 3.104 12 3.104C12.56 3.104 13.032 3.296 13.416 3.68001C13.8 4.064 13.992 4.536 13.992 5.096ZM13.992 12.104C13.992 12.648 13.8 13.12 13.416 13.52C13.032 13.904 12.56 14.096 12 14.096C11.456 14.096 10.984 13.904 10.584 13.52C10.2 13.12 10.008 12.648 10.008 12.104C10.008 11.544 10.2 11.072 10.584 10.688C10.984 10.288 11.456 10.088 12 10.088C12.544 10.088 13.008 10.288 13.392 10.688C13.792 11.072 13.992 11.544 13.992 12.104ZM13.992 19.088C13.992 19.648 13.8 20.12 13.416 20.504C13.032 20.904 12.56 21.104 12 21.104C11.44 21.104 10.968 20.904 10.584 20.504C10.2 20.12 10.008 19.648 10.008 19.088C10.008 18.528 10.2 18.056 10.584 17.672C10.984 17.288 11.456 17.096 12 17.096C12.56 17.096 13.032 17.288 13.416 17.672C13.8 18.056 13.992 18.528 13.992 19.088Z" fill="#2F3136"/>
</svg>
