<svg width="16" height="16" viewBox="0 0 16 16" fill="none" xmlns="http://www.w3.org/2000/svg">
<path d="M3.32812 1.39735C2.97613 1.39735 2.64546 1.48802 2.33613 1.66935C2.02679 1.85069 1.78146 2.09602 1.60013 2.40535C1.41879 2.71469 1.32812 3.04535 1.32812 3.39735V4.72535C1.32812 4.90669 1.39213 5.06669 1.52013 5.20535C1.65879 5.33335 1.81879 5.39736 2.00012 5.39736C2.18146 5.39736 2.33613 5.33335 2.46413 5.20535C2.60279 5.06669 2.67213 4.90669 2.67213 4.72535V3.39735C2.67213 3.21602 2.73612 3.06135 2.86413 2.93335C2.99213 2.79469 3.14679 2.72535 3.32812 2.72535H4.67213C4.85346 2.72535 5.00813 2.66135 5.13613 2.53335C5.26413 2.40535 5.32812 2.25069 5.32812 2.06935C5.32812 1.88802 5.26413 1.73335 5.13613 1.60535C5.00813 1.46669 4.85346 1.39735 4.67213 1.39735H3.32812ZM11.3281 1.39735C11.1468 1.39735 10.9921 1.46669 10.8641 1.60535C10.7361 1.73335 10.6721 1.88802 10.6721 2.06935C10.6721 2.25069 10.7361 2.40535 10.8641 2.53335C10.9921 2.66135 11.1468 2.72535 11.3281 2.72535H12.6721C12.8535 2.72535 13.0081 2.79469 13.1361 2.93335C13.2641 3.06135 13.3281 3.21602 13.3281 3.39735V4.72535C13.3281 4.90669 13.3921 5.06669 13.5201 5.20535C13.6588 5.33335 13.8188 5.39736 14.0001 5.39736C14.1815 5.39736 14.3361 5.33335 14.4641 5.20535C14.6028 5.06669 14.6721 4.90669 14.6721 4.72535V3.39735C14.6721 3.04535 14.5815 2.71469 14.4001 2.40535C14.2188 2.09602 13.9735 1.85069 13.6641 1.66935C13.3548 1.48802 13.0241 1.39735 12.6721 1.39735H11.3281ZM2.00012 10.7254C1.81879 10.7254 1.65879 10.7947 1.52013 10.9334C1.39213 11.0614 1.32812 11.216 1.32812 11.3974V12.7254C1.32812 13.088 1.41879 13.424 1.60013 13.7334C1.78146 14.0427 2.02679 14.288 2.33613 14.4694C2.64546 14.6507 2.97613 14.7414 3.32812 14.7414H4.67213C4.85346 14.7414 5.00813 14.672 5.13613 14.5334C5.26413 14.4054 5.32812 14.2507 5.32812 14.0694C5.32812 13.888 5.26413 13.728 5.13613 13.5894C5.00813 13.4614 4.85346 13.3974 4.67213 13.3974H3.32812C3.14679 13.3974 2.99213 13.3334 2.86413 13.2054C2.73612 13.0774 2.67213 12.9174 2.67213 12.7254V11.3974C2.67213 11.216 2.60279 11.0614 2.46413 10.9334C2.33613 10.7947 2.18146 10.7254 2.00012 10.7254ZM14.0001 10.7254C13.8188 10.7254 13.6588 10.7947 13.5201 10.9334C13.3921 11.0614 13.3281 11.216 13.3281 11.3974V12.7254C13.3281 12.9174 13.2641 13.0774 13.1361 13.2054C13.0081 13.3334 12.8535 13.3974 12.6721 13.3974H11.3281C11.1468 13.3974 10.9921 13.4614 10.8641 13.5894C10.7361 13.728 10.6721 13.888 10.6721 14.0694C10.6721 14.2507 10.7361 14.4054 10.8641 14.5334C10.9921 14.672 11.1468 14.7414 11.3281 14.7414H12.6721C13.0241 14.7414 13.3548 14.6507 13.6641 14.4694C13.9735 14.288 14.2188 14.0427 14.4001 13.7334C14.5815 13.424 14.6721 13.088 14.6721 12.7254V11.3974C14.6721 11.216 14.6028 11.0614 14.4641 10.9334C14.3361 10.7947 14.1815 10.7254 14.0001 10.7254ZM8.00012 6.72535C7.63746 6.72535 7.32279 6.85869 7.05613 7.12535C6.80013 7.38135 6.67213 7.69602 6.67213 8.06935C6.67213 8.43202 6.80013 8.74669 7.05613 9.01335C7.32279 9.26935 7.63746 9.39736 8.00012 9.39736C8.37346 9.39736 8.68813 9.26935 8.94413 9.01335C9.20012 8.74669 9.32812 8.43202 9.32812 8.06935C9.32812 7.69602 9.19479 7.38135 8.92812 7.12535C8.67212 6.85869 8.36279 6.72535 8.00012 6.72535ZM10.6721 8.06935C10.6721 7.58935 10.5495 7.14669 10.3041 6.74135C10.0695 6.32535 9.74413 6.00002 9.32812 5.76536C8.92279 5.52002 8.48012 5.39736 8.00012 5.39736C7.52012 5.39736 7.07213 5.52002 6.65613 5.76536C6.25079 6.00002 5.92546 6.32535 5.68013 6.74135C5.44546 7.14669 5.32812 7.58935 5.32812 8.06935C5.32812 8.54935 5.44546 8.99202 5.68013 9.39736C5.92546 9.80269 6.25079 10.128 6.65613 10.3734C7.07213 10.608 7.52012 10.7254 8.00012 10.7254C8.48012 10.7254 8.92279 10.608 9.32812 10.3734C9.74413 10.128 10.0695 9.80269 10.3041 9.39736C10.5495 8.99202 10.6721 8.54935 10.6721 8.06935ZM8.00012 12.0694C7.08279 12.0694 6.25613 11.8827 5.52013 11.5094C4.92279 11.2 4.37879 10.7627 3.88813 10.1974C3.56813 9.81335 3.23746 9.32802 2.89613 8.74135C2.74679 8.54935 2.67213 8.32535 2.67213 8.06935C2.67213 7.81335 2.74679 7.58402 2.89613 7.38135C3.23746 6.79469 3.56813 6.31469 3.88813 5.94135C4.37879 5.37602 4.92279 4.93869 5.52013 4.62935C6.25613 4.25602 7.08279 4.06935 8.00012 4.06935C8.92812 4.06935 9.76013 4.25602 10.4961 4.62935C11.0828 4.93869 11.6215 5.37602 12.1121 5.94135C12.4321 6.31469 12.7628 6.79469 13.1041 7.38135C13.2535 7.58402 13.3281 7.81335 13.3281 8.06935C13.3281 8.32535 13.2535 8.54935 13.1041 8.74135C12.7628 9.33869 12.4321 9.82402 12.1121 10.1974C11.6215 10.7627 11.0828 11.2 10.4961 11.5094C9.76013 11.8827 8.92812 12.0694 8.00012 12.0694Z" fill="#888B96"/>
</svg>
