<svg width="24" height="24" viewBox="0 0 24 24" fill="none" xmlns="http://www.w3.org/2000/svg">
<path d="M4.05599 4.54401C4.10399 4.41601 4.19199 4.31201 4.31999 4.23201C4.46399 4.13601 4.62399 4.08801 4.79999 4.08801H19.2C19.376 4.08801 19.528 4.13601 19.656 4.23201C19.8 4.31201 19.896 4.41601 19.944 4.54401C20.056 4.81601 20.016 5.05601 19.824 5.26401L13.992 11.84V18.608V18.656C13.976 18.688 13.952 18.728 13.92 18.776C13.76 18.936 13.552 19.08 13.296 19.208L11.448 20.024C11.336 20.072 11.216 20.096 11.088 20.096C10.816 20.096 10.568 19.984 10.344 19.76C10.12 19.536 10.008 19.312 10.008 19.088V12.392L4.17599 5.26401C3.98399 5.05601 3.94399 4.81601 4.05599 4.54401ZM21.768 3.75201C21.56 3.25601 21.216 2.85601 20.736 2.55201C20.272 2.24801 19.76 2.09601 19.2 2.09601H4.79999C4.23999 2.09601 3.71999 2.24801 3.23999 2.55201C2.77599 2.85601 2.43999 3.25601 2.23199 3.75201C2.02399 4.23201 1.95999 4.73601 2.03999 5.26401C2.11999 5.77601 2.34399 6.23201 2.71199 6.63201L7.99199 13.088V19.088C7.99199 19.6 8.13599 20.088 8.42399 20.552C8.72799 21.032 9.11999 21.408 9.59999 21.68C10.08 21.968 10.576 22.112 11.088 22.112C11.472 22.112 11.864 22.024 12.264 21.848L14.088 21.032C14.648 20.792 15.096 20.472 15.432 20.072C15.816 19.624 16.008 19.136 16.008 18.608V12.608L21.288 6.63201C21.656 6.23201 21.88 5.77601 21.96 5.26401C22.04 4.73601 21.976 4.23201 21.768 3.75201Z" fill="white"/>
</svg>
