<svg width="16" height="16" viewBox="0 0 16 16" fill="none" xmlns="http://www.w3.org/2000/svg">
<path d="M13.3281 10.3253V12.7413C13.3281 13.104 13.2375 13.4347 13.0561 13.7333C12.8748 14.0427 12.6295 14.288 12.3201 14.4693C12.0215 14.6507 11.6908 14.7413 11.3281 14.7413H8.92812C8.85346 14.7413 8.78946 14.7147 8.73612 14.6613C8.69346 14.608 8.67213 14.544 8.67213 14.4693V10.3253C8.67213 10.2507 8.69346 10.192 8.73612 10.1493C8.78946 10.096 8.85346 10.0693 8.92812 10.0693H13.0721C13.1468 10.0693 13.2055 10.096 13.2481 10.1493C13.3015 10.192 13.3281 10.2507 13.3281 10.3253ZM7.32812 10.3253V14.4693C7.32812 14.544 7.30146 14.608 7.24812 14.6613C7.20546 14.7147 7.14679 14.7413 7.07213 14.7413H4.67213C4.30946 14.7413 3.97346 14.6507 3.66413 14.4693C3.36546 14.288 3.12546 14.0427 2.94413 13.7333C2.76279 13.4347 2.67213 13.104 2.67213 12.7413V10.3253C2.67213 10.2507 2.69346 10.192 2.73612 10.1493C2.78946 10.096 2.85346 10.0693 2.92813 10.0693H7.07213C7.14679 10.0693 7.20546 10.096 7.24812 10.1493C7.30146 10.192 7.32812 10.2507 7.32812 10.3253ZM11.0561 5.41334C10.6508 5.70134 10.0695 5.84534 9.31213 5.84534H9.15213C9.09879 5.84534 9.05613 5.82401 9.02413 5.78134C8.99213 5.72801 8.98146 5.67467 8.99213 5.62134C9.06679 5.28001 9.16279 4.96534 9.28013 4.67734C9.45079 4.24001 9.64812 3.93067 9.87213 3.74934C10.0535 3.60001 10.2721 3.52534 10.5281 3.52534C10.6775 3.52534 10.8215 3.55734 10.9601 3.62134C11.0988 3.68534 11.2215 3.77601 11.3281 3.89334C11.5095 4.12801 11.5681 4.40001 11.5041 4.70934C11.4508 5.00801 11.3015 5.24267 11.0561 5.41334ZM7.02413 5.78134C6.12813 5.58934 5.46679 5.25334 5.04013 4.77334C4.80546 4.50667 4.69879 4.19734 4.72013 3.84534C4.75213 3.48267 4.90679 3.19467 5.18412 2.98134C5.41879 2.81067 5.66413 2.72534 5.92013 2.72534C6.11213 2.72534 6.28813 2.76801 6.44813 2.85334C6.61879 2.92801 6.76279 3.04534 6.88012 3.20534C7.08279 3.45067 7.22679 3.82401 7.31213 4.32534C7.37613 4.67734 7.40813 5.05601 7.40813 5.46134C7.41879 5.56801 7.38146 5.65334 7.29612 5.71734C7.22146 5.78134 7.13079 5.80267 7.02413 5.78134ZM13.6641 6.06934H12.3361C12.5281 5.78134 12.6615 5.45601 12.7361 5.09334C12.8215 4.72001 12.8321 4.35734 12.7681 4.00534C12.7041 3.63201 12.5601 3.31201 12.3361 3.04534C12.1228 2.76801 11.8561 2.55467 11.5361 2.40534C11.2161 2.25601 10.8801 2.18134 10.5281 2.18134C9.96279 2.18134 9.46679 2.36267 9.04012 2.72534C8.83746 2.88534 8.64013 3.10401 8.44813 3.38134C8.32013 2.99734 8.14946 2.66667 7.93613 2.38934C7.69079 2.06934 7.39213 1.82401 7.04013 1.65334C6.68813 1.48267 6.31479 1.39734 5.92013 1.39734C5.35479 1.39734 4.83746 1.57334 4.36812 1.92534C4.00546 2.21334 3.73879 2.56534 3.56813 2.98134C3.40813 3.39734 3.35479 3.82934 3.40813 4.27734C3.46146 4.72534 3.63213 5.13067 3.92013 5.49334L3.98413 5.58934C4.15479 5.84534 4.27213 6.00534 4.33613 6.06934H2.33613C2.08013 6.06934 1.84546 6.17067 1.63213 6.37334C1.42946 6.57601 1.32812 6.80534 1.32812 7.06134V7.79734C1.32812 8.05334 1.42946 8.27201 1.63213 8.45334C1.84546 8.63467 2.08013 8.72534 2.33613 8.72534H13.6641C13.9201 8.72534 14.1495 8.63467 14.3521 8.45334C14.5655 8.27201 14.6721 8.05334 14.6721 7.79734V7.06134C14.6721 6.80534 14.5655 6.57601 14.3521 6.37334C14.1495 6.17067 13.9201 6.06934 13.6641 6.06934Z" fill="#E62E24"/>
</svg>
