<svg width="24" height="24" viewBox="0 0 24 24" fill="none" xmlns="http://www.w3.org/2000/svg">
<path d="M11.9658 0.0784729C12.3211 0.0764275 12.6749 -0.00402727 13.0274 0.0709729C14.5881 0.209382 16.1269 0.638247 17.5151 1.36916C19.3111 2.28893 20.856 3.68735 21.9769 5.36326C23.1203 7.06781 23.7973 9.07509 23.95 11.1205C23.9248 11.6619 23.9091 12.2067 23.9616 12.7467C23.8498 14.3019 23.4604 15.8442 22.7664 17.2447C21.9749 18.8722 20.8027 20.3122 19.3758 21.4249C17.5976 22.8192 15.4158 23.6913 13.1644 23.8979C12.8215 23.9225 12.4791 23.9859 12.1343 23.9593C11.9058 23.9442 11.6719 24.0172 11.4524 23.9238C12.2932 21.5586 13.1331 19.1926 13.9813 16.8294C14.9044 16.8124 15.8283 16.8356 16.7514 16.8185C17.3406 16.7981 17.9229 16.4394 18.1165 15.8667C18.8972 13.6685 19.6976 11.4765 20.4538 9.26872C20.5779 8.93531 20.6467 8.56372 20.5479 8.21463C20.4142 7.77213 20.0093 7.45917 19.5742 7.3419C19.1966 7.22463 18.7976 7.26758 18.409 7.26076C17.224 7.25735 16.039 7.2669 14.8547 7.25531C14.8356 7.29486 14.7967 7.37326 14.7777 7.41213C12.859 12.8012 10.9438 18.1918 9.01768 23.5781C7.03905 23.0647 5.19542 22.0365 3.72543 20.6156C1.95475 18.9212 0.725438 16.6678 0.270667 14.259C0.128168 13.5356 0.0763495 12.7992 0.0368042 12.0649C0.0688495 10.5355 0.319758 8.9994 0.895892 7.57713C2.30111 3.98462 5.55269 1.15575 9.33268 0.34711C7.39769 5.71235 5.50769 11.094 3.57338 16.4599C3.69679 16.4974 3.82634 16.4831 3.95315 16.4844C4.65815 16.4809 5.36383 16.4858 6.06883 16.483C6.16496 16.4823 6.15474 16.3487 6.19496 16.2873C7.0445 13.8887 7.90427 11.4934 8.75654 9.09616C8.80768 8.94752 8.85541 8.79752 8.92359 8.65638C9.36541 8.66388 9.80722 8.65434 10.249 8.66115C9.32245 11.2596 8.40405 13.8621 7.46382 16.4557C7.562 16.4952 7.66905 16.4829 7.772 16.485C8.51245 16.4782 9.25291 16.4897 9.99336 16.4796C10.8299 14.1184 11.6768 11.7614 12.5155 9.40161C12.6947 8.91888 12.7104 8.3482 12.4255 7.90297C12.1766 7.50888 11.7041 7.3207 11.2534 7.30229C10.6371 7.28388 10.02 7.30365 9.40297 7.29274C10.2511 4.88598 11.1245 2.48802 11.9658 0.0784729Z" fill="#737373"/>
<path d="M16.8785 8.68706C16.9521 8.60388 17.0831 8.65433 17.1812 8.64001C17.5235 8.64615 17.8657 8.63728 18.2081 8.64478C17.411 10.92 16.5764 13.1823 15.7923 15.4623C15.3491 15.4937 14.9025 15.4746 14.4587 15.4719C15.268 13.2116 16.0691 10.948 16.8785 8.68706Z" fill="#737373"/>
</svg>
