<svg width="62" height="24" viewBox="0 0 62 24" fill="none" xmlns="http://www.w3.org/2000/svg">
<path fill-rule="evenodd" clip-rule="evenodd" d="M5.125 2V3.36833H15.1494V2H5.125ZM16.5696 2V3.36833H30.8549C30.8549 3.36833 29.3957 2 27.4631 2H16.5696ZM33.6572 2V3.36833H42.2995L41.7866 2H33.6572ZM48.4956 2L47.9827 3.36833H56.5465V2H48.4956ZM5.125 4.66107V6.0294H15.1494V4.66107H5.125ZM16.5696 4.66309V6.02952H32.5125C32.5125 6.02952 32.3263 4.97631 32.0015 4.66309H16.5696ZM33.6572 4.66309V6.02952H43.247L42.7722 4.66309H33.6572ZM47.4696 4.66309L46.9949 6.02952H56.5465V4.66309H47.4696ZM8.00581 7.32214V8.6925H12.347V7.32214H8.00581ZM19.4505 7.32214V8.6925H23.7918V7.32214H19.4505ZM28.0143 7.32214V8.6925H32.3556C32.3556 8.6925 32.6313 7.96881 32.6313 7.32214H28.0143ZM36.538 7.32214V8.6925H44.2348L43.7218 7.32214H36.538ZM46.5241 7.32214L46.0091 8.6925H53.7442V7.32214H46.5241ZM8.00581 9.98536V11.3537H12.347V9.98536H8.00581ZM19.4505 9.98536V11.3537H30.539C30.539 11.3537 31.4666 10.6515 31.7621 9.98536H19.4505ZM36.538 9.98536V11.3537H40.8792V10.5919L41.1549 11.3537H49.1072L49.403 10.5919V11.3537H53.7442V9.98536H45.5947L45.1622 11.1443L44.7276 9.98536H36.538ZM8.00581 12.6464V14.0148H12.347V12.6464H8.00581ZM19.4505 12.6464V14.0148H31.7621C31.4666 13.3507 30.539 12.6464 30.539 12.6464H19.4505ZM36.538 12.6464V14.0148H40.8792V12.6464H36.538ZM41.6678 12.6464L42.1929 14.0148H48.1556L48.6545 12.6464H41.6678ZM49.4029 12.6464V14.0148H53.7442V12.6464H49.4029ZM8.00581 15.3075V16.6758H12.347V15.3075H8.00581ZM19.4505 15.3075V16.6758H23.7918V15.3075H19.4505ZM28.0143 15.3075V16.6758H32.6311C32.6311 16.03 32.3556 15.3075 32.3556 15.3075H28.0143ZM36.538 15.3075V16.6758H40.8792V15.3075H36.538ZM42.6537 15.3075L43.1625 16.6758H47.1599L47.6728 15.3075H42.6537ZM49.4029 15.3075V16.6758H53.7442V15.3075H49.4029ZM5.20348 17.9686V19.3389H15.2278V17.9686H5.20348ZM16.5696 17.9686V19.3389H32.0015C32.3263 19.0251 32.5125 17.9686 32.5125 17.9686H16.5696ZM33.7357 17.9686V19.3389H40.8792V17.9686H33.7357ZM43.6414 17.9686L44.1643 19.3389H46.1982L46.6891 17.9686H43.6414ZM49.4029 17.9686V19.3389H56.625V17.9686H49.4029ZM5.20348 20.6317V22H15.2278V20.6317H5.20348ZM16.5696 20.6317V21.9981H27.4631C29.3957 21.9981 30.8549 20.6317 30.8549 20.6317H16.5696ZM33.7357 20.6317V22H40.8792V20.6317H33.7357ZM44.6331 20.6317L45.1361 21.9962L45.2225 21.9981L45.7336 20.6317H44.6331ZM49.4029 20.6317V22H56.625V20.6317H49.4029Z" fill="#6C6C6C"/>
</svg>
