<svg width="16" height="16" viewBox="0 0 16 16" fill="none" xmlns="http://www.w3.org/2000/svg">
<path fill-rule="evenodd" clip-rule="evenodd" d="M3.99999 3.33333H12V9.33333H3.99999V3.33333ZM2.67131 9.4455C2.66823 9.40852 2.66666 9.37111 2.66666 9.33333V3.33333C2.66666 2.59695 3.26362 2 3.99999 2H12C12.7364 2 13.3333 2.59695 13.3333 3.33333V9.33333C13.3333 9.37111 13.3318 9.40852 13.3287 9.4455C14.1079 9.71874 14.6667 10.4608 14.6667 11.3333C14.6667 12.4379 13.7712 13.3333 12.6667 13.3333H3.33333C2.22876 13.3333 1.33333 12.4379 1.33333 11.3333C1.33333 10.4608 1.89209 9.71874 2.67131 9.4455ZM12 10.6667H3.99999H3.33333C2.96514 10.6667 2.66666 10.9651 2.66666 11.3333C2.66666 11.7015 2.96514 12 3.33333 12H12.6667C13.0349 12 13.3333 11.7015 13.3333 11.3333C13.3333 10.9651 13.0349 10.6667 12.6667 10.6667H12Z" fill="#2F3136"/>
</svg>
