<svg width="16" height="16" viewBox="0 0 16 16" fill="none" xmlns="http://www.w3.org/2000/svg">
<path d="M11.515 7.13599C11.643 7.00799 11.707 6.85332 11.707 6.67199C11.707 6.49066 11.643 6.33066 11.515 6.19199L11.451 6.14399C11.323 6.00532 11.163 5.93599 10.971 5.93599C10.7897 5.93599 10.635 6.00532 10.507 6.14399L7.93103 8.71999L5.35503 6.14399C5.22703 6.00532 5.07237 5.93599 4.89103 5.93599C4.7097 5.93599 4.5497 6.00532 4.41103 6.14399L4.36303 6.19199C4.22437 6.33066 4.15503 6.49066 4.15503 6.67199C4.15503 6.85332 4.22437 7.00799 4.36303 7.13599L7.46703 10.24C7.59503 10.368 7.7497 10.432 7.93103 10.432C8.11237 10.432 8.27237 10.368 8.41103 10.24L11.515 7.13599Z" fill="#2F3136"/>
</svg>
