<svg width="16" height="16" viewBox="0 0 16 16" fill="none" xmlns="http://www.w3.org/2000/svg">
<path d="M7.13599 4.48533C7.00799 4.35733 6.85332 4.29333 6.67199 4.29333C6.49066 4.29333 6.33066 4.35733 6.19199 4.48533L6.14399 4.54933C6.00532 4.67733 5.93599 4.83733 5.93599 5.02933C5.93599 5.21067 6.00532 5.36533 6.14399 5.49333L8.71999 8.06933L6.14399 10.6453C6.00532 10.7733 5.93599 10.928 5.93599 11.1093C5.93599 11.2907 6.00532 11.4507 6.14399 11.5893L6.19199 11.6373C6.33066 11.776 6.49066 11.8453 6.67199 11.8453C6.85332 11.8453 7.00799 11.776 7.13599 11.6373L10.24 8.53333C10.368 8.40533 10.432 8.25067 10.432 8.06933C10.432 7.888 10.368 7.728 10.24 7.58933L7.13599 4.48533Z" fill="#2F3136"/>
</svg>
