<svg width="16" height="16" viewBox="0 0 16 16" fill="none" xmlns="http://www.w3.org/2000/svg">
<path d="M5.28393 3.55967C5.28393 3.55079 5.28393 3.54634 5.28393 3.54634V3.51967C5.36381 3.1019 5.53243 2.72856 5.78981 2.39968C6.04718 2.07079 6.36668 1.81301 6.7483 1.62634C7.12993 1.43079 7.54705 1.33301 7.99967 1.33301C8.39905 1.33301 8.77623 1.40856 9.13123 1.55967C9.54835 1.73745 9.89448 1.99967 10.1696 2.34634C10.4536 2.68412 10.6355 3.07523 10.7154 3.51967V3.54634C10.7243 3.54634 10.7287 3.55079 10.7287 3.55967C11.2523 3.63967 11.6917 3.86634 12.0467 4.23968C12.4017 4.61301 12.6058 5.04856 12.659 5.54634L13.3247 12.213C13.3602 12.6575 13.2847 13.0663 13.0983 13.4397C12.9208 13.813 12.6546 14.1108 12.2996 14.333C11.9446 14.5552 11.5497 14.6663 11.1148 14.6663H4.89787C4.48075 14.6663 4.09469 14.5552 3.73969 14.333C3.38469 14.1108 3.10957 13.8086 2.91432 13.4263C2.71907 13.053 2.6392 12.6486 2.6747 12.213L3.34032 5.54634C3.40244 5.04856 3.611 4.61301 3.966 4.23968C4.32988 3.86634 4.76919 3.63967 5.28393 3.55967ZM5.39043 4.66634C5.13306 4.71967 4.91562 4.83967 4.73813 5.02634C4.5695 5.21301 4.47188 5.42634 4.44525 5.66634L3.77963 12.3197C3.76188 12.5419 3.80182 12.7463 3.89944 12.933C4.00594 13.1286 4.14794 13.2797 4.32544 13.3863C4.50294 13.5019 4.69375 13.5597 4.89787 13.5597H11.1148C11.4432 13.5597 11.7138 13.4397 11.9268 13.1997C12.1487 12.9597 12.2463 12.6663 12.2197 12.3197L11.5541 5.66634C11.5275 5.42634 11.4298 5.21301 11.2612 5.02634C11.0926 4.83967 10.8796 4.71967 10.6222 4.66634H5.39043ZM7.99967 2.43967C7.64467 2.43967 7.32518 2.5419 7.04118 2.74634C6.75718 2.9419 6.56193 3.20856 6.45543 3.54634H9.55723C9.47735 3.31523 9.35311 3.11523 9.18448 2.94634C9.02473 2.76856 8.83392 2.63523 8.61205 2.54634C8.4168 2.47523 8.21267 2.43967 7.99967 2.43967ZM5.23069 7.15967C5.23069 6.93745 5.31056 6.74634 5.47031 6.58634C5.63893 6.41745 5.83418 6.33301 6.05606 6.33301C6.27793 6.33301 6.47318 6.41745 6.6418 6.58634C6.81043 6.74634 6.89474 6.93745 6.89474 7.15967C6.89474 7.3819 6.81043 7.57745 6.6418 7.74634C6.48206 7.91523 6.28681 7.99967 6.05606 7.99967C5.83418 7.99967 5.63893 7.91967 5.47031 7.75967C5.31056 7.59079 5.23069 7.39079 5.23069 7.15967ZM6.28237 11.7197C6.18474 11.7197 6.11374 11.7152 6.06937 11.7063C5.99837 11.6886 5.94068 11.6575 5.89631 11.613C5.78093 11.5241 5.71437 11.3997 5.69662 11.2397C5.68775 11.0708 5.73656 10.933 5.84306 10.8263L9.27767 6.66634C9.39304 6.55079 9.52173 6.48856 9.66373 6.47968C9.8146 6.4619 9.94329 6.50634 10.0498 6.61301C10.1652 6.69301 10.2317 6.81301 10.2495 6.97301C10.2672 7.13301 10.2229 7.27079 10.1164 7.38634L6.66843 11.5463C6.61518 11.5997 6.55305 11.6441 6.48205 11.6797C6.41106 11.7063 6.34449 11.7197 6.28237 11.7197ZM9.94329 11.8797C9.72142 11.8797 9.52617 11.7997 9.35754 11.6397C9.19779 11.4708 9.11792 11.2752 9.11792 11.053C9.11792 10.8308 9.19779 10.6352 9.35754 10.4663C9.52617 10.2975 9.72142 10.213 9.94329 10.213C10.1652 10.213 10.3604 10.2975 10.529 10.4663C10.6977 10.6352 10.782 10.8308 10.782 11.053C10.782 11.2752 10.6977 11.4708 10.529 11.6397C10.3604 11.7997 10.1652 11.8797 9.94329 11.8797Z" fill="#FA8C16"/>
</svg>
