<svg width="16" height="16" viewBox="0 0 16 16" fill="none" xmlns="http://www.w3.org/2000/svg">
<path d="M7.99998 4.06934C7.23198 4.06934 6.46398 4.21868 5.69598 4.51734C4.93865 4.81601 4.24532 5.23201 3.61598 5.76534C2.99732 6.29868 2.49598 6.91734 2.11198 7.62134C2.03732 7.76001 1.99998 7.90934 1.99998 8.06934C1.99998 8.21868 2.03732 8.36268 2.11198 8.50134C2.49598 9.20534 2.99732 9.82934 3.61598 10.3733C4.24532 10.9067 4.93865 11.3227 5.69598 11.6213C6.46398 11.92 7.23198 12.0693 7.99998 12.0693C8.76798 12.0693 9.53065 11.92 10.288 11.6213C11.056 11.3227 11.7493 10.9067 12.368 10.3733C12.9973 9.82934 13.504 9.20534 13.888 8.50134C13.9733 8.36268 14.016 8.21868 14.016 8.06934C14.016 7.90934 13.9733 7.76001 13.888 7.62134C13.504 6.91734 12.9973 6.29868 12.368 5.76534C11.7493 5.23201 11.056 4.81601 10.288 4.51734C9.53065 4.21868 8.76798 4.06934 7.99998 4.06934ZM0.943982 6.98134C1.40265 6.13868 2.00532 5.39734 2.75198 4.75734C3.49865 4.11734 4.32532 3.62134 5.23198 3.26934C6.13865 2.90668 7.06132 2.72534 7.99998 2.72534C8.93865 2.72534 9.86131 2.90668 10.768 3.26934C11.6746 3.62134 12.5013 4.11734 13.248 4.75734C13.9946 5.39734 14.5973 6.13868 15.056 6.98134C15.2373 7.31201 15.328 7.67468 15.328 8.06934C15.328 8.45334 15.2373 8.81601 15.056 9.15734C14.5973 9.98934 13.9946 10.7307 13.248 11.3813C12.5013 12.0213 11.6746 12.5173 10.768 12.8693C9.86131 13.2213 8.93865 13.3973 7.99998 13.3973C7.06132 13.3973 6.13865 13.2213 5.23198 12.8693C4.32532 12.5173 3.49865 12.0213 2.75198 11.3813C2.00532 10.7307 1.40265 9.98934 0.943982 9.15734C0.762648 8.81601 0.671982 8.45334 0.671982 8.06934C0.671982 7.67468 0.762648 7.31201 0.943982 6.98134ZM7.99998 9.39734C7.63732 9.39734 7.32265 9.26934 7.05598 9.01334C6.79998 8.74668 6.67198 8.43201 6.67198 8.06934C6.67198 7.69601 6.79998 7.38134 7.05598 7.12534C7.32265 6.85868 7.63732 6.72534 7.99998 6.72534C8.36265 6.72534 8.67198 6.85868 8.92798 7.12534C9.19465 7.38134 9.32798 7.69601 9.32798 8.06934C9.32798 8.43201 9.19998 8.74668 8.94398 9.01334C8.68798 9.26934 8.37332 9.39734 7.99998 9.39734ZM7.99998 10.7253C8.47998 10.7253 8.92265 10.608 9.32798 10.3733C9.74398 10.128 10.0693 9.80268 10.304 9.39734C10.5493 8.99201 10.672 8.54934 10.672 8.06934C10.672 7.58934 10.5493 7.14668 10.304 6.74134C10.0693 6.32534 9.74398 6.00001 9.32798 5.76534C8.92265 5.52001 8.47998 5.39734 7.99998 5.39734C7.51998 5.39734 7.07198 5.52001 6.65598 5.76534C6.25065 6.00001 5.92532 6.32534 5.67998 6.74134C5.44532 7.14668 5.32798 7.58934 5.32798 8.06934C5.32798 8.54934 5.44532 8.99201 5.67998 9.39734C5.92532 9.80268 6.25065 10.128 6.65598 10.3733C7.07198 10.608 7.51998 10.7253 7.99998 10.7253Z" fill="#888B96"/>
</svg>
