<svg width="16" height="16" viewBox="0 0 16 16" fill="none" xmlns="http://www.w3.org/2000/svg">
<path d="M13.328 8.06934C13.328 9.04001 13.088 9.93601 12.608 10.7573C12.128 11.5573 11.488 12.1973 10.688 12.6773C9.86669 13.1573 8.97069 13.3973 8.00002 13.3973C7.02935 13.3973 6.13335 13.1573 5.31202 12.6773C4.51202 12.1973 3.87202 11.5573 3.39202 10.7573C2.91202 9.93601 2.67202 9.04001 2.67202 8.06934H1.32802C1.32802 9.27467 1.63202 10.3947 2.24002 11.4293C2.82668 12.4427 3.62669 13.2427 4.64002 13.8293C5.67469 14.4373 6.79468 14.7413 8.00002 14.7413C9.20535 14.7413 10.3254 14.4373 11.36 13.8293C12.3734 13.2427 13.1734 12.4427 13.76 11.4293C14.368 10.3947 14.672 9.27467 14.672 8.06934C14.672 6.86401 14.368 5.74401 13.76 4.70934C13.1734 3.69601 12.3734 2.89601 11.36 2.30934C10.3254 1.70134 9.20535 1.39734 8.00002 1.39734C7.18935 1.39734 6.40002 1.54134 5.63202 1.82934C4.89602 2.11734 4.22935 2.51734 3.63202 3.02934L3.13602 2.53334C2.99735 2.39467 2.83735 2.33067 2.65602 2.34134C2.48535 2.35201 2.33068 2.42134 2.19202 2.54934C2.06402 2.66667 2.00002 2.82134 2.00002 3.01334V5.39734C2.00002 5.57867 2.06402 5.73867 2.19202 5.87734C2.33068 6.00534 2.49068 6.06934 2.67202 6.06934H5.05602C5.24802 6.06934 5.40269 6.00534 5.52002 5.87734C5.64802 5.73867 5.71735 5.58401 5.72802 5.41334C5.73869 5.23201 5.67469 5.07201 5.53602 4.93334L4.57602 3.97334C5.05602 3.57867 5.57868 3.27467 6.14402 3.06134C6.75202 2.83734 7.37068 2.72534 8.00002 2.72534C8.96002 2.72534 9.85602 2.97067 10.688 3.46134C11.488 3.93067 12.128 4.57067 12.608 5.38134C13.088 6.20267 13.328 7.09867 13.328 8.06934ZM8.67202 4.72534C8.67202 4.54401 8.60269 4.38934 8.46402 4.26134C8.33602 4.13334 8.18135 4.06934 8.00002 4.06934C7.81868 4.06934 7.65868 4.13334 7.52002 4.26134C7.39202 4.38934 7.32802 4.54401 7.32802 4.72534V7.50934C7.32802 7.70134 7.26402 7.86134 7.13602 7.98934L5.32802 9.79734C5.20002 9.92534 5.13602 10.08 5.13602 10.2613C5.13602 10.4427 5.20002 10.5973 5.32802 10.7253C5.45602 10.8533 5.61069 10.9227 5.79202 10.9333C5.98402 10.9333 6.14402 10.864 6.27202 10.7253L8.48002 8.53334C8.60802 8.38401 8.67202 8.22934 8.67202 8.06934V4.72534Z" fill="#888B96"/>
</svg>
