<svg width="16" height="16" viewBox="0 0 16 16" fill="none" xmlns="http://www.w3.org/2000/svg">
<path fill-rule="evenodd" clip-rule="evenodd" d="M12.0002 1.33331C12.7365 1.33331 13.3333 1.93212 13.3333 2.66665V13.3333C13.3333 14.0697 12.7377 14.6666 12.0002 14.6666H4.66642C3.93017 14.6666 3.33333 14.0678 3.33333 13.3333V2.66665C3.33333 1.93027 3.92893 1.33331 4.66642 1.33331H12.0002ZM4.66666 2.66665V13.3333H12V2.66665H4.66666ZM8.33333 12.6666C7.22876 12.6666 6.33333 11.7712 6.33333 10.6666C6.33333 9.56208 7.22876 8.66665 8.33333 8.66665C9.4379 8.66665 10.3333 9.56208 10.3333 10.6666C10.3333 11.7712 9.4379 12.6666 8.33333 12.6666ZM8.33333 11.3333C8.70152 11.3333 9 11.0348 9 10.6666C9 10.2985 8.70152 9.99998 8.33333 9.99998C7.96514 9.99998 7.66666 10.2985 7.66666 10.6666C7.66666 11.0348 7.96514 11.3333 8.33333 11.3333ZM10.6683 3.33331C11.0356 3.33331 11.3333 3.63233 11.3333 4.00193V7.33136C11.3333 7.70063 11.0358 7.99998 10.6683 7.99998H5.99836C5.63107 7.99998 5.33333 7.70096 5.33333 7.33136V4.00193C5.33333 3.63266 5.63087 3.33331 5.99836 3.33331H10.6683ZM6.66666 4.66665V6.66665H10V4.66665H6.66666Z" fill="#2F3136"/>
</svg>
