<svg width="16" height="16" viewBox="0 0 16 16" fill="none" xmlns="http://www.w3.org/2000/svg">
<path d="M7.99987 8.72546C8.37321 8.72546 8.70921 8.64013 9.00787 8.46946C9.31721 8.28813 9.55721 8.04813 9.72787 7.74946C9.90921 7.44013 9.99987 7.09879 9.99987 6.72546C9.99987 6.35213 9.90921 6.01613 9.72787 5.71746C9.55721 5.40813 9.31721 5.16813 9.00787 4.99746C8.70921 4.81613 8.37321 4.72546 7.99987 4.72546C7.62654 4.72546 7.28521 4.81613 6.97587 4.99746C6.67721 5.16813 6.43721 5.40813 6.25588 5.71746C6.08521 6.01613 5.99988 6.35213 5.99988 6.72546C5.99988 7.09879 6.08521 7.44013 6.25588 7.74946C6.43721 8.04813 6.67721 8.28813 6.97587 8.46946C7.28521 8.64013 7.62654 8.72546 7.99987 8.72546ZM7.99987 7.39746C7.79721 7.39746 7.63188 7.33879 7.50387 7.22146C7.38654 7.09346 7.32787 6.92813 7.32787 6.72546C7.32787 6.52279 7.38654 6.3628 7.50387 6.24546C7.63188 6.12813 7.79721 6.06946 7.99987 6.06946C8.20254 6.06946 8.36254 6.13346 8.47988 6.26146C8.60788 6.37879 8.67188 6.53879 8.67188 6.74146C8.67188 6.93346 8.60788 7.09346 8.47988 7.22146C8.36254 7.33879 8.20254 7.39746 7.99987 7.39746ZM2.67188 6.74146C2.67188 7.39213 2.79454 8.03213 3.03988 8.66146C3.27454 9.2588 3.59454 9.79746 3.99987 10.2775L7.00787 13.6215C7.17854 13.8135 7.38654 13.9415 7.63188 14.0055C7.87721 14.0801 8.12254 14.0801 8.36787 14.0055C8.61321 13.9415 8.82654 13.8135 9.00787 13.6215L11.9999 10.2775C12.4052 9.79746 12.7252 9.2588 12.9599 8.66146C13.2052 8.03213 13.3279 7.39213 13.3279 6.74146C13.3279 5.78146 13.0825 4.88546 12.5919 4.05346C12.1225 3.24279 11.4879 2.60279 10.6879 2.13346C9.85588 1.64279 8.95987 1.39746 7.99987 1.39746C7.03987 1.39746 6.14387 1.64279 5.31187 2.13346C4.51187 2.60279 3.87721 3.24279 3.40788 4.05346C2.91721 4.88546 2.67188 5.78146 2.67188 6.74146ZM7.99987 12.7255L5.00787 9.39746C4.69854 9.02413 4.45321 8.60813 4.27188 8.14946C4.09054 7.69079 3.99987 7.22146 3.99987 6.74146C3.99987 6.01613 4.18121 5.34946 4.54387 4.74146C4.90654 4.12279 5.39188 3.63213 5.99988 3.26946C6.61854 2.90679 7.28521 2.72546 7.99987 2.72546C8.71454 2.72546 9.37587 2.90679 9.98387 3.26946C10.6025 3.63213 11.0932 4.12279 11.4559 4.74146C11.8185 5.34946 11.9999 6.01613 11.9999 6.74146C11.9999 7.22146 11.9092 7.69079 11.7279 8.14946C11.5465 8.60813 11.3012 9.02413 10.9919 9.39746L7.99987 12.7255Z" fill="#E94040"/>
</svg>
