<svg width="16" height="16" viewBox="0 0 16 16" fill="none" xmlns="http://www.w3.org/2000/svg">
<path fill-rule="evenodd" clip-rule="evenodd" d="M10 6.00396C10 6.37105 9.70245 6.66864 9.33497 6.66864H4.66502C4.29774 6.66864 3.99999 6.37047 3.99999 6.00396V2.66789L2.66387 2.66774V13.3344H3.99999V9.99891C3.99999 9.63241 4.299 9.33531 4.66831 9.33531H11.3317C11.7008 9.33531 12 9.63472 12 9.99891V13.3344H13.3305L13.3447 5.23219L10.7829 2.66862L10 2.66854V6.00396ZM6.66666 2.66818V5.33531H8.66666V2.66839L6.66666 2.66818ZM2.66667 14.6663C1.93029 14.6663 1.33333 14.0675 1.33333 13.333V2.66633C1.33333 1.92995 1.93076 1.33314 2.66737 1.33331L11.0006 1.33531C11.1844 1.33531 11.4367 1.43873 11.5677 1.56971L14.4323 4.43425C14.5617 4.5637 14.6667 4.81777 14.6667 5.00136V13.3326C14.6667 14.0692 14.0679 14.6663 13.3333 14.6663H2.66667ZM10.6667 10.6686H5.33333V13.3344H10.6667V10.6686Z" fill="#2F3136"/>
</svg>
