<svg width="16" height="16" viewBox="0 0 16 16" fill="none" xmlns="http://www.w3.org/2000/svg">
<path d="M14.3617 4.33233C14.6663 5.52033 14.6663 8.00033 14.6663 8.00033C14.6663 8.00033 14.6663 10.4803 14.3617 11.6683C14.1923 12.325 13.697 12.8417 13.0697 13.0163C11.9303 13.3337 7.99967 13.3337 7.99967 13.3337C7.99967 13.3337 4.07101 13.3337 2.92967 13.0163C2.29967 12.839 1.80501 12.323 1.63767 11.6683C1.33301 10.4803 1.33301 8.00033 1.33301 8.00033C1.33301 8.00033 1.33301 5.52033 1.63767 4.33233C1.80701 3.67566 2.30234 3.15899 2.92967 2.98433C4.07101 2.66699 7.99967 2.66699 7.99967 2.66699C7.99967 2.66699 11.9303 2.66699 13.0697 2.98433C13.6997 3.16166 14.1943 3.67766 14.3617 4.33233ZM6.66634 10.3337L10.6663 8.00033L6.66634 5.66699V10.3337Z" fill="#E94040"/>
</svg>
