<svg width="68" height="31" viewBox="0 0 68 31" fill="none" xmlns="http://www.w3.org/2000/svg">
<path d="M6.125 30H0.460938V8.86719H6.125V30ZM0.128906 3.39844C0.128906 2.55208 0.408854 1.85547 0.96875 1.30859C1.54167 0.761719 2.31641 0.488281 3.29297 0.488281C4.25651 0.488281 5.02474 0.761719 5.59766 1.30859C6.17057 1.85547 6.45703 2.55208 6.45703 3.39844C6.45703 4.25781 6.16406 4.96094 5.57812 5.50781C5.00521 6.05469 4.24349 6.32812 3.29297 6.32812C2.34245 6.32812 1.57422 6.05469 0.988281 5.50781C0.415365 4.96094 0.128906 4.25781 0.128906 3.39844ZM17.582 25.8398C18.6237 25.8398 19.4701 25.5534 20.1211 24.9805C20.7721 24.4076 21.1107 23.6458 21.1367 22.6953H26.4297C26.4167 24.1276 26.026 25.4427 25.2578 26.6406C24.4896 27.8255 23.4349 28.75 22.0938 29.4141C20.7656 30.0651 19.2943 30.3906 17.6797 30.3906C14.6589 30.3906 12.276 29.4336 10.5312 27.5195C8.78646 25.5924 7.91406 22.9362 7.91406 19.5508V19.1797C7.91406 15.9245 8.77995 13.3268 10.5117 11.3867C12.2435 9.44661 14.6198 8.47656 17.6406 8.47656C20.2839 8.47656 22.3997 9.23177 23.9883 10.7422C25.5898 12.2396 26.4036 14.2383 26.4297 16.7383H21.1367C21.1107 15.6445 20.7721 14.7591 20.1211 14.082C19.4701 13.3919 18.6107 13.0469 17.543 13.0469C16.2279 13.0469 15.2318 13.5286 14.5547 14.4922C13.8906 15.4427 13.5586 16.9922 13.5586 19.1406V19.7266C13.5586 21.901 13.8906 23.4635 14.5547 24.4141C15.2188 25.3646 16.2279 25.8398 17.582 25.8398ZM41.1289 30H35.4844V8.24219L28.7461 10.332V5.74219L40.5234 1.52344H41.1289V30ZM63.6992 1.26953V5.91797H63.1523C60.6003 5.95703 58.543 6.62109 56.9805 7.91016C55.431 9.19922 54.5 10.9896 54.1875 13.2812C55.6979 11.7448 57.6055 10.9766 59.9102 10.9766C62.3841 10.9766 64.3503 11.862 65.8086 13.6328C67.2669 15.4036 67.9961 17.7344 67.9961 20.625C67.9961 22.474 67.5924 24.1471 66.7852 25.6445C65.9909 27.1419 64.8581 28.3073 63.3867 29.1406C61.9284 29.974 60.2747 30.3906 58.4258 30.3906C55.431 30.3906 53.0091 29.349 51.1602 27.2656C49.3242 25.1823 48.4062 22.4023 48.4062 18.9258V16.8945C48.4062 13.8086 48.9857 11.0872 50.1445 8.73047C51.3164 6.36068 52.9896 4.53125 55.1641 3.24219C57.3516 1.9401 59.8841 1.28255 62.7617 1.26953H63.6992ZM58.1914 15.5078C57.2799 15.5078 56.4531 15.7487 55.7109 16.2305C54.9688 16.6992 54.4219 17.3242 54.0703 18.1055V19.8242C54.0703 21.7122 54.4414 23.1901 55.1836 24.2578C55.9258 25.3125 56.9674 25.8398 58.3086 25.8398C59.5195 25.8398 60.4961 25.3646 61.2383 24.4141C61.9935 23.4505 62.3711 22.207 62.3711 20.6836C62.3711 19.1341 61.9935 17.8841 61.2383 16.9336C60.4831 15.9831 59.4674 15.5078 58.1914 15.5078Z" fill="black"/>
</svg>
