<svg width="16" height="16" viewBox="0 0 16 16" fill="none" xmlns="http://www.w3.org/2000/svg">
<path fill-rule="evenodd" clip-rule="evenodd" d="M11.3363 13.3333C11.7028 13.3333 12 13.6292 12 14C12 14.3682 11.7 14.6666 11.3363 14.6666H3.33043C2.96385 14.6666 2.66668 14.3707 2.66668 14C2.66668 13.6318 2.96664 13.3333 3.33043 13.3333H4.89156L2.94143 9.66564C2.04808 9.63477 1.33334 8.90085 1.33334 7.99998C1.33334 7.07951 2.07954 6.33331 3.00001 6.33331C3.16563 6.33331 3.3256 6.35747 3.4766 6.40245L9.31608 2.00209C9.34852 1.97764 9.38314 1.95597 9.41945 1.93705C9.96104 1.55663 10.6211 1.33331 11.3333 1.33331C13.1743 1.33331 14.6667 2.82529 14.6667 4.66665V7.33638C14.6667 7.70288 14.3673 7.99998 14.0031 7.99998H12.6667C12.6667 8.73636 12.0697 9.33331 11.3333 9.33331C10.597 9.33331 10 8.73636 10 7.99998H8.66361C8.29711 7.99998 8.00001 7.70058 8.00001 7.33638V4.66665L4.50989 7.29333C4.61047 7.50787 4.66668 7.74736 4.66668 7.99998C4.66668 8.45557 4.48388 8.86846 4.18762 9.16932L6.39794 13.3263C6.39917 13.3286 8.00001 13.3333 8.00001 13.3333V12.666C8.00001 12.2982 8.29592 12 8.66668 12C9.03487 12 9.33334 12.2955 9.33334 12.666V13.3333H11.3363ZM9.33798 6.66665L13.3333 6.664V4.66665C13.3333 3.56184 12.4381 2.66665 11.3333 2.66665C10.2285 2.66665 9.33334 3.56191 9.33334 4.66665L9.33798 6.66665Z" fill="#2F3136"/>
</svg>
