<svg width="16" height="16" viewBox="0 0 16 16" fill="none" xmlns="http://www.w3.org/2000/svg">
<path d="M2.67188 2.06934C2.30921 2.06934 1.97321 2.16 1.66387 2.34134C1.36521 2.52267 1.12521 2.768 0.943875 3.07734C0.762542 3.376 0.671875 3.70667 0.671875 4.06934V12.0693C0.671875 12.432 0.762542 12.768 0.943875 13.0773C1.12521 13.376 1.36521 13.616 1.66387 13.7973C1.97321 13.9787 2.30921 14.0693 2.67188 14.0693H13.3279C13.6905 14.0693 14.0212 13.9787 14.3199 13.7973C14.6292 13.616 14.8745 13.376 15.0559 13.0773C15.2372 12.768 15.3279 12.432 15.3279 12.0693V4.06934C15.3279 3.70667 15.2372 3.376 15.0559 3.07734C14.8745 2.768 14.6292 2.52267 14.3199 2.34134C14.0212 2.16 13.6905 2.06934 13.3279 2.06934H2.67188ZM1.99987 12.0693V6.72534H13.9999V12.0693C13.9999 12.2507 13.9305 12.4053 13.7919 12.5333C13.6639 12.6613 13.5092 12.7253 13.3279 12.7253H2.67188C2.49054 12.7253 2.33054 12.6613 2.19187 12.5333C2.06387 12.4053 1.99987 12.2507 1.99987 12.0693ZM1.99987 4.72534V4.06934C1.99987 3.888 2.06387 3.73334 2.19187 3.60534C2.33054 3.46667 2.49054 3.39734 2.67188 3.39734H13.3279C13.5092 3.39734 13.6639 3.46667 13.7919 3.60534C13.9305 3.73334 13.9999 3.888 13.9999 4.06934V4.72534H1.99987ZM3.99987 10.0693H7.99988C8.18121 10.0693 8.33588 10.1333 8.46388 10.2613C8.60254 10.3893 8.67188 10.544 8.67188 10.7253C8.67188 10.9067 8.60254 11.0667 8.46388 11.2053C8.33588 11.3333 8.18121 11.3973 7.99988 11.3973H3.99987C3.81854 11.3973 3.65854 11.3333 3.51988 11.2053C3.39188 11.0667 3.32788 10.9067 3.32788 10.7253C3.32788 10.544 3.39188 10.3893 3.51988 10.2613C3.65854 10.1333 3.81854 10.0693 3.99987 10.0693Z" fill="#31C375"/>
</svg>
