<svg width="16" height="16" viewBox="0 0 16 16" fill="none" xmlns="http://www.w3.org/2000/svg">
<path d="M13.3333 5.33334L9.33327 1.82667C8.96659 1.4987 8.4919 1.31738 7.99994 1.31738C7.50799 1.31738 7.03329 1.4987 6.66661 1.82667L2.66661 5.33334C2.45485 5.52272 2.28587 5.75504 2.17092 6.01483C2.05597 6.27463 1.99768 6.55592 1.99994 6.84V12.6667C1.99994 13.1971 2.21065 13.7058 2.58573 14.0809C2.9608 14.456 3.46951 14.6667 3.99994 14.6667H11.9999C12.5304 14.6667 13.0391 14.456 13.4142 14.0809C13.7892 13.7058 13.9999 13.1971 13.9999 12.6667V6.83334C14.0013 6.55038 13.9425 6.27036 13.8276 6.01179C13.7127 5.75322 13.5442 5.52197 13.3333 5.33334ZM9.33327 13.3333H6.66661V10C6.66661 9.82319 6.73685 9.65362 6.86187 9.5286C6.98689 9.40357 7.15646 9.33334 7.33327 9.33334H8.66661C8.84342 9.33334 9.01299 9.40357 9.13801 9.5286C9.26304 9.65362 9.33327 9.82319 9.33327 10V13.3333ZM12.6666 12.6667C12.6666 12.8435 12.5964 13.0131 12.4713 13.1381C12.3463 13.2631 12.1768 13.3333 11.9999 13.3333H10.6666V10C10.6666 9.46957 10.4559 8.96086 10.0808 8.58579C9.70575 8.21072 9.19704 8 8.66661 8H7.33327C6.80284 8 6.29413 8.21072 5.91906 8.58579C5.54399 8.96086 5.33327 9.46957 5.33327 10V13.3333H3.99994C3.82313 13.3333 3.65356 13.2631 3.52854 13.1381C3.40351 13.0131 3.33327 12.8435 3.33327 12.6667V6.83334C3.33339 6.73868 3.35367 6.64513 3.39275 6.55892C3.43184 6.47271 3.48883 6.39581 3.55994 6.33334L7.55994 2.83334C7.6816 2.72646 7.838 2.66751 7.99994 2.66751C8.16188 2.66751 8.31828 2.72646 8.43994 2.83334L12.4399 6.33334C12.5111 6.39581 12.568 6.47271 12.6071 6.55892C12.6462 6.64513 12.6665 6.73868 12.6666 6.83334V12.6667Z" fill="#2F3136"/>
</svg>
