<svg width="16" height="16" viewBox="0 0 16 16" fill="none" xmlns="http://www.w3.org/2000/svg">
<path d="M8.57598 4.48533C8.70398 4.35733 8.85865 4.29333 9.03998 4.29333C9.23198 4.29333 9.39198 4.35733 9.51998 4.48533L9.58398 4.54933C9.71198 4.67733 9.77598 4.83733 9.77598 5.02933C9.77598 5.21067 9.71198 5.36533 9.58398 5.49333L7.00798 8.06933L9.58398 10.6453C9.71198 10.7733 9.77598 10.928 9.77598 11.1093C9.77598 11.2907 9.71198 11.4507 9.58398 11.5893L9.51998 11.6373C9.39198 11.776 9.23198 11.8453 9.03998 11.8453C8.85865 11.8453 8.70398 11.776 8.57598 11.6373L5.47198 8.53333C5.34398 8.40533 5.27998 8.25067 5.27998 8.06933C5.27998 7.888 5.34398 7.728 5.47198 7.58933L8.57598 4.48533Z" fill="#2F3136"/>
</svg>
