<svg width="16" height="16" viewBox="0 0 16 16" fill="none" xmlns="http://www.w3.org/2000/svg">
<path fill-rule="evenodd" clip-rule="evenodd" d="M3.99999 6.66685H5.33333V8.66685H6.66666V10.0002H2.66666V8.66685H3.99999V6.66685ZM5.39128 5.33352H6.00126C7.10509 5.33352 8 6.22672 8 7.3302V11.3363C8 13.175 6.50538 14.6669 4.66666 14.6669C2.82608 14.6669 1.33333 13.1754 1.33333 11.3363V7.3302C1.33333 6.22721 2.22834 5.33352 3.33206 5.33352H4.04578C4.31959 2.99237 5.76148 0.975363 8.00738 1.00023C10.4529 1.0273 12.0131 3.50546 12.0131 5.99181C12.0131 7.06694 12.4046 7.98535 14.0062 8.00022C14.3744 8.00363 14.67 8.30487 14.6666 8.67304C14.6632 9.04121 14.362 9.33691 13.9938 9.33349C11.7517 9.31268 10.6798 7.95677 10.6798 5.99181C10.6798 4.14534 9.54994 2.35072 7.99261 2.33348C6.63421 2.31844 5.63867 3.66328 5.39128 5.33352ZM2.66666 7.3302V11.3363C2.66666 12.4388 3.5622 13.3335 4.66666 13.3335C5.76954 13.3335 6.66666 12.438 6.66666 11.3363V7.3302C6.66666 6.96367 6.36928 6.66685 6.00126 6.66685H3.33206C2.96428 6.66685 2.66666 6.96403 2.66666 7.3302Z" fill="#2F3136"/>
</svg>
