<svg width="16" height="16" viewBox="0 0 16 16" fill="none" xmlns="http://www.w3.org/2000/svg">
<path d="M2.04234 5.00634C2.59701 3.90184 3.44792 2.97335 4.49996 2.32465C5.552 1.67596 6.76372 1.33262 7.99968 1.33301C9.79634 1.33301 11.3057 1.99301 12.4597 3.06967L10.5483 4.98167C9.85701 4.32101 8.97834 3.98434 7.99968 3.98434C6.26301 3.98434 4.79301 5.15768 4.26968 6.73301C4.13634 7.13301 4.06034 7.55968 4.06034 7.99968C4.06034 8.43968 4.13634 8.86634 4.26968 9.26634C4.79368 10.8423 6.26301 12.015 7.99968 12.015C8.89634 12.015 9.65968 11.7783 10.257 11.3783C10.6033 11.1503 10.8998 10.8545 11.1285 10.5087C11.3572 10.1629 11.5134 9.77425 11.5877 9.36634H7.99968V6.78768H14.2783C14.357 7.22368 14.3997 7.67834 14.3997 8.15101C14.3997 10.1817 13.673 11.891 12.4117 13.051C11.309 14.0697 9.79967 14.6663 7.99968 14.6663C7.1241 14.6667 6.25703 14.4945 5.44804 14.1596C4.63904 13.8247 3.90398 13.3336 3.28485 12.7145C2.66572 12.0954 2.17467 11.3603 1.83976 10.5513C1.50486 9.74232 1.33266 8.87525 1.33301 7.99968C1.33301 6.92368 1.59034 5.90634 2.04234 5.00634Z" fill="#E94040"/>
</svg>
