<svg width="16" height="16" viewBox="0 0 16 16" fill="none" xmlns="http://www.w3.org/2000/svg">
<path fill-rule="evenodd" clip-rule="evenodd" d="M12 5.33331H13.9994C14.7361 5.33331 15.3333 5.92808 15.3333 6.66333V12.0033C15.3333 12.7378 14.7356 13.3333 13.9994 13.3333H12V14.002C12 14.3691 11.701 14.6666 11.3317 14.6666H4.66832C4.29922 14.6666 4 14.3685 4 14.002V13.3333H2.00061C1.2639 13.3333 0.666672 12.7385 0.666672 12.0033V6.66333C0.666672 5.92878 1.26437 5.33331 2.00061 5.33331H4.33334V1.998C4.33334 1.6309 4.63388 1.33331 5.00029 1.33331H11.333C11.7014 1.33331 12 1.63148 12 1.998V5.33331ZM4 10.6666C3.63051 10.6666 3.33334 10.3707 3.33334 9.99998C3.33334 9.63179 3.6333 9.33331 3.99709 9.33331H12.0029C12.3695 9.33331 12.6667 9.62922 12.6667 9.99998C12.6667 10.3682 12.3667 10.6666 12.0029 10.6666L12 12H14V6.66665H2.00001V12H4V10.6666ZM5.33334 10.6666V13.3333H10.6667V10.6666H5.33334ZM4 8.66665C3.63181 8.66665 3.33334 8.36817 3.33334 7.99998C3.33334 7.63179 3.63181 7.33331 4 7.33331C4.36819 7.33331 4.66667 7.63179 4.66667 7.99998C4.66667 8.36817 4.36819 8.66665 4 8.66665ZM5.66667 2.66665V5.33331H10.6667V2.66665H5.66667Z" fill="#2F3136"/>
</svg>
