<svg width="16" height="16" viewBox="0 0 16 16" fill="none" xmlns="http://www.w3.org/2000/svg">
<path d="M12.672 4.72532C12.5333 4.59733 12.3733 4.53333 12.192 4.53333C12.0107 4.53333 11.856 4.59733 11.728 4.72532L6.94401 9.50933C6.67734 9.77599 6.36267 9.90933 6.00001 9.90933C5.63734 9.90933 5.32267 9.77599 5.056 9.50933L3.616 8.06933C3.47734 7.94133 3.31734 7.87733 3.136 7.87733C2.95467 7.87733 2.8 7.94133 2.672 8.06933C2.544 8.19733 2.47467 8.35199 2.464 8.53333C2.464 8.71466 2.53334 8.87466 2.672 9.01333L5.056 11.3973C5.32267 11.664 5.63734 11.7973 6.00001 11.7973C6.36267 11.7973 6.67734 11.664 6.94401 11.3973L12.672 5.66933C12.8 5.54133 12.864 5.38666 12.864 5.20533C12.864 5.02399 12.8 4.86399 12.672 4.72532Z" fill="#31C375"/>
</svg>
