<svg width="16" height="16" viewBox="0 0 16 16" fill="none" xmlns="http://www.w3.org/2000/svg">
<path fill-rule="evenodd" clip-rule="evenodd" d="M10.6667 5.69699L12.7304 4.19611C12.8793 4.08781 13.1459 4.00002 13.3343 4.00002H14.6647C15.034 4.00002 15.3333 4.29903 15.3333 4.66834V11.3317C15.3333 11.7008 15.0378 12 14.6647 12H13.3343C13.1497 12 12.878 11.9113 12.7304 11.8039L10.6667 10.3031V11.9986C10.6667 12.7358 10.0711 13.3334 9.33356 13.3334H1.99975C1.2635 13.3334 0.666656 12.737 0.666656 11.9986V4.00144C0.666656 3.26428 1.26225 2.66669 1.99975 2.66669H9.33356C10.0698 2.66669 10.6667 3.26303 10.6667 4.00144V5.69699ZM1.99999 4.00002V12H9.33332V4.00002H1.99999ZM3.33332 10C3.33332 9.63183 3.63234 9.33335 4.00194 9.33335H7.33137C7.70064 9.33335 7.99999 9.62926 7.99999 10C7.99999 10.3682 7.70097 10.6667 7.33137 10.6667H4.00194C3.63267 10.6667 3.33332 10.3708 3.33332 10ZM10.6747 8.66027L13.438 10.6666L14 10.6661V5.33238L13.4361 5.33154L10.6749 7.33964L10.6747 8.66027Z" fill="#2F3136"/>
</svg>
