<svg width="16" height="16" viewBox="0 0 16 16" fill="none" xmlns="http://www.w3.org/2000/svg">
<path d="M12.6683 14.6663H11.9969C10.5293 14.6663 9.15018 14.3902 7.85953 13.8379C6.55846 13.2752 5.42393 12.5092 4.45593 11.5401C3.49835 10.571 2.73853 9.44034 2.17647 8.14817C1.6144 6.856 1.33337 5.47525 1.33337 4.00593V3.33379C1.33337 3.06285 1.38542 2.80754 1.4895 2.56787C1.59359 2.32819 1.73931 2.11456 1.92666 1.92699C2.11401 1.729 2.32739 1.58311 2.56679 1.48932C2.81659 1.38511 3.0716 1.33301 3.33181 1.33301H5.51761C5.66332 1.33301 5.79864 1.35385 5.92354 1.39553C6.05885 1.43722 6.18375 1.49974 6.29825 1.58311C6.41274 1.66647 6.51162 1.76547 6.59489 1.8801C6.67816 1.99472 6.74061 2.11456 6.78224 2.23961L7.78146 5.24078C7.8335 5.3971 7.85432 5.55862 7.84391 5.72535C7.84391 5.88166 7.81269 6.03276 7.75024 6.17865C7.68779 6.32454 7.59931 6.46001 7.48482 6.58506C7.38073 6.69969 7.25583 6.78826 7.11011 6.85079L6.20457 7.30409C6.50642 7.82513 6.86551 8.29927 7.28185 8.72652C7.69819 9.14335 8.16658 9.49766 8.687 9.78944L9.13978 8.88283C9.21264 8.74736 9.30631 8.62752 9.42081 8.52332C9.54571 8.40869 9.68102 8.32011 9.82674 8.25759C9.97246 8.19506 10.1234 8.1638 10.2795 8.1638C10.446 8.15338 10.6074 8.17422 10.7635 8.22633L13.7456 9.22672C13.8809 9.2684 14.0006 9.33092 14.1046 9.41429C14.2191 9.49766 14.318 9.59144 14.4013 9.69565C14.4846 9.8207 14.547 9.95096 14.5886 10.0864C14.6407 10.2115 14.6667 10.3417 14.6667 10.4772V12.6656C14.6667 12.9365 14.6147 13.197 14.5106 13.4471C14.4065 13.6868 14.2608 13.9004 14.0734 14.088C13.8861 14.2756 13.6675 14.4215 13.4177 14.5257C13.1783 14.6194 12.9285 14.6663 12.6683 14.6663ZM3.33181 2.66165C3.24854 2.66165 3.16528 2.68249 3.08201 2.72418C2.99874 2.75544 2.92588 2.80233 2.86343 2.86486C2.80098 2.92738 2.75414 3.00033 2.72291 3.08369C2.69169 3.16706 2.67608 3.25042 2.67608 3.33379V4.00593C2.67608 5.28768 2.92068 6.49648 3.40988 7.63234C3.89908 8.7682 4.56522 9.75817 5.40832 10.6023C6.25141 11.4463 7.24022 12.1133 8.37475 12.603C9.49887 13.0928 10.7063 13.3377 11.9969 13.3377H12.6683C12.7515 13.3377 12.8348 13.3221 12.9181 13.2908C13.0013 13.2491 13.0742 13.2022 13.1367 13.1501C13.1991 13.0876 13.2459 13.0147 13.2772 12.9313C13.3084 12.8479 13.324 12.7593 13.324 12.6656V10.4772L10.342 9.47681L9.59255 10.993C9.50928 11.1493 9.37917 11.2588 9.20223 11.3213C9.03569 11.3838 8.87436 11.3734 8.71823 11.29C8.27066 11.092 7.84912 10.8576 7.45359 10.5866C7.05807 10.3053 6.68857 9.99785 6.34508 9.66439C6.0016 9.3205 5.69455 8.95057 5.42393 8.55458C5.1429 8.15859 4.9035 7.73655 4.70574 7.28846C4.63288 7.12173 4.62247 6.955 4.67451 6.78826C4.73697 6.62153 4.85146 6.49648 5.018 6.41312L6.51682 5.66282L5.51761 2.66165H3.33181Z" fill="#2F3136"/>
</svg>
