<svg width="16" height="16" viewBox="0 0 16 16" fill="none" xmlns="http://www.w3.org/2000/svg">
<path fill-rule="evenodd" clip-rule="evenodd" d="M6.33333 7.28769V3.90838L2.66666 4.52618L2.66209 7.28769H6.33333ZM2.65533 11.3788L6.33333 12.0034V8.62103H2.65989L2.65533 11.3788ZM13.3628 2.72399L7.66666 3.68373V7.28769H13.3504L13.3628 2.72399ZM13.3468 8.62103H7.66666V12.2299L13.3344 13.1925L13.3468 8.62103ZM1.33333 11.6222V4.28654C1.33333 3.77288 1.72469 3.32153 2.23069 3.24563L13.5715 1.34451C14.1582 1.2565 14.6667 1.69812 14.6667 2.29062V13.6181C14.6667 14.2098 14.156 14.6519 13.5715 14.5642L2.23069 12.6631C1.72252 12.5869 1.33333 12.138 1.33333 11.6222Z" fill="#2F3136"/>
</svg>
