<svg width="16" height="16" viewBox="0 0 16 16" fill="none" xmlns="http://www.w3.org/2000/svg">
<path d="M5.328 3.39734C5.50933 3.39734 5.664 3.46667 5.792 3.60534C5.93067 3.73334 6 3.888 6 4.06934V5.39734C6 5.57867 5.93067 5.73867 5.792 5.87734C5.664 6.00534 5.50933 6.06934 5.328 6.06934H4C3.81867 6.06934 3.65867 6.00534 3.52 5.87734C3.392 5.73867 3.328 5.57867 3.328 5.39734V4.06934C3.328 3.888 3.392 3.73334 3.52 3.60534C3.65867 3.46667 3.81867 3.39734 4 3.39734H5.328ZM4 2.06934C3.63733 2.06934 3.30133 2.16 2.992 2.34134C2.69333 2.52267 2.45333 2.768 2.272 3.07734C2.09067 3.376 2 3.70667 2 4.06934V5.39734C2 5.76 2.09067 6.096 2.272 6.40534C2.45333 6.704 2.69333 6.944 2.992 7.12534C3.30133 7.30667 3.63733 7.39734 4 7.39734H5.328C5.69067 7.39734 6.02133 7.30667 6.32 7.12534C6.62933 6.944 6.87467 6.704 7.056 6.40534C7.23733 6.096 7.328 5.76 7.328 5.39734V4.06934C7.328 3.70667 7.23733 3.376 7.056 3.07734C6.87467 2.768 6.62933 2.52267 6.32 2.34134C6.02133 2.16 5.69067 2.06934 5.328 2.06934H4ZM5.328 10.0693C5.50933 10.0693 5.664 10.1333 5.792 10.2613C5.93067 10.3893 6 10.544 6 10.7253V12.0693C6 12.2507 5.93067 12.4053 5.792 12.5333C5.664 12.6613 5.50933 12.7253 5.328 12.7253H4C3.81867 12.7253 3.65867 12.6613 3.52 12.5333C3.392 12.4053 3.328 12.2507 3.328 12.0693V10.7253C3.328 10.544 3.392 10.3893 3.52 10.2613C3.65867 10.1333 3.81867 10.0693 4 10.0693H5.328ZM4 8.72534C3.63733 8.72534 3.30133 8.816 2.992 8.99734C2.69333 9.17867 2.45333 9.424 2.272 9.73334C2.09067 10.032 2 10.3627 2 10.7253V12.0693C2 12.432 2.09067 12.768 2.272 13.0773C2.45333 13.376 2.69333 13.616 2.992 13.7973C3.30133 13.9787 3.63733 14.0693 4 14.0693H5.328C5.69067 14.0693 6.02133 13.9787 6.32 13.7973C6.62933 13.616 6.87467 13.376 7.056 13.0773C7.23733 12.768 7.328 12.432 7.328 12.0693V10.7253C7.328 10.3627 7.23733 10.032 7.056 9.73334C6.87467 9.424 6.62933 9.17867 6.32 8.99734C6.02133 8.816 5.69067 8.72534 5.328 8.72534H4ZM12 3.39734C12.1813 3.39734 12.336 3.46667 12.464 3.60534C12.6027 3.73334 12.672 3.888 12.672 4.06934V5.39734C12.672 5.57867 12.6027 5.73867 12.464 5.87734C12.336 6.00534 12.1813 6.06934 12 6.06934H10.672C10.4907 6.06934 10.3307 6.00534 10.192 5.87734C10.064 5.73867 10 5.57867 10 5.39734V4.06934C10 3.888 10.064 3.73334 10.192 3.60534C10.3307 3.46667 10.4907 3.39734 10.672 3.39734H12ZM10.672 2.06934C10.3093 2.06934 9.97333 2.16 9.664 2.34134C9.36533 2.52267 9.12533 2.768 8.944 3.07734C8.76267 3.376 8.672 3.70667 8.672 4.06934V5.39734C8.672 5.76 8.76267 6.096 8.944 6.40534C9.12533 6.704 9.36533 6.944 9.664 7.12534C9.97333 7.30667 10.3093 7.39734 10.672 7.39734H12C12.3627 7.39734 12.6933 7.30667 12.992 7.12534C13.3013 6.944 13.5467 6.704 13.728 6.40534C13.9093 6.096 14 5.76 14 5.39734V4.06934C14 3.70667 13.9093 3.376 13.728 3.07734C13.5467 2.768 13.3013 2.52267 12.992 2.34134C12.6933 2.16 12.3627 2.06934 12 2.06934H10.672ZM12 10.0693C12.1813 10.0693 12.336 10.1333 12.464 10.2613C12.6027 10.3893 12.672 10.544 12.672 10.7253V12.0693C12.672 12.2507 12.6027 12.4053 12.464 12.5333C12.336 12.6613 12.1813 12.7253 12 12.7253H10.672C10.4907 12.7253 10.3307 12.6613 10.192 12.5333C10.064 12.4053 10 12.2507 10 12.0693V10.7253C10 10.544 10.064 10.3893 10.192 10.2613C10.3307 10.1333 10.4907 10.0693 10.672 10.0693H12ZM10.672 8.72534C10.3093 8.72534 9.97333 8.816 9.664 8.99734C9.36533 9.17867 9.12533 9.424 8.944 9.73334C8.76267 10.032 8.672 10.3627 8.672 10.7253V12.0693C8.672 12.432 8.76267 12.768 8.944 13.0773C9.12533 13.376 9.36533 13.616 9.664 13.7973C9.97333 13.9787 10.3093 14.0693 10.672 14.0693H12C12.3627 14.0693 12.6933 13.9787 12.992 13.7973C13.3013 13.616 13.5467 13.376 13.728 13.0773C13.9093 12.768 14 12.432 14 12.0693V10.7253C14 10.3627 13.9093 10.032 13.728 9.73334C13.5467 9.424 13.3013 9.17867 12.992 8.99734C12.6933 8.816 12.3627 8.72534 12 8.72534H10.672Z" fill="#2F3136"/>
</svg>
