<svg width="14" height="14" viewBox="0 0 14 14" fill="none" xmlns="http://www.w3.org/2000/svg">
<path d="M11.6683 13.6663H10.9969C9.52931 13.6663 8.15018 13.3902 6.85953 12.8379C5.55846 12.2752 4.42393 11.5092 3.45593 10.5401C2.49835 9.57099 1.73853 8.44034 1.17647 7.14817C0.614404 5.856 0.333374 4.47525 0.333374 3.00593V2.33379C0.333374 2.06285 0.385417 1.80754 0.489502 1.56787C0.593587 1.32819 0.739307 1.11456 0.926661 0.92699C1.11401 0.728996 1.32739 0.583106 1.56679 0.489319C1.81659 0.385112 2.0716 0.333008 2.33181 0.333008H4.51761C4.66332 0.333008 4.79864 0.353849 4.92354 0.395532C5.05885 0.437215 5.18375 0.49974 5.29825 0.583106C5.41274 0.666471 5.51162 0.765468 5.59489 0.880097C5.67816 0.994725 5.74061 1.11456 5.78224 1.23961L6.78146 4.24078C6.8335 4.3971 6.85432 4.55862 6.84391 4.72535C6.84391 4.88166 6.81269 5.03276 6.75024 5.17865C6.68779 5.32454 6.59931 5.46001 6.48482 5.58506C6.38073 5.69969 6.25583 5.78826 6.11011 5.85079L5.20457 6.30409C5.50642 6.82513 5.86551 7.29927 6.28185 7.72652C6.69819 8.14335 7.16658 8.49766 7.687 8.78944L8.13978 7.88283C8.21264 7.74736 8.30631 7.62752 8.42081 7.52332C8.54571 7.40869 8.68102 7.32011 8.82674 7.25759C8.97246 7.19506 9.12338 7.1638 9.27951 7.1638C9.44605 7.15338 9.60738 7.17422 9.76351 7.22633L12.7456 8.22672C12.8809 8.2684 13.0006 8.33092 13.1046 8.41429C13.2191 8.49766 13.318 8.59144 13.4013 8.69565C13.4846 8.8207 13.547 8.95096 13.5886 9.08643C13.6407 9.21148 13.6667 9.34174 13.6667 9.47721V11.6656C13.6667 11.9365 13.6147 12.197 13.5106 12.4471C13.4065 12.6868 13.2608 12.9004 13.0734 13.088C12.8861 13.2756 12.6675 13.4215 12.4177 13.5257C12.1783 13.6194 11.9285 13.6663 11.6683 13.6663ZM2.33181 1.66165C2.24854 1.66165 2.16528 1.68249 2.08201 1.72418C1.99874 1.75544 1.92588 1.80233 1.86343 1.86486C1.80098 1.92738 1.75414 2.00033 1.72291 2.08369C1.69169 2.16706 1.67608 2.25042 1.67608 2.33379V3.00593C1.67608 4.28768 1.92068 5.49648 2.40988 6.63234C2.89908 7.7682 3.56522 8.75817 4.40832 9.60225C5.25141 10.4463 6.24022 11.1133 7.37475 11.603C8.49887 12.0928 9.70626 12.3377 10.9969 12.3377H11.6683C11.7515 12.3377 11.8348 12.3221 11.9181 12.2908C12.0013 12.2491 12.0742 12.2022 12.1367 12.1501C12.1991 12.0876 12.2459 12.0147 12.2772 11.9313C12.3084 11.8479 12.324 11.7593 12.324 11.6656V9.47721L9.34196 8.47681L8.59255 9.99303C8.50928 10.1493 8.37917 10.2588 8.20223 10.3213C8.03569 10.3838 7.87436 10.3734 7.71823 10.29C7.27066 10.092 6.84912 9.85756 6.45359 9.58662C6.05807 9.30526 5.68857 8.99785 5.34508 8.66439C5.0016 8.3205 4.69455 7.95057 4.42393 7.55458C4.1429 7.15859 3.9035 6.73655 3.70574 6.28846C3.63288 6.12173 3.62247 5.955 3.67451 5.78826C3.73697 5.62153 3.85146 5.49648 4.018 5.41312L5.51682 4.66282L4.51761 1.66165H2.33181Z" fill="#2F3136"/>
</svg>
