<svg width="16" height="16" viewBox="0 0 16 16" fill="none" xmlns="http://www.w3.org/2000/svg">
<path d="M12.6663 14.6663H3.33301C2.80257 14.6663 2.29387 14.4556 1.91879 14.0806C1.54372 13.7055 1.33301 13.1968 1.33301 12.6663V1.99967C1.33301 1.82286 1.40325 1.65329 1.52827 1.52827C1.65329 1.40325 1.82286 1.33301 1.99967 1.33301H11.333C11.5098 1.33301 11.6794 1.40325 11.8044 1.52827C11.9294 1.65329 11.9997 1.82286 11.9997 1.99967V6.66634H14.6663V12.6663C14.6663 13.1968 14.4556 13.7055 14.0806 14.0806C13.7055 14.4556 13.1968 14.6663 12.6663 14.6663ZM11.9997 7.99967V12.6663C11.9997 12.8432 12.0699 13.0127 12.1949 13.1377C12.32 13.2628 12.4895 13.333 12.6663 13.333C12.8432 13.333 13.0127 13.2628 13.1377 13.1377C13.2628 13.0127 13.333 12.8432 13.333 12.6663V7.99967H11.9997ZM3.33301 3.99967V7.99967H7.33301V3.99967H3.33301ZM3.33301 8.66634V9.99967H9.99967V8.66634H3.33301ZM3.33301 10.6663V11.9997H9.99967V10.6663H3.33301ZM4.66634 5.33301H5.99967V6.66634H4.66634V5.33301Z" fill="#A0D911"/>
</svg>
