<svg width="16" height="16" viewBox="0 0 16 16" fill="none" xmlns="http://www.w3.org/2000/svg">
<path d="M12.2719 3.92546C12.2399 3.59479 12.0959 3.31213 11.8399 3.07746C11.5839 2.84279 11.2799 2.72546 10.9279 2.72546H5.07193C4.71993 2.72546 4.41593 2.84279 4.15993 3.07746C3.90393 3.31213 3.75993 3.59479 3.72793 3.92546L2.92793 11.9255C2.9066 12.1921 2.9546 12.4375 3.07193 12.6615C3.18927 12.8855 3.3546 13.0668 3.56793 13.2055C3.79193 13.3335 4.0266 13.3975 4.27193 13.3975H11.7279C12.1333 13.3975 12.4639 13.2588 12.7199 12.9815C12.9866 12.6935 13.1039 12.3415 13.0719 11.9255L12.2719 3.92546ZM14.3999 11.7975C14.4426 12.3201 14.3519 12.8108 14.1279 13.2695C13.9039 13.7175 13.5786 14.0748 13.1519 14.3415C12.7253 14.6081 12.2506 14.7415 11.7279 14.7415H4.27193C3.7706 14.7415 3.3066 14.6081 2.87993 14.3415C2.45327 14.0748 2.1226 13.7175 1.88793 13.2695C1.65327 12.8108 1.55727 12.3201 1.59993 11.7975L2.39993 3.79746C2.4426 3.36013 2.5866 2.96013 2.83193 2.59746C3.07727 2.22413 3.39727 1.93079 3.79193 1.71746C4.1866 1.50413 4.61327 1.39746 5.07193 1.39746H10.9279C11.3866 1.39746 11.8133 1.50413 12.2079 1.71746C12.6026 1.93079 12.9226 2.22413 13.1679 2.59746C13.4133 2.96013 13.5573 3.36013 13.5999 3.79746L14.3999 11.7975ZM7.99993 8.06946C7.38127 8.06946 6.81593 7.92013 6.30393 7.62146C5.8026 7.32279 5.4026 6.9228 5.10393 6.42146C4.81593 5.90946 4.67193 5.34413 4.67193 4.72546C4.67193 4.52279 4.7306 4.36279 4.84793 4.24546C4.96527 4.12813 5.12527 4.06946 5.32793 4.06946C5.5306 4.06946 5.6906 4.12813 5.80793 4.24546C5.93593 4.36279 5.99993 4.52279 5.99993 4.72546C5.99993 5.09879 6.08527 5.44013 6.25593 5.74946C6.43727 6.04813 6.67727 6.28813 6.97593 6.46946C7.28527 6.64013 7.6266 6.72546 7.99993 6.72546C8.37327 6.72546 8.70927 6.64013 9.00793 6.46946C9.31727 6.28813 9.55727 6.04813 9.72793 5.74946C9.90927 5.44013 9.99993 5.09879 9.99993 4.72546C9.99993 4.52279 10.0586 4.36279 10.1759 4.24546C10.3039 4.12813 10.4693 4.06946 10.6719 4.06946C10.8746 4.06946 11.0346 4.12813 11.1519 4.24546C11.2693 4.36279 11.3279 4.52279 11.3279 4.72546C11.3279 5.34413 11.1786 5.90946 10.8799 6.42146C10.5919 6.9228 10.1919 7.32279 9.67993 7.62146C9.1786 7.92013 8.6186 8.06946 7.99993 8.06946Z" fill="#2F3136"/>
</svg>
