<svg width="16" height="16" viewBox="0 0 16 16" fill="none" xmlns="http://www.w3.org/2000/svg">
<path d="M12.672 2.06934H3.328C2.96533 2.06934 2.65067 2.19734 2.384 2.45334C2.128 2.70934 2 3.024 2 3.39734V12.7253C2 13.0987 2.128 13.4133 2.384 13.6693C2.64 13.936 2.95467 14.0693 3.328 14.0693H8.416V9.42934H6.848V7.60534H8.416V6.27734C8.416 5.52 8.624 4.93334 9.04 4.51734C9.46667 4.09067 10.0373 3.87734 10.752 3.87734C11.264 3.87734 11.728 3.89867 12.144 3.94134V5.57334H11.184C10.832 5.57334 10.5867 5.65334 10.448 5.81334C10.3413 5.94134 10.288 6.15467 10.288 6.45334V7.60534H12.08L11.856 9.42934H10.272V14.0693H12.672C13.0453 14.0693 13.36 13.936 13.616 13.6693C13.872 13.4133 14 13.0987 14 12.7253V3.39734C14 3.024 13.872 2.70934 13.616 2.45334C13.36 2.19734 13.0453 2.06934 12.672 2.06934Z" fill="#1890FF"/>
</svg>
