<svg width="16" height="16" viewBox="0 0 16 16" fill="none" xmlns="http://www.w3.org/2000/svg">
<path d="M12.672 4.06934C12.8534 4.06934 13.008 4.13334 13.136 4.26134C13.264 4.38934 13.328 4.54401 13.328 4.72534V11.3973C13.328 11.5787 13.264 11.7387 13.136 11.8773C13.008 12.0053 12.8534 12.0693 12.672 12.0693H3.32803C3.1467 12.0693 2.99203 12.0053 2.86403 11.8773C2.73603 11.7387 2.67203 11.5787 2.67203 11.3973V4.72534C2.67203 4.54401 2.73603 4.38934 2.86403 4.26134C2.99203 4.13334 3.1467 4.06934 3.32803 4.06934H12.672ZM3.32803 2.72534C2.96537 2.72534 2.62937 2.81601 2.32003 2.99734C2.02137 3.17868 1.78137 3.42401 1.60003 3.73334C1.4187 4.03201 1.32803 4.36268 1.32803 4.72534V11.3973C1.32803 11.76 1.4187 12.096 1.60003 12.4053C1.78137 12.704 2.02137 12.944 2.32003 13.1253C2.62937 13.3067 2.96537 13.3973 3.32803 13.3973H12.672C13.0347 13.3973 13.3654 13.3067 13.664 13.1253C13.9734 12.944 14.2187 12.704 14.4 12.4053C14.5814 12.096 14.672 11.76 14.672 11.3973V4.72534C14.672 4.36268 14.5814 4.03201 14.4 3.73334C14.2187 3.42401 13.9734 3.17868 13.664 2.99734C13.3654 2.81601 13.0347 2.72534 12.672 2.72534H3.32803ZM14.352 3.66934C14.32 3.71201 14.256 3.78134 14.16 3.87734C13.6374 4.42134 12.9974 4.95468 12.24 5.47734C11.408 6.05334 10.6027 6.51734 9.82403 6.86934C9.04537 7.22134 8.43737 7.39734 8.00003 7.39734C7.5307 7.39734 6.91203 7.23201 6.14403 6.90134C5.39737 6.60268 4.59737 6.16534 3.74403 5.58934C2.91203 5.02401 2.2827 4.50134 1.85603 4.02134C1.76003 3.93601 1.6747 3.84001 1.60003 3.73334C1.4187 4.04268 1.32803 4.37334 1.32803 4.72534V5.38134C1.92537 5.93601 2.62937 6.46934 3.44003 6.98134C4.26137 7.49334 5.0667 7.90401 5.85603 8.21334C6.6987 8.55468 7.40803 8.72534 7.98403 8.72534C8.5707 8.72534 9.2907 8.54401 10.144 8.18134C10.9227 7.85068 11.728 7.40801 12.56 6.85334C13.36 6.33068 14.064 5.79201 14.672 5.23734V4.72534C14.672 4.33068 14.5654 3.97868 14.352 3.66934Z" fill="white"/>
</svg>
