<svg width="16" height="16" viewBox="0 0 16 16" fill="none" xmlns="http://www.w3.org/2000/svg">
<path fill-rule="evenodd" clip-rule="evenodd" d="M11.3333 12.6666C12.4379 12.6666 13.3333 11.7712 13.3333 10.6666C13.3333 9.56208 12.4379 8.66665 11.3333 8.66665V12.6666ZM10.3333 14.6666C9.78104 14.6666 9.33333 14.2194 9.33333 13.6696V7.66368C9.33333 7.11303 9.78217 6.66665 10.3333 6.66665C10.7693 6.66665 11.1965 6.94541 11.3333 7.33331C12.0837 7.33331 12.7762 7.58128 13.3333 7.99974C13.3333 7.02839 13.0736 6.11771 12.6198 5.33331L3.38017 5.33331C2.92642 6.11771 2.66671 7.02839 2.66666 7.99974C3.22377 7.58128 3.91626 7.33331 4.66666 7.33331C4.80363 6.94504 5.2314 6.66665 5.66666 6.66665C6.21895 6.66665 6.66666 7.1139 6.66666 7.66368V13.6696C6.66666 14.2203 6.21782 14.6666 5.66666 14.6666C5.23064 14.6666 4.80348 14.3879 4.66666 14C2.82571 14 1.33333 12.5076 1.33333 10.6666V7.99998C1.33333 4.31808 4.3181 1.33331 8 1.33331C11.6819 1.33331 14.6667 4.31808 14.6667 7.99998V10.6666C14.6667 12.5076 13.1743 14 11.3333 14C11.1964 14.3883 10.7686 14.6666 10.3333 14.6666ZM11.5278 3.99998C10.5876 3.17016 9.35259 2.66665 8 2.66665C6.6474 2.66665 5.41241 3.17016 4.47223 3.99998H11.5278ZM2.66666 10.6666C2.66666 11.7712 3.56209 12.6666 4.66666 12.6666V8.66665C3.56209 8.66665 2.66666 9.56208 2.66666 10.6666Z" fill="#2F3136"/>
</svg>
