<svg width="16" height="16" viewBox="0 0 16 16" fill="none" xmlns="http://www.w3.org/2000/svg">
<path d="M13.9457 6.50875C13.8786 6.28822 13.7586 6.10603 13.5858 5.96221C13.4227 5.80879 13.2355 5.7177 13.0244 5.68893L10.2602 5.27183L9.02215 2.66854C8.87818 2.37129 8.65744 2.16993 8.35991 2.06446C8.06238 1.95898 7.76966 1.98295 7.48173 2.13637C7.27058 2.25143 7.10262 2.42882 6.97785 2.66854L5.73976 5.27183L2.97564 5.68893C2.76449 5.72729 2.57254 5.82317 2.39978 5.97659C2.23662 6.12042 2.12145 6.3026 2.05426 6.52314C1.98708 6.73408 1.98228 6.94983 2.03987 7.17036C2.09745 7.3909 2.20303 7.57788 2.35659 7.73129L4.3433 9.74489L3.86822 12.6071C3.82023 12.9331 3.88741 13.2303 4.06977 13.4988C4.25212 13.7673 4.49686 13.9255 4.80399 13.9734C5.05353 14.0214 5.29347 13.983 5.52381 13.8584L8 12.5064L10.4762 13.8584C10.7545 14.0118 11.0425 14.0406 11.34 13.9447C11.6375 13.8488 11.863 13.6522 12.0166 13.355C12.1222 13.1344 12.1606 12.8804 12.1318 12.5927L11.6567 9.74489L13.6434 7.71691C13.797 7.56349 13.9025 7.38131 13.9601 7.17036C14.0177 6.94983 14.0129 6.72929 13.9457 6.50875Z" fill="#2F3136"/>
</svg>
