<svg width="16" height="16" viewBox="0 0 16 16" fill="none" xmlns="http://www.w3.org/2000/svg">
<path fill-rule="evenodd" clip-rule="evenodd" d="M2.79301 1.86259C3.05301 1.60189 3.47512 1.60132 3.73582 1.86131C3.99652 2.12131 3.99709 2.54342 3.73709 2.80412C3.0556 3.48745 2.66668 4.40876 2.66668 5.39331C2.66668 6.38642 3.06245 7.31508 3.75448 7.99983C4.0162 8.25879 4.01844 8.6809 3.75947 8.94262C3.5005 9.20435 3.0784 9.20658 2.81667 8.94761C1.87405 8.01492 1.33334 6.74616 1.33334 5.39331C1.33334 4.05214 1.86472 2.79339 2.79301 1.86259ZM13.1863 8.94471C12.9248 9.20389 12.5027 9.202 12.2435 8.94049C11.9843 8.67898 11.9862 8.25688 12.2477 7.99769C12.9384 7.31312 13.3333 6.38537 13.3333 5.39331C13.3333 4.41355 12.9482 3.49635 12.2726 2.81386C12.0136 2.55219 12.0157 2.13009 12.2774 1.87106C12.539 1.61203 12.9612 1.61417 13.2202 1.87584C14.1405 2.80552 14.6667 4.05867 14.6667 5.39331C14.6667 6.74472 14.1271 8.01224 13.1863 8.94471ZM4.20965 3.27437C4.46971 3.01373 4.89182 3.01326 5.15246 3.27332C5.4131 3.53338 5.41357 3.95549 5.15351 4.21613C4.84334 4.52699 4.66668 4.94533 4.66668 5.39331C4.66668 5.84881 4.84938 6.27362 5.16886 6.58569C5.43224 6.84297 5.43719 7.26505 5.17992 7.52843C4.92264 7.79182 4.50056 7.79677 4.23717 7.53949C3.66342 6.97904 3.33334 6.21158 3.33334 5.39331C3.33334 4.58859 3.65254 3.83272 4.20965 3.27437ZM6.66668 5.39331C6.66668 4.65693 7.26363 4.05998 8.00001 4.05998C8.73639 4.05998 9.33334 4.65693 9.33334 5.39331C9.33334 5.88684 9.06521 6.31773 8.66668 6.54827V11.7285C8.66668 12.0956 8.37077 12.3933 8.00001 12.3933C7.63182 12.3933 7.33334 12.0925 7.33334 11.7285V6.54827C6.93481 6.31773 6.66668 5.88684 6.66668 5.39331ZM11.7891 7.51355C11.5289 7.77403 11.1068 7.77425 10.8463 7.51403C10.5858 7.25381 10.5856 6.8317 10.8458 6.57122C11.1564 6.2603 11.3333 5.84165 11.3333 5.39331C11.3333 4.94804 11.1588 4.53204 10.852 4.22166C10.5932 3.95982 10.5956 3.53772 10.8574 3.27887C11.1193 3.02002 11.5414 3.02245 11.8002 3.28429C12.3514 3.8418 12.6667 4.59349 12.6667 5.39331C12.6667 6.19867 12.347 6.95509 11.7891 7.51355ZM8.00001 14.3933C7.63182 14.3933 7.33334 14.0948 7.33334 13.7266C7.33334 13.3585 7.63182 13.06 8.00001 13.06C8.3682 13.06 8.66668 13.3585 8.66668 13.7266C8.66668 14.0948 8.3682 14.3933 8.00001 14.3933ZM10.6667 14.3933C10.2985 14.3933 10 14.0948 10 13.7266C10 13.3585 10.2985 13.06 10.6667 13.06C11.0349 13.06 11.3333 13.3585 11.3333 13.7266C11.3333 14.0948 11.0349 14.3933 10.6667 14.3933ZM5.33334 14.3933C4.96515 14.3933 4.66668 14.0948 4.66668 13.7266C4.66668 13.3585 4.96515 13.06 5.33334 13.06C5.70153 13.06 6.00001 13.3585 6.00001 13.7266C6.00001 14.0948 5.70153 14.3933 5.33334 14.3933Z" fill="#2F3136"/>
</svg>
