<svg width="16" height="16" viewBox="0 0 16 16" fill="none" xmlns="http://www.w3.org/2000/svg">
<path d="M1.99999 9.99998V10.6666H14V9.99998H1.99999ZM1.99999 8.66665H14V2.66665H1.99999V8.66665ZM6.66666 12.7148C7.11867 12.6834 7.56435 12.6666 7.99999 12.6666C8.43563 12.6666 8.88131 12.6834 9.33332 12.7148V12H6.66666V12.7148ZM5.33332 12.8462V12H1.66958C1.1174 12 0.666656 11.5567 0.666656 11.0011V2.33216C0.666656 1.77865 1.11672 1.33331 1.66958 1.33331H14.3304C14.8826 1.33331 15.3333 1.77662 15.3333 2.33216V11.0011C15.3333 11.5546 14.8833 12 14.3304 12H10.6667V12.8462C11.0354 12.8927 11.4059 12.9473 11.7763 13.0091C12.2243 13.0837 12.6405 13.1638 13.0147 13.2439C13.1463 13.2721 13.2635 13.2984 13.365 13.3221C13.4271 13.3366 13.4708 13.3472 13.495 13.3532C13.8522 13.4425 14.0694 13.8045 13.9801 14.1617C13.8908 14.5189 13.5288 14.736 13.1716 14.6467C13.1541 14.6424 13.1172 14.6334 13.062 14.6206C12.9682 14.5987 12.8589 14.5742 12.7353 14.5477C12.3803 14.4716 11.984 14.3954 11.5571 14.3242C10.3405 14.1215 9.12547 14 7.99999 14C6.87451 14 5.65948 14.1215 4.44292 14.3242C4.01593 14.3954 3.61965 14.4716 3.26468 14.5477C3.14109 14.5742 3.03173 14.5987 2.93793 14.6206C2.88281 14.6334 2.84584 14.6424 2.82835 14.6467C2.47115 14.736 2.10919 14.5189 2.01989 14.1617C1.9306 13.8045 2.14777 13.4425 2.50497 13.3532C2.52914 13.3472 2.5729 13.3366 2.63496 13.3221C2.73647 13.2984 2.85368 13.2721 2.9853 13.2439C3.3595 13.1638 3.77571 13.0837 4.22372 13.0091C4.59409 12.9473 4.96459 12.8927 5.33332 12.8462Z" fill="#2F3136"/>
</svg>
