<svg width="16" height="16" viewBox="0 0 16 16" fill="none" xmlns="http://www.w3.org/2000/svg">
<path fill-rule="evenodd" clip-rule="evenodd" d="M4.33334 12.0006C4.33334 12.3685 4.03392 12.6666 3.66737 12.6666H2.99931C2.6315 12.6666 2.33334 12.3711 2.33334 12.0006V11.3333C1.96509 11.3333 1.66667 11.0343 1.66667 10.6647V7.33527C1.66667 6.966 1.96248 6.66665 2.33321 6.66665H2.66667V4.33423C2.66667 2.67772 4.01159 1.33331 5.66667 1.33331C7.32446 1.33331 8.66667 2.67491 8.66667 4.33423V11.6657C8.66667 12.5885 9.4118 13.3333 10.3333 13.3333C11.2522 13.3333 12 12.5857 12 11.6657V8.66665H11.3362C10.9664 8.66665 10.6667 8.366 10.6667 7.99714V5.33616C10.6667 4.96735 10.9658 4.66819 11.3333 4.66665V3.99935C11.3333 3.63151 11.6289 3.33331 11.9994 3.33331H13.334C13.7018 3.33331 14 3.62888 14 3.99935V4.66665C14.3685 4.66819 14.6667 4.96824 14.6667 5.33616V7.99714C14.6667 8.3669 14.366 8.66665 13.9972 8.66665H13.3333V11.6657C13.3333 13.3222 11.9884 14.6666 10.3333 14.6666C8.67555 14.6666 7.33334 13.3251 7.33334 11.6657V4.33423C7.33334 3.41142 6.58822 2.66665 5.66667 2.66665C4.74786 2.66665 4.00001 3.41421 4.00001 4.33423V6.66665H4.33347C4.70159 6.66665 5.00001 6.96567 5.00001 7.33527V10.6647C5.00001 11.034 4.70419 11.3333 4.33347 11.3333L4.33334 12.0006ZM12 5.99998V7.33331H13.3333V5.99998H12ZM3.00001 7.99998V9.99998H3.66667V7.99998H3.00001Z" fill="#2F3136"/>
</svg>
