<svg width="20" height="20" viewBox="0 0 20 20" fill="none" xmlns="http://www.w3.org/2000/svg">
<g clip-path="url(#clip0)">
<path d="M16.2317 10.1406L14.3333 9.44918C14.2747 9.42578 14.2044 9.41406 14.1341 9.41406H1.97003C1.64187 9.41406 1.38409 9.67184 1.38409 10V18.2422C1.38409 19.2148 2.16921 20 3.14191 20H14.8607C15.8334 20 16.6185 19.2148 16.6185 18.2422V10.6914C16.6185 10.4453 16.4661 10.2227 16.2317 10.1406Z" fill="#FC1A40"/>
<path d="M16.6185 10.6914V18.2422C16.6185 19.2148 15.8334 20 14.8607 20H9.00128V9.41406H14.1341C14.2044 9.41406 14.2747 9.42578 14.3333 9.44918L16.2317 10.1406C16.4661 10.2227 16.6185 10.4453 16.6185 10.6914Z" fill="#C60034"/>
<path d="M16.4076 3.81984C16.2084 3.01125 15.6107 2.37847 14.8021 2.12062C14.0053 1.87449 13.1498 2.05031 12.5287 2.61277L11.1693 3.80813L10.8998 2.01519C10.7709 1.19488 10.2435 0.503431 9.45842 0.175345C9.30607 0.116712 9.15373 0.0698367 9.00139 0.0463992C8.35685 -0.0825073 7.68888 0.0581179 7.14978 0.456595C6.43494 0.972221 6.07169 1.83941 6.18884 2.70656C6.31779 3.57375 6.90373 4.31203 7.73572 4.605L9.00139 5.06203L10.56 5.63625C10.5717 5.63625 10.5717 5.63625 10.5717 5.63625L13.2787 6.63231C13.5482 6.7261 13.8295 6.77301 14.099 6.77301C14.6733 6.77301 15.2358 6.562 15.6811 6.1636C16.3373 5.57766 16.6185 4.67528 16.4076 3.81984Z" fill="#FE9923"/>
<path d="M15.681 6.16314C15.2357 6.56154 14.6732 6.77255 14.0989 6.77255C13.8294 6.77255 13.5482 6.72564 13.2786 6.63185L10.5716 5.63579C10.5716 5.63579 10.5716 5.63579 10.5599 5.63579L9.00128 5.06157V0.0458984C9.15363 0.069375 9.30597 0.116211 9.45831 0.174844C10.2434 0.502931 10.7708 1.19438 10.8997 2.01469L11.1692 3.80763L12.5286 2.61227C13.1496 2.04981 14.0052 1.87399 14.802 2.12012C15.6106 2.37797 16.2083 3.01075 16.4075 3.81934C16.6185 4.67481 16.3372 5.5772 15.681 6.16314Z" fill="#FE8821"/>
<path d="M18.6224 9.14475L17.8255 11.3479C17.7317 11.5823 17.5091 11.7229 17.2747 11.7229C17.2044 11.7229 17.1341 11.7112 17.0755 11.6878L11.0169 9.48464L10.4661 7.66823L9.00128 7.99632L7.71226 8.28928L1.65361 6.08616C1.34892 5.96901 1.19662 5.62913 1.30205 5.33616L2.11064 3.13311C2.26299 2.6878 2.59115 2.33616 3.01303 2.13698C3.4349 1.9378 3.91533 1.91432 4.36065 2.07838L9.00132 3.76588L9.31777 3.88303C9.31777 3.88303 10.5834 6.17995 10.6185 6.17995C10.642 6.17995 11.1459 5.8987 11.6381 5.62913C12.1302 5.3596 12.6224 5.07838 12.6224 5.07838L17.5677 6.88303C18.013 7.0471 18.3645 7.37526 18.5637 7.79714C18.763 8.21897 18.7864 8.69948 18.6224 9.14475Z" fill="#FF3E75"/>
<path d="M18.6224 9.14449L17.8255 11.3476C17.7317 11.582 17.5091 11.7226 17.2747 11.7226C17.2044 11.7226 17.1341 11.7109 17.0755 11.6875L11.0169 9.48438L10.4661 7.66797L9.00128 7.99606V3.76562L9.31773 3.88277C9.31773 3.88277 10.5833 6.17969 10.6185 6.17969C10.642 6.17969 11.1459 5.89844 11.638 5.62887C12.1302 5.35934 12.6224 5.07812 12.6224 5.07812L17.5677 6.88277C18.013 7.04684 18.3646 7.375 18.5637 7.79688C18.763 8.21871 18.7864 8.69922 18.6224 9.14449Z" fill="#FC1A40"/>
<path d="M7.24347 9.41406V20H10.7591V9.41406H7.24347Z" fill="#FCBF29"/>
<path d="M9.31769 3.88281L9.00125 4.75L7.71222 8.28911L9.00125 8.7579L10.4661 9.28524L11.0168 9.48442L12.6224 5.07817L9.31769 3.88281Z" fill="#FCBF29"/>
<path d="M10.7593 9.41406H9.00146V20H10.7593V9.41406Z" fill="#FE9923"/>
<path d="M12.6224 5.07817L11.0169 9.48442L10.4661 9.2852L9.00128 8.75786V4.75L9.31769 3.88281L12.6224 5.07817Z" fill="#FE9923"/>
</g>
<defs>
<clipPath id="clip0">
<rect width="20" height="20" fill="white"/>
</clipPath>
</defs>
</svg>
