<svg width="24" height="24" viewBox="0 0 24 24" fill="none" xmlns="http://www.w3.org/2000/svg">
<path d="M19.008 3.104H4.992C4.448 3.104 3.976 3.296 3.576 3.68001C3.192 4.064 3 4.536 3 5.096V19.088C3 19.648 3.192 20.12 3.576 20.504C3.96 20.904 4.432 21.104 4.992 21.104H12.624V14.144H10.272V11.408H12.624V9.416C12.624 8.28 12.936 7.4 13.56 6.77601C14.2 6.136 15.056 5.816 16.128 5.816C16.896 5.816 17.592 5.848 18.216 5.912V8.36H16.776C16.248 8.36 15.88 8.48 15.672 8.72C15.512 8.912 15.432 9.23201 15.432 9.68001V11.408H18.12L17.784 14.144H15.408V21.104H19.008C19.568 21.104 20.04 20.904 20.424 20.504C20.808 20.12 21 19.648 21 19.088V5.096C21 4.536 20.808 4.064 20.424 3.68001C20.04 3.296 19.568 3.104 19.008 3.104Z" fill="#1890FF"/>
</svg>
