<svg width="24" height="24" viewBox="0 0 24 24" fill="none" xmlns="http://www.w3.org/2000/svg">
<path d="M10.008 2.09601C8.552 2.09601 7.208 2.45601 5.976 3.17601C4.76 3.89601 3.8 4.85601 3.096 6.05601C2.36 7.30401 1.992 8.65601 1.992 10.112C1.992 11.552 2.36 12.896 3.096 14.144C3.8 15.344 4.76 16.304 5.976 17.024C7.208 17.744 8.552 18.104 10.008 18.104C10.92 18.104 11.792 17.96 12.624 17.672C13.456 17.384 14.216 16.968 14.904 16.424L16.896 18.392C16.88 18.6 16.904 18.808 16.968 19.016C17.048 19.208 17.168 19.384 17.328 19.544L19.44 21.656C19.728 21.96 20.08 22.112 20.496 22.112C20.912 22.112 21.264 21.96 21.552 21.656C21.856 21.368 22.008 21.016 22.008 20.6C22.008 20.184 21.856 19.832 21.552 19.544L19.44 17.408C19.12 17.088 18.744 16.944 18.312 16.976L16.32 15.008C16.864 14.304 17.28 13.536 17.568 12.704C17.856 11.872 18 11 18 10.088C18 8.63201 17.64 7.28801 16.92 6.05601C16.2 4.85601 15.24 3.89601 14.04 3.17601C12.808 2.45601 11.464 2.09601 10.008 2.09601ZM4.008 10.088C4.008 9.00001 4.272 8.00001 4.8 7.08801C5.344 6.16001 6.072 5.43201 6.984 4.90401C7.912 4.36001 8.92 4.08801 10.008 4.08801C11.096 4.08801 12.096 4.36001 13.008 4.90401C13.936 5.43201 14.664 6.16001 15.192 7.08801C15.736 8.00001 16.008 9.00001 16.008 10.088C16.008 11.176 15.736 12.184 15.192 13.112C14.664 14.024 13.936 14.752 13.008 15.296C12.096 15.824 11.096 16.088 10.008 16.088C8.92 16.088 7.912 15.824 6.984 15.296C6.072 14.752 5.344 14.024 4.8 13.112C4.272 12.184 4.008 11.176 4.008 10.088Z" fill="#2F3136"/>
</svg>
