<svg width="24" height="24" viewBox="0 0 24 24" fill="none" xmlns="http://www.w3.org/2000/svg">
<path d="M9.29581 15.8641C9.10381 16.0561 9.00781 16.2961 9.00781 16.5841C9.00781 16.8561 9.10381 17.0881 9.29581 17.2801L9.39181 17.3521C9.58381 17.5601 9.82381 17.6641 10.1118 17.6641C10.3838 17.6641 10.6158 17.5601 10.8078 17.3521L15.4638 12.6961C15.6558 12.5041 15.7518 12.2721 15.7518 12.0001C15.7518 11.7281 15.6558 11.4881 15.4638 11.2801L10.8078 6.62406C10.6158 6.43206 10.3838 6.33606 10.1118 6.33606C9.82381 6.33606 9.58381 6.43206 9.39181 6.62406L9.29581 6.72006C9.10381 6.91206 9.00781 7.15206 9.00781 7.44006C9.00781 7.71206 9.10381 7.94406 9.29581 8.13606L13.1598 12.0001L9.29581 15.8641Z" fill="#2F3136"/>
</svg>
