<svg width="24" height="24" viewBox="0 0 24 24" fill="none" xmlns="http://www.w3.org/2000/svg">
<path d="M1.008 5.552V20.288C1.008 20.576 1.128 20.8 1.368 20.96C1.624 21.136 1.888 21.168 2.16 21.056C3.856 20.432 5.304 20.12 6.504 20.12C7.272 20.12 8.16 20.224 9.168 20.432C9.872 20.592 10.576 20.784 11.28 21.008C11.76 21.152 12.24 21.152 12.72 21.008C13.424 20.784 14.128 20.592 14.832 20.432C15.84 20.224 16.728 20.12 17.496 20.12C18.696 20.12 20.144 20.432 21.84 21.056C22.112 21.168 22.368 21.136 22.608 20.96C22.864 20.8 22.992 20.576 22.992 20.288V5.552C22.992 5.12 22.864 4.736 22.608 4.4C22.352 4.048 22.024 3.816 21.624 3.704C20.088 3.304 18.712 3.104 17.496 3.104C16.424 3.104 15.168 3.344 13.728 3.824C13.184 4 12.608 4.088 12 4.088C11.408 4.088 10.832 4 10.272 3.824C8.832 3.344 7.576 3.104 6.504 3.104C5.288 3.104 3.912 3.304 2.376 3.704C1.976 3.816 1.648 4.048 1.392 4.4C1.136 4.736 1.008 5.12 1.008 5.552ZM17.496 5.096C18.392 5.096 19.56 5.264 21 5.6V18.68C19.784 18.312 18.616 18.128 17.496 18.128C16.248 18.128 14.752 18.36 13.008 18.824V6.032C13.52 5.952 13.968 5.848 14.352 5.72C15.6 5.304 16.648 5.096 17.496 5.096ZM10.992 6.032V18.824C9.248 18.36 7.752 18.128 6.504 18.128C5.416 18.128 4.248 18.312 3 18.68V5.6C4.44 5.264 5.608 5.096 6.504 5.096C7.352 5.096 8.4 5.304 9.648 5.72C10.032 5.848 10.48 5.952 10.992 6.032Z" fill="white"/>
</svg>
