<svg width="24" height="24" viewBox="0 0 24 24" fill="none" xmlns="http://www.w3.org/2000/svg">
<path d="M7.92615 5.34C7.92615 5.32667 7.92615 5.32 7.92615 5.32V5.28C8.04596 4.65333 8.2989 4.09333 8.68496 3.6C9.07102 3.10667 9.55026 2.72 10.1227 2.44C10.6951 2.14667 11.3208 2 11.9998 2C12.5988 2 13.1646 2.11333 13.6971 2.34C14.3228 2.60667 14.842 3 15.2546 3.52C15.6806 4.02667 15.9536 4.61333 16.0734 5.28V5.32C16.0867 5.32 16.0933 5.32667 16.0933 5.34C16.8788 5.46 17.5377 5.8 18.0702 6.36C18.6027 6.92 18.9089 7.57333 18.9888 8.32L19.9872 18.32C20.0405 18.9867 19.9273 19.6 19.6478 20.16C19.3815 20.72 18.9821 21.1667 18.4496 21.5C17.9171 21.8333 17.3247 22 16.6724 22H7.34706C6.72137 22 6.14228 21.8333 5.60978 21.5C5.07728 21.1667 4.6646 20.7133 4.37172 20.14C4.07885 19.58 3.95904 18.9733 4.01229 18.32L5.01072 8.32C5.10391 7.57333 5.41675 6.92 5.94925 6.36C6.49506 5.8 7.15402 5.46 7.92615 5.34ZM8.0859 7C7.69984 7.08 7.37368 7.26 7.10743 7.54C6.8545 7.82 6.70806 8.14 6.66812 8.5L5.66969 18.48C5.64306 18.8133 5.70297 19.12 5.84941 19.4C6.00915 19.6933 6.22215 19.92 6.4884 20.08C6.75465 20.2533 7.04087 20.34 7.34706 20.34H16.6724C17.165 20.34 17.571 20.16 17.8905 19.8C18.2233 19.44 18.3698 19 18.3298 18.48L17.3314 8.5C17.2915 8.14 17.145 7.82 16.8921 7.54C16.6391 7.26 16.3196 7.08 15.9336 7H8.0859ZM11.9998 3.66C11.4673 3.66 10.988 3.81333 10.562 4.12C10.136 4.41333 9.84314 4.81333 9.68339 5.32H14.3361C14.2163 4.97333 14.0299 4.67333 13.777 4.42C13.5373 4.15333 13.2511 3.95333 12.9183 3.82C12.6254 3.71333 12.3193 3.66 11.9998 3.66ZM7.84627 10.74C7.84627 10.4067 7.96608 10.12 8.20571 9.88C8.45864 9.62667 8.75152 9.5 9.08433 9.5C9.41714 9.5 9.71001 9.62667 9.96295 9.88C10.2159 10.12 10.3424 10.4067 10.3424 10.74C10.3424 11.0733 10.2159 11.3667 9.96295 11.62C9.72333 11.8733 9.43045 12 9.08433 12C8.75152 12 8.45864 11.88 8.20571 11.64C7.96608 11.3867 7.84627 11.0867 7.84627 10.74ZM9.4238 17.58C9.27736 17.58 9.17086 17.5733 9.1043 17.56C8.9978 17.5333 8.91127 17.4867 8.84471 17.42C8.67164 17.2867 8.5718 17.1 8.54518 16.86C8.53186 16.6067 8.60508 16.4 8.76483 16.24L13.9167 10C14.0898 9.82667 14.2828 9.73333 14.4958 9.72C14.7221 9.69333 14.9152 9.76 15.0749 9.92C15.248 10.04 15.3478 10.22 15.3745 10.46C15.4011 10.7 15.3345 10.9067 15.1748 11.08L10.0029 17.32C9.92301 17.4 9.82983 17.4667 9.72333 17.52C9.61683 17.56 9.51698 17.58 9.4238 17.58ZM14.9152 17.82C14.5824 17.82 14.2895 17.7 14.0366 17.46C13.7969 17.2067 13.6771 16.9133 13.6771 16.58C13.6771 16.2467 13.7969 15.9533 14.0366 15.7C14.2895 15.4467 14.5824 15.32 14.9152 15.32C15.248 15.32 15.5409 15.4467 15.7938 15.7C16.0467 15.9533 16.1732 16.2467 16.1732 16.58C16.1732 16.9133 16.0467 17.2067 15.7938 17.46C15.5409 17.7 15.248 17.82 14.9152 17.82Z" fill="white"/>
</svg>
