<svg width="24" height="24" viewBox="0 0 24 24" fill="none" xmlns="http://www.w3.org/2000/svg">
<path d="M13.0972 13.5674C14.9162 14.2419 16.9794 13.8106 18.3753 12.4148C19.1429 11.6472 19.582 10.714 19.6918 9.69207C19.2483 10.1355 18.0241 11.3517 18.0241 11.3517C17.5916 11.7843 16.8723 12.0026 16.2733 11.8829L13.721 11.3724C13.0538 11.239 12.4799 10.6645 12.3466 9.99801L11.8361 7.44567C11.7162 6.84582 11.9343 6.12784 12.3673 5.69488L14.0298 4.0324C13.6837 4.08119 12.5422 4.10577 11.3042 5.34374C9.90837 6.73957 9.4771 8.80283 10.1516 10.6218C10.2875 10.9882 10.1975 11.4002 9.92112 11.6766L4.9418 16.6559C4.35287 17.2448 4.35312 18.1917 4.94023 18.7788C5.5247 19.3632 6.47714 19.3632 7.06312 18.7772L12.0424 13.7979C12.3188 13.5215 12.7308 13.4315 13.0972 13.5674ZM21.4546 7.21521C22.1067 9.65726 21.553 12.0655 19.7895 13.829C17.9945 15.624 15.41 16.2795 13.0279 15.642C12.8524 15.8175 8.47733 20.1914 8.47733 20.1914C7.11034 21.5584 4.89157 21.5585 3.52602 20.193C2.15802 18.825 2.15744 16.6118 3.52759 15.2417L8.07364 10.6956C7.39521 8.84648 7.93636 5.88315 9.88998 3.92953C11.6535 2.16602 14.0617 1.61229 16.5038 2.26444C17.2479 2.46315 17.4975 3.39309 16.9529 3.93769L13.7815 7.10909L14.2715 9.44748L16.6099 9.93752L19.7813 6.76611C20.3259 6.22152 21.2559 6.47112 21.4546 7.21521Z" fill="white"/>
</svg>
