<svg width="24" height="24" viewBox="0 0 24 24" fill="none" xmlns="http://www.w3.org/2000/svg">
<path d="M12 13.088C12.56 13.088 13.064 12.96 13.512 12.704C13.976 12.432 14.336 12.072 14.592 11.624C14.864 11.16 15 10.648 15 10.088C15 9.52801 14.864 9.02401 14.592 8.57601C14.336 8.11201 13.976 7.75201 13.512 7.49601C13.064 7.22401 12.56 7.08801 12 7.08801C11.44 7.08801 10.928 7.22401 10.464 7.49601C10.016 7.75201 9.656 8.11201 9.384 8.57601C9.128 9.02401 9 9.52801 9 10.088C9 10.648 9.128 11.16 9.384 11.624C9.656 12.072 10.016 12.432 10.464 12.704C10.928 12.96 11.44 13.088 12 13.088ZM12 11.096C11.696 11.096 11.448 11.008 11.256 10.832C11.08 10.64 10.992 10.392 10.992 10.088C10.992 9.78401 11.08 9.54401 11.256 9.36801C11.448 9.19201 11.696 9.10401 12 9.10401C12.304 9.10401 12.544 9.20001 12.72 9.39201C12.912 9.56801 13.008 9.80801 13.008 10.112C13.008 10.4 12.912 10.64 12.72 10.832C12.544 11.008 12.304 11.096 12 11.096ZM4.008 10.112C4.008 11.088 4.192 12.048 4.56 12.992C4.912 13.888 5.392 14.696 6 15.416L10.512 20.432C10.768 20.72 11.08 20.912 11.448 21.008C11.816 21.12 12.184 21.12 12.552 21.008C12.92 20.912 13.24 20.72 13.512 20.432L18 15.416C18.608 14.696 19.088 13.888 19.44 12.992C19.808 12.048 19.992 11.088 19.992 10.112C19.992 8.67201 19.624 7.32801 18.888 6.08001C18.184 4.86401 17.232 3.90401 16.032 3.20001C14.784 2.46401 13.44 2.09601 12 2.09601C10.56 2.09601 9.216 2.46401 7.968 3.20001C6.768 3.90401 5.816 4.86401 5.112 6.08001C4.376 7.32801 4.008 8.67201 4.008 10.112ZM12 19.088L7.512 14.096C7.048 13.536 6.68 12.912 6.408 12.224C6.136 11.536 6 10.832 6 10.112C6 9.02401 6.272 8.02401 6.816 7.11201C7.36 6.18401 8.088 5.44801 9 4.90401C9.928 4.36001 10.928 4.08801 12 4.08801C13.072 4.08801 14.064 4.36001 14.976 4.90401C15.904 5.44801 16.64 6.18401 17.184 7.11201C17.728 8.02401 18 9.02401 18 10.112C18 10.832 17.864 11.536 17.592 12.224C17.32 12.912 16.952 13.536 16.488 14.096L12 19.088Z" fill="#E94040"/>
</svg>
