<svg width="24" height="24" viewBox="0 0 24 24" fill="none" xmlns="http://www.w3.org/2000/svg">
<path d="M12 21.9922C10.625 21.9922 9.32812 21.7344 8.10938 21.2188C6.89062 20.6875 5.82812 19.9688 4.92188 19.0625C4.01562 18.1562 3.30469 17.1016 2.78906 15.8984C2.25781 14.6797 1.99219 13.3828 1.99219 12.0078C1.99219 10.6172 2.25781 9.32031 2.78906 8.11719C3.30469 6.89844 4.01562 5.83594 4.92188 4.92969C5.82812 4.02344 6.89062 3.3125 8.10938 2.79688C9.32812 2.26563 10.625 2 12 2C13.375 2 14.6719 2.26563 15.8906 2.79688C17.1094 3.3125 18.1719 4.02344 19.0781 4.92969C19.9844 5.83594 20.6953 6.89844 21.2109 8.11719C21.7422 9.32031 22.0078 10.6172 22.0078 12.0078C22.0078 13.3828 21.7422 14.6797 21.2109 15.8984C20.6953 17.1016 19.9844 18.1562 19.0781 19.0625C18.1719 19.9688 17.1094 20.6875 15.8906 21.2188C14.6719 21.7344 13.375 21.9922 12 21.9922ZM12 20C13.1094 20 14.1484 19.7891 15.1172 19.3672C16.0859 18.9453 16.9297 18.375 17.6484 17.6562C18.3828 16.9375 18.9609 16.0938 19.3828 15.125C19.7891 14.1406 19.9922 13.1016 19.9922 12.0078C19.9922 10.8984 19.7891 9.85938 19.3828 8.89062C18.9609 7.92187 18.3828 7.07812 17.6484 6.35938C16.9297 5.625 16.0859 5.04688 15.1172 4.625C14.1484 4.20312 13.1094 3.99219 12 3.99219C10.8906 3.99219 9.85156 4.20312 8.88281 4.625C7.91406 5.04688 7.0625 5.625 6.32812 6.35938C5.60938 7.07812 5.03906 7.92187 4.61719 8.89062C4.21094 9.85938 4.00781 10.8984 4.00781 12.0078C4.00781 13.1016 4.21094 14.1406 4.61719 15.125C5.03906 16.0938 5.60938 16.9375 6.32812 17.6562C7.0625 18.375 7.91406 18.9453 8.88281 19.3672C9.85156 19.7891 10.8906 20 12 20ZM14.8359 7.76562C15.0234 7.5625 15.2578 7.46094 15.5391 7.46094C15.8203 7.46094 16.0547 7.5625 16.2422 7.76562C16.4453 7.95312 16.5469 8.1875 16.5469 8.46875C16.5469 8.73438 16.4453 8.96875 16.2422 9.17188L9.16406 16.25C8.97656 16.4375 8.74219 16.5312 8.46094 16.5312C8.17969 16.5312 7.94531 16.4375 7.75781 16.25C7.55469 16.0469 7.45312 15.8125 7.45312 15.5469C7.45312 15.2656 7.55469 15.0234 7.75781 14.8203L14.8359 7.76562ZM7.75781 7.76562C7.94531 7.5625 8.17969 7.46094 8.46094 7.46094C8.74219 7.46094 8.97656 7.5625 9.16406 7.76562L16.2422 14.8203C16.4453 15.0234 16.5469 15.2656 16.5469 15.5469C16.5469 15.8125 16.4453 16.0469 16.2422 16.25C16.0547 16.4375 15.8203 16.5312 15.5391 16.5312C15.2578 16.5312 15.0234 16.4375 14.8359 16.25L7.75781 9.17188C7.55469 8.96875 7.45312 8.73438 7.45312 8.46875C7.45312 8.1875 7.55469 7.95312 7.75781 7.76562Z" fill="#2F3136"/>
</svg>
