<svg width="24" height="24" viewBox="0 0 24 24" fill="none" xmlns="http://www.w3.org/2000/svg">
<path d="M19.0023 22H17.9953C15.7939 22 13.7252 21.5858 11.7892 20.7573C9.83763 19.9132 8.13583 18.7644 6.68384 17.3107C5.24746 15.857 4.10773 14.161 3.26464 12.2227C2.42155 10.2845 2 8.21336 2 6.00938V5.00117C2 4.59476 2.07806 4.2118 2.23419 3.85229C2.39032 3.49277 2.6089 3.17233 2.88993 2.89097C3.17096 2.59398 3.49102 2.37515 3.85012 2.23447C4.22482 2.07816 4.60734 2 4.99766 2H8.27635C8.49493 2 8.69789 2.03126 8.88525 2.09379C9.08821 2.15631 9.27557 2.2501 9.44731 2.37515C9.61905 2.5002 9.76737 2.64869 9.89227 2.82063C10.0172 2.99258 10.1109 3.17233 10.1733 3.35991L11.6721 7.86166C11.7502 8.09613 11.7814 8.33841 11.7658 8.58851C11.7658 8.82298 11.719 9.04963 11.6253 9.26846C11.5316 9.4873 11.3989 9.6905 11.2272 9.87808C11.071 10.05 10.8837 10.1829 10.6651 10.2767L9.30679 10.9566C9.75956 11.7382 10.2982 12.4494 10.9227 13.0903C11.5472 13.7155 12.2498 14.247 13.0304 14.6846L13.7096 13.3247C13.8189 13.1215 13.9594 12.9418 14.1311 12.7855C14.3185 12.6135 14.5215 12.4807 14.74 12.3869C14.9586 12.2931 15.185 12.2462 15.4192 12.2462C15.669 12.2306 15.911 12.2618 16.1452 12.34L20.6183 13.8406C20.8212 13.9031 21.0008 13.9969 21.1569 14.1219C21.3286 14.247 21.477 14.3877 21.6019 14.544C21.7268 14.7315 21.8205 14.9269 21.8829 15.1301C21.961 15.3177 22 15.5131 22 15.7163V18.9988C22 19.4052 21.9219 19.796 21.7658 20.1712C21.6097 20.5307 21.3911 20.8511 21.1101 21.1325C20.829 21.4138 20.5012 21.6327 20.1265 21.789C19.7674 21.9297 19.3927 22 19.0023 22ZM4.99766 3.99297C4.87276 3.99297 4.74785 4.02423 4.62295 4.08675C4.49805 4.13365 4.38876 4.20399 4.29508 4.29777C4.20141 4.39156 4.13115 4.50098 4.08431 4.62603C4.03747 4.75107 4.01405 4.87612 4.01405 5.00117V6.00938C4.01405 7.932 4.38095 9.74521 5.11475 11.449C5.84856 13.1528 6.84777 14.6377 8.11241 15.9039C9.37705 17.17 10.8603 18.1704 12.5621 18.905C14.2482 19.6397 16.0593 20.007 17.9953 20.007H19.0023C19.1272 20.007 19.2521 19.9836 19.377 19.9367C19.502 19.8742 19.6112 19.8038 19.7049 19.7257C19.7986 19.6319 19.8689 19.5225 19.9157 19.3974C19.9625 19.2724 19.9859 19.1395 19.9859 18.9988V15.7163L15.5129 14.2157L14.3888 16.49C14.2639 16.7245 14.0687 16.8886 13.8033 16.9824C13.5535 17.0762 13.3115 17.0606 13.0773 16.9355C12.4059 16.6385 11.7736 16.2868 11.1803 15.8804C10.587 15.4584 10.0328 14.9973 9.51756 14.4971C9.00234 13.9812 8.54176 13.4263 8.13583 12.8324C7.71429 12.2384 7.35519 11.6053 7.05855 10.9332C6.94926 10.6831 6.93365 10.433 7.01171 10.1829C7.10539 9.93279 7.27713 9.74521 7.52693 9.62016L9.77518 8.49472L8.27635 3.99297H4.99766Z" fill="#3080EA"/>
</svg>
