<svg width="24" height="24" viewBox="0 0 24 24" fill="none" xmlns="http://www.w3.org/2000/svg">
<path d="M3 21.0078V3.99219C3 3.44531 3.19531 2.97656 3.58594 2.58594C3.97656 2.19531 4.44531 2 4.99219 2H19.0078C19.5547 2 20.0234 2.19531 20.4141 2.58594C20.8047 2.97656 21 3.44531 21 3.99219V21.0078C21 21.3672 20.8438 21.6484 20.5312 21.8516C20.2188 22.0391 19.8906 22.0547 19.5469 21.8984L18 21.125L16.4531 21.8984C16.3125 21.9609 16.1641 21.9922 16.0078 21.9922C15.8516 21.9922 15.7031 21.9609 15.5625 21.8984L13.9922 21.125L12.4453 21.8984C12.3047 21.9609 12.1562 21.9922 12 21.9922C11.8438 21.9922 11.6953 21.9609 11.5547 21.8984L10.0078 21.125L8.4375 21.8984C8.29688 21.9609 8.14844 21.9922 7.99219 21.9922C7.83594 21.9922 7.6875 21.9609 7.54688 21.8984L6 21.125L4.45312 21.8984C4.10938 22.0547 3.78125 22.0391 3.46875 21.8516C3.15625 21.6484 3 21.3672 3 21.0078ZM19.0078 3.99219H4.99219V19.3906L5.55469 19.1094C5.69531 19.0312 5.84375 18.9922 6 18.9922C6.15625 18.9922 6.30469 19.0312 6.44531 19.1094L8.01562 19.8828L9.5625 19.1094C9.70312 19.0312 9.85156 18.9922 10.0078 18.9922C10.1641 18.9922 10.3125 19.0312 10.4531 19.1094L12 19.8828L13.5469 19.1094C13.6875 19.0312 13.8359 18.9922 13.9922 18.9922C14.1484 18.9922 14.2969 19.0312 14.4375 19.1094L16.0078 19.8828L17.5547 19.1094C17.6953 19.0312 17.8438 18.9922 18 18.9922C18.1562 18.9922 18.3047 19.0312 18.4453 19.1094L19.0078 19.3906V3.99219ZM12 15.0078C12 14.7266 12.0938 14.4922 12.2812 14.3047C12.4844 14.1016 12.7266 14 13.0078 14H16.0078C16.2734 14 16.5 14.1016 16.6875 14.3047C16.8906 14.4922 16.9922 14.7266 16.9922 15.0078C16.9922 15.2734 16.8906 15.5078 16.6875 15.7109C16.5 15.8984 16.2734 15.9922 16.0078 15.9922H13.0078C12.7266 15.9922 12.4844 15.8984 12.2812 15.7109C12.0938 15.5078 12 15.2734 12 15.0078ZM7.00781 11C7.00781 10.7188 7.10156 10.4844 7.28906 10.2969C7.49219 10.0938 7.72656 9.99219 7.99219 9.99219H16.0078C16.2734 9.99219 16.5 10.0938 16.6875 10.2969C16.8906 10.4844 16.9922 10.7188 16.9922 11C16.9922 11.2812 16.8906 11.5234 16.6875 11.7266C16.5 11.9141 16.2734 12.0078 16.0078 12.0078H7.99219C7.72656 12.0078 7.49219 11.9141 7.28906 11.7266C7.10156 11.5234 7.00781 11.2812 7.00781 11ZM7.00781 6.99219C7.00781 6.72656 7.10156 6.5 7.28906 6.3125C7.49219 6.10938 7.72656 6.00781 7.99219 6.00781H16.0078C16.2734 6.00781 16.5 6.10938 16.6875 6.3125C16.8906 6.5 16.9922 6.72656 16.9922 6.99219C16.9922 7.27344 16.8906 7.51562 16.6875 7.71875C16.5 7.90625 16.2734 8 16.0078 8H7.99219C7.72656 8 7.49219 7.90625 7.28906 7.71875C7.10156 7.51562 7.00781 7.27344 7.00781 6.99219Z" fill="white"/>
</svg>
