<svg width="24" height="24" viewBox="0 0 24 24" fill="none" xmlns="http://www.w3.org/2000/svg">
<path d="M13.656 12.104L18.648 7.11201C18.888 6.87201 19.008 6.59201 19.008 6.27201C19.008 5.93601 18.896 5.65601 18.672 5.43201C18.448 5.20801 18.16 5.09601 17.808 5.09601C17.504 5.09601 17.232 5.21601 16.992 5.45601L12 10.448L7.008 5.45601C6.768 5.21601 6.488 5.09601 6.168 5.09601C5.848 5.09601 5.568 5.20801 5.328 5.43201C5.104 5.65601 4.992 5.93601 4.992 6.27201C4.992 6.59201 5.112 6.87201 5.352 7.11201L10.344 12.104L5.352 17.096C5.112 17.304 4.992 17.576 4.992 17.912C4.992 18.248 5.112 18.528 5.352 18.752C5.56 18.976 5.832 19.088 6.168 19.088C6.504 19.088 6.784 18.976 7.008 18.752L12 13.76L16.992 18.752C17.216 18.976 17.488 19.088 17.808 19.088C18.16 19.088 18.44 18.976 18.648 18.752C18.888 18.528 19.008 18.248 19.008 17.912C19.008 17.576 18.888 17.304 18.648 17.096L13.656 12.104Z" fill="white"/>
</svg>
