<svg width="24" height="24" viewBox="0 0 24 24" fill="none" xmlns="http://www.w3.org/2000/svg">
<path d="M5.74219 5.02344L21.6562 6.00781C21.9375 6.02344 22.1562 6.13281 22.3125 6.33594C22.4688 6.53906 22.5234 6.77344 22.4766 7.03906L21.1641 14C21.1172 14.2812 20.9766 14.5156 20.7422 14.7031C20.5078 14.8906 20.2578 14.9844 19.9922 14.9844H8.03906L8.27344 15.9922H19.4766C19.7578 15.9922 19.9922 16.0938 20.1797 16.2969C20.3828 16.4844 20.4844 16.7188 20.4844 17C20.4844 17.2656 20.3828 17.5 20.1797 17.7031C19.9922 17.8906 19.7578 17.9844 19.4766 17.9844H7.47656C7.24219 17.9844 7.03125 17.9141 6.84375 17.7734C6.67188 17.6328 6.5625 17.4453 6.51562 17.2109L3.60938 4.67188L2.0625 3.89844C1.8125 3.77344 1.64062 3.57813 1.54688 3.3125C1.46875 3.04687 1.48438 2.79688 1.59375 2.5625C1.71875 2.3125 1.91406 2.14844 2.17969 2.07031C2.44531 1.97656 2.70312 1.98438 2.95312 2.09375L4.92188 3.10156C5.0625 3.16406 5.17969 3.25781 5.27344 3.38281C5.36719 3.49219 5.42969 3.61719 5.46094 3.75781L5.74219 5.02344ZM19.3125 12.9922L20.2734 7.92969L6.21094 7.0625L7.59375 12.9922H19.3125ZM17.4844 23C16.9375 23 16.4688 22.8047 16.0781 22.4141C15.6875 22.0234 15.4922 21.5469 15.4922 20.9844C15.4922 20.4375 15.6875 19.9688 16.0781 19.5781C16.4688 19.1875 16.9375 18.9922 17.4844 18.9922C18.0312 18.9922 18.5 19.1875 18.8906 19.5781C19.2812 19.9688 19.4766 20.4375 19.4766 20.9844C19.4766 21.5469 19.2812 22.0234 18.8906 22.4141C18.5 22.8047 18.0312 23 17.4844 23ZM8.48438 23C7.9375 23 7.46875 22.8047 7.07812 22.4141C6.6875 22.0234 6.49219 21.5469 6.49219 20.9844C6.49219 20.4375 6.6875 19.9688 7.07812 19.5781C7.46875 19.1875 7.9375 18.9922 8.48438 18.9922C9.03125 18.9922 9.5 19.1875 9.89062 19.5781C10.2812 19.9688 10.4766 20.4375 10.4766 20.9844C10.4766 21.5469 10.2812 22.0234 9.89062 22.4141C9.5 22.8047 9.03125 23 8.48438 23Z" fill="white"/>
</svg>
