<svg width="69" height="31" viewBox="0 0 69 31" fill="none" xmlns="http://www.w3.org/2000/svg">
<path d="M6.125 30H0.460938V8.86719H6.125V30ZM0.128906 3.39844C0.128906 2.55208 0.408854 1.85547 0.96875 1.30859C1.54167 0.761719 2.31641 0.488281 3.29297 0.488281C4.25651 0.488281 5.02474 0.761719 5.59766 1.30859C6.17057 1.85547 6.45703 2.55208 6.45703 3.39844C6.45703 4.25781 6.16406 4.96094 5.57812 5.50781C5.00521 6.05469 4.24349 6.32812 3.29297 6.32812C2.34245 6.32812 1.57422 6.05469 0.988281 5.50781C0.415365 4.96094 0.128906 4.25781 0.128906 3.39844ZM17.582 25.8398C18.6237 25.8398 19.4701 25.5534 20.1211 24.9805C20.7721 24.4076 21.1107 23.6458 21.1367 22.6953H26.4297C26.4167 24.1276 26.026 25.4427 25.2578 26.6406C24.4896 27.8255 23.4349 28.75 22.0938 29.4141C20.7656 30.0651 19.2943 30.3906 17.6797 30.3906C14.6589 30.3906 12.276 29.4336 10.5312 27.5195C8.78646 25.5924 7.91406 22.9362 7.91406 19.5508V19.1797C7.91406 15.9245 8.77995 13.3268 10.5117 11.3867C12.2435 9.44661 14.6198 8.47656 17.6406 8.47656C20.2839 8.47656 22.3997 9.23177 23.9883 10.7422C25.5898 12.2396 26.4036 14.2383 26.4297 16.7383H21.1367C21.1107 15.6445 20.7721 14.7591 20.1211 14.082C19.4701 13.3919 18.6107 13.0469 17.543 13.0469C16.2279 13.0469 15.2318 13.5286 14.5547 14.4922C13.8906 15.4427 13.5586 16.9922 13.5586 19.1406V19.7266C13.5586 21.901 13.8906 23.4635 14.5547 24.4141C15.2188 25.3646 16.2279 25.8398 17.582 25.8398ZM46.9102 30H27.418V26.1328L36.6172 16.3281C37.8802 14.9479 38.8112 13.7435 39.4102 12.7148C40.0221 11.6862 40.3281 10.7096 40.3281 9.78516C40.3281 8.52214 40.0091 7.53255 39.3711 6.81641C38.7331 6.08724 37.8216 5.72266 36.6367 5.72266C35.3607 5.72266 34.3516 6.16536 33.6094 7.05078C32.8802 7.92318 32.5156 9.07552 32.5156 10.5078H26.8516C26.8516 8.77604 27.2617 7.19401 28.082 5.76172C28.9154 4.32943 30.0872 3.20964 31.5977 2.40234C33.1081 1.58203 34.8203 1.17188 36.7344 1.17188C39.6641 1.17188 41.9362 1.875 43.5508 3.28125C45.1784 4.6875 45.9922 6.67318 45.9922 9.23828C45.9922 10.6445 45.6276 12.0768 44.8984 13.5352C44.1693 14.9935 42.9193 16.6927 41.1484 18.6328L34.6836 25.4492H46.9102V30ZM65.0859 19.2969H68.3086V23.8477H65.0859V30H59.4414V23.8477H47.7812L47.5273 20.293L59.3828 1.5625H65.0859V19.2969ZM53.1523 19.2969H59.4414V9.25781L59.0703 9.90234L53.1523 19.2969Z" fill="black"/>
</svg>
