<svg width="24" height="24" viewBox="0 0 24 24" fill="none" xmlns="http://www.w3.org/2000/svg">
<path d="M3 15V16H21V15H3ZM3 13H21V4H3V13ZM10 19.0722C10.678 19.0251 11.3465 19 12 19C12.6535 19 13.322 19.0251 14 19.0722V18H10V19.0722ZM8 19.2694V18H2.50439C1.67611 18 1 17.335 1 16.5017V3.49827C1 2.66801 1.67509 2 2.50439 2H21.4956C22.3239 2 23 2.66496 23 3.49827V16.5017C23 17.332 22.3249 18 21.4956 18H16V19.2694C16.5531 19.3391 17.1088 19.421 17.6644 19.5136C18.3364 19.6256 18.9607 19.7457 19.522 19.8659C19.7195 19.9083 19.8953 19.9477 20.0475 19.9832C20.1406 20.0049 20.2063 20.0208 20.2425 20.0299C20.7783 20.1638 21.1041 20.7067 20.9701 21.2425C20.8362 21.7783 20.2933 22.1041 19.7575 21.9701C19.7312 21.9636 19.6758 21.9502 19.5931 21.9309C19.4524 21.898 19.2884 21.8613 19.103 21.8216C18.5705 21.7075 17.9761 21.5931 17.3356 21.4864C15.5108 21.1823 13.6882 21 12 21C10.3118 21 8.48924 21.1823 6.6644 21.4864C6.02392 21.5931 5.42948 21.7075 4.89703 21.8216C4.71165 21.8613 4.54762 21.898 4.40692 21.9309C4.32423 21.9502 4.26878 21.9636 4.24254 21.9701C3.70674 22.1041 3.16381 21.7783 3.02986 21.2425C2.89591 20.7067 3.22167 20.1638 3.75746 20.0299C3.79372 20.0208 3.85937 20.0049 3.95246 19.9832C4.10473 19.9477 4.28054 19.9083 4.47797 19.8659C5.03927 19.7457 5.66358 19.6256 6.3356 19.5136C6.89115 19.421 7.4469 19.3391 8 19.2694Z" fill="#2F3136"/>
</svg>
