<svg width="16" height="16" viewBox="0 0 16 16" fill="none" xmlns="http://www.w3.org/2000/svg">
<path d="M12.6684 14.6663H11.997C10.5294 14.6663 9.15031 14.3902 7.85965 13.8379C6.55858 13.2752 5.42405 12.5092 4.45606 11.5401C3.49847 10.571 2.73865 9.44034 2.17659 8.14817C1.61453 6.856 1.3335 5.47525 1.3335 4.00593V3.33379C1.3335 3.06285 1.38554 2.80754 1.48962 2.56787C1.59371 2.32819 1.73943 2.11456 1.92678 1.92699C2.11414 1.729 2.32751 1.58311 2.56691 1.48932C2.81671 1.38511 3.07172 1.33301 3.33193 1.33301H5.51773C5.66345 1.33301 5.79876 1.35385 5.92366 1.39553C6.05897 1.43722 6.18387 1.49974 6.29837 1.58311C6.41286 1.66647 6.51174 1.76547 6.59501 1.8801C6.67828 1.99472 6.74073 2.11456 6.78236 2.23961L7.78158 5.24078C7.83363 5.3971 7.85444 5.55862 7.84404 5.72535C7.84404 5.88166 7.81281 6.03276 7.75036 6.17865C7.68791 6.32454 7.59943 6.46001 7.48494 6.58506C7.38086 6.69969 7.25595 6.78826 7.11023 6.85079L6.20469 7.30409C6.50654 7.82513 6.86563 8.29927 7.28197 8.72652C7.69832 9.14335 8.1667 9.49766 8.68713 9.78944L9.1399 8.88283C9.21276 8.74736 9.30643 8.62752 9.42093 8.52332C9.54583 8.40869 9.68114 8.32011 9.82686 8.25759C9.97258 8.19506 10.1235 8.1638 10.2796 8.1638C10.4462 8.15338 10.6075 8.17422 10.7636 8.22633L13.7457 9.22672C13.881 9.2684 14.0007 9.33092 14.1048 9.41429C14.2193 9.49766 14.3181 9.59144 14.4014 9.69565C14.4847 9.8207 14.5471 9.95096 14.5888 10.0864C14.6408 10.2115 14.6668 10.3417 14.6668 10.4772V12.6656C14.6668 12.9365 14.6148 13.197 14.5107 13.4471C14.4066 13.6868 14.2609 13.9004 14.0735 14.088C13.8862 14.2756 13.6676 14.4215 13.4178 14.5257C13.1784 14.6194 12.9286 14.6663 12.6684 14.6663ZM3.33193 2.66165C3.24867 2.66165 3.1654 2.68249 3.08213 2.72418C2.99886 2.75544 2.926 2.80233 2.86355 2.86486C2.8011 2.92738 2.75426 3.00033 2.72304 3.08369C2.69181 3.16706 2.6762 3.25042 2.6762 3.33379V4.00593C2.6762 5.28768 2.9208 6.49648 3.41 7.63234C3.8992 8.7682 4.56535 9.75817 5.40844 10.6023C6.25153 11.4463 7.24034 12.1133 8.37487 12.603C9.49899 13.0928 10.7064 13.3377 11.997 13.3377H12.6684C12.7517 13.3377 12.8349 13.3221 12.9182 13.2908C13.0015 13.2491 13.0743 13.2022 13.1368 13.1501C13.1992 13.0876 13.2461 13.0147 13.2773 12.9313C13.3085 12.8479 13.3241 12.7593 13.3241 12.6656V10.4772L10.3421 9.47681L9.59267 10.993C9.5094 11.1493 9.37929 11.2588 9.20235 11.3213C9.03581 11.3838 8.87448 11.3734 8.71835 11.29C8.27078 11.092 7.84924 10.8576 7.45371 10.5866C7.05819 10.3053 6.68869 9.99785 6.34521 9.66439C6.00172 9.3205 5.69467 8.95057 5.42405 8.55458C5.14302 8.15859 4.90362 7.73655 4.70586 7.28846C4.633 7.12173 4.62259 6.955 4.67464 6.78826C4.73709 6.62153 4.85158 6.49648 5.01812 6.41312L6.51695 5.66282L5.51773 2.66165H3.33193Z" fill="#18BAFF"/>
</svg>
