<svg width="32" height="32" viewBox="0 0 32 32" fill="none" xmlns="http://www.w3.org/2000/svg">
<path fill-rule="evenodd" clip-rule="evenodd" d="M8.66668 24.0016C8.66668 24.7373 8.06784 25.3337 7.33473 25.3337H5.99862C5.26301 25.3337 4.66668 24.7425 4.66668 24.0016V22.667C3.93018 22.667 3.33334 22.069 3.33334 21.3298V14.6709C3.33334 13.9324 3.92497 13.3337 4.66642 13.3337H5.33334V8.66883C5.33334 5.3558 8.02318 2.66699 11.3333 2.66699C14.6489 2.66699 17.3333 5.35018 17.3333 8.66883V23.3318C17.3333 25.1774 18.8236 26.667 20.6667 26.667C22.5043 26.667 24 25.1719 24 23.3318V17.3337H22.6724C21.9328 17.3337 21.3333 16.7324 21.3333 15.9946V10.6727C21.3333 9.93506 21.9316 9.33674 22.6667 9.33367V7.99906C22.6667 7.26338 23.2578 6.66699 23.9987 6.66699H26.6679C27.4036 6.66699 28 7.25813 28 7.99906V9.33367C28.7369 9.33674 29.3333 9.93685 29.3333 10.6727V15.9946C29.3333 16.7342 28.732 17.3337 27.9943 17.3337H26.6667V23.3318C26.6667 26.6448 23.9768 29.3337 20.6667 29.3337C17.3511 29.3337 14.6667 26.6505 14.6667 23.3318V8.66883C14.6667 6.82322 13.1764 5.33366 11.3333 5.33366C9.49571 5.33366 8.00001 6.82879 8.00001 8.66883V13.3337H8.66693C9.40317 13.3337 10 13.9317 10 14.6709V21.3298C10 22.0683 9.40839 22.667 8.66693 22.667L8.66668 24.0016ZM24 12.0003V14.667H26.6667V12.0003H24ZM6.00001 16.0003V20.0003H7.33334V16.0003H6.00001Z" fill="#722ED1"/>
</svg>
