<svg width="32" height="32" viewBox="0 0 32 32" fill="none" xmlns="http://www.w3.org/2000/svg">
<path fill-rule="evenodd" clip-rule="evenodd" d="M20 12.0083C20 12.7425 19.4049 13.3377 18.67 13.3377H9.33008C8.59551 13.3377 8.00002 12.7413 8.00002 12.0083V5.33614L5.32777 5.33585V26.6692H8.00002V19.9982C8.00002 19.2652 8.59804 18.671 9.33665 18.671H22.6634C23.4016 18.671 24 19.2698 24 19.9982V26.6692H26.6611L26.6894 10.4648L21.5659 5.33761L20 5.33744V12.0083ZM13.3334 5.33672V10.671H17.3334V5.33715L13.3334 5.33672ZM5.33337 29.333C3.8606 29.333 2.66669 28.1354 2.66669 26.6663V5.33304C2.66669 3.86027 3.86156 2.66664 5.33478 2.66699L22.0013 2.67099C22.3688 2.67099 22.8735 2.87782 23.1355 3.13978L28.8646 8.86887C29.1235 9.12777 29.3334 9.6359 29.3334 10.0031V26.6656C29.3334 28.1388 28.1357 29.333 26.6667 29.333H5.33337ZM21.3334 21.3377H10.6667V26.6692H21.3334V21.3377Z" fill="#2F54EB"/>
</svg>
