<svg width="32" height="32" viewBox="0 0 32 32" fill="none" xmlns="http://www.w3.org/2000/svg">
<path fill-rule="evenodd" clip-rule="evenodd" d="M24 10.667H27.9988C29.4722 10.667 30.6666 11.8565 30.6666 13.327V24.007C30.6666 25.4761 29.4713 26.667 27.9988 26.667H24V28.0043C24 28.7385 23.402 29.3337 22.6633 29.3337H9.33661C8.59841 29.3337 7.99998 28.7373 7.99998 28.0043V26.667H4.00119C2.52776 26.667 1.33331 25.4775 1.33331 24.007V13.327C1.33331 11.8579 2.52871 10.667 4.00119 10.667H8.66665V3.99637C8.66665 3.26217 9.26773 2.66699 10.0006 2.66699H22.6661C23.4028 2.66699 24 3.26333 24 3.99637V10.667ZM7.99998 21.3337C7.26099 21.3337 6.66665 20.7418 6.66665 20.0003C6.66665 19.2639 7.26658 18.667 7.99414 18.667H24.0058C24.739 18.667 25.3333 19.2588 25.3333 20.0003C25.3333 20.7367 24.7334 21.3337 24.0058 21.3337L24 24.0003H28V13.3337H3.99998V24.0003H7.99998V21.3337ZM10.6666 21.3337V26.667H21.3333V21.3337H10.6666ZM7.99998 17.3337C7.2636 17.3337 6.66665 16.7367 6.66665 16.0003C6.66665 15.2639 7.2636 14.667 7.99998 14.667C8.73636 14.667 9.33331 15.2639 9.33331 16.0003C9.33331 16.7367 8.73636 17.3337 7.99998 17.3337ZM11.3333 5.33366V10.667H21.3333V5.33366H11.3333Z" fill="#31C375"/>
</svg>
