<svg width="32" height="32" viewBox="0 0 32 32" fill="none" xmlns="http://www.w3.org/2000/svg">
<path fill-rule="evenodd" clip-rule="evenodd" d="M8.00002 13.3337H10.6667V17.3337H13.3334V20.0004H5.33335V17.3337H8.00002V13.3337ZM10.7826 10.667H12.0026C14.2102 10.667 16 12.4534 16 14.6604V22.6726C16 26.3499 13.0108 29.3337 9.33335 29.3337C5.65219 29.3337 2.66669 26.3508 2.66669 22.6726V14.6604C2.66669 12.4544 4.45671 10.667 6.66416 10.667H8.09158C8.63921 5.98473 11.523 1.95073 16.0148 2.00045C20.9059 2.05461 24.0262 7.01093 24.0262 11.9836C24.0262 14.1339 24.8093 15.9707 28.0124 16.0004C28.7487 16.0073 29.3401 16.6097 29.3333 17.3461C29.3265 18.0824 28.724 18.6738 27.9876 18.667C23.5035 18.6254 21.3596 15.9135 21.3596 11.9836C21.3596 8.29067 19.0999 4.70144 15.9853 4.66696C13.2684 4.63688 11.2774 7.32657 10.7826 10.667ZM5.33335 14.6604V22.6726C5.33335 24.8775 7.12444 26.667 9.33335 26.667C11.5391 26.667 13.3334 24.8761 13.3334 22.6726V14.6604C13.3334 13.9273 12.7386 13.3337 12.0026 13.3337H6.66416C5.92859 13.3337 5.33335 13.9281 5.33335 14.6604Z" fill="#13C2C2"/>
</svg>
