<svg width="32" height="32" viewBox="0 0 32 32" fill="none" xmlns="http://www.w3.org/2000/svg">
<path fill-rule="evenodd" clip-rule="evenodd" d="M24.0005 2.66699C25.473 2.66699 26.6667 3.86461 26.6667 5.33368V26.667C26.6667 28.1397 25.4755 29.3337 24.0005 29.3337H9.33287C7.86038 29.3337 6.66669 28.136 6.66669 26.667V5.33368C6.66669 3.86091 7.85788 2.66699 9.33287 2.66699H24.0005ZM9.33335 5.33366V26.667H24V5.33366H9.33335ZM16.6667 25.3337C14.4575 25.3337 12.6667 23.5428 12.6667 21.3337C12.6667 19.1245 14.4575 17.3337 16.6667 17.3337C18.8758 17.3337 20.6667 19.1245 20.6667 21.3337C20.6667 23.5428 18.8758 25.3337 16.6667 25.3337ZM16.6667 22.667C17.4031 22.667 18 22.07 18 21.3337C18 20.5973 17.4031 20.0003 16.6667 20.0003C15.9303 20.0003 15.3334 20.5973 15.3334 21.3337C15.3334 22.07 15.9303 22.667 16.6667 22.667ZM21.3366 6.66699C22.0712 6.66699 22.6667 7.26503 22.6667 8.00423V14.6631C22.6667 15.4016 22.0716 16.0003 21.3366 16.0003H11.9967C11.2622 16.0003 10.6667 15.4023 10.6667 14.6631V8.00423C10.6667 7.26569 11.2618 6.66699 11.9967 6.66699H21.3366ZM13.3334 9.33366V13.3337H20V9.33366H13.3334Z" fill="#FA8C16"/>
</svg>
