<svg width="33" height="32" viewBox="0 0 33 32" fill="none" xmlns="http://www.w3.org/2000/svg">
<path fill-rule="evenodd" clip-rule="evenodd" d="M30.0745 12.9172H8.75127L29.2325 6.98413C29.3917 6.93799 29.5259 6.83032 29.606 6.6853C29.6861 6.54004 29.7051 6.36914 29.659 6.20996L28.5872 2.51001C28.159 1.03223 26.783 0 25.241 0C24.9161 0 24.5923 0.0461426 24.2784 0.136963L5.04863 5.70752C4.15923 5.96509 3.42217 6.5564 2.97271 7.37207C2.52349 8.18774 2.41802 9.12695 2.67559 10.0161L3.72271 13.6309V28.5217C3.72271 30.4397 5.28301 32 7.20073 32H14.711C15.0562 32 15.336 31.7202 15.336 31.375C15.336 31.0298 15.0562 30.75 14.711 30.75H7.20098C5.97222 30.75 4.97271 29.7505 4.97271 28.5217V20.0164H8.17461H8.17608H8.1773H13.0718H13.0733H13.0748H17.9693H17.9708H17.9722H22.8667H22.8682H22.8694H29.4495V28.5217C29.4495 29.7505 28.45 30.75 27.2212 30.75H19.711C19.366 30.75 19.086 31.0298 19.086 31.375C19.086 31.7202 19.366 32 19.711 32H27.2212C29.1392 32 30.6995 30.4397 30.6995 28.5217V13.5422C30.6995 13.197 30.4197 12.9172 30.0745 12.9172ZM19.0538 18.7664L21.7093 14.1672H25.1631L22.5079 18.7664H19.0538ZM14.1563 18.7664L16.8118 14.1672H20.2657L17.6104 18.7664H14.1563ZM9.25908 18.7664L11.9144 14.1672H15.3685L12.7129 18.7664H9.25908ZM11.5828 10.6753L7.13604 6.4043L10.4678 5.43921C10.4913 5.47339 10.5186 5.50562 10.5499 5.53564L14.9966 9.80664L11.6648 10.7717C11.6414 10.7375 11.6138 10.7051 11.5828 10.6753ZM19.9578 2.8103L24.4046 7.0813L21.0728 8.04639C21.0494 8.01221 21.022 7.97974 20.9908 7.94995L16.544 3.67896L19.8758 2.71387C19.8992 2.74805 19.9266 2.78027 19.9578 2.8103ZM15.2537 4.1731L19.7005 8.44385L16.3687 9.40918C16.3453 9.375 16.3179 9.34253 16.2867 9.31274L11.8399 5.04175L15.1717 4.07666C15.1954 4.1106 15.2227 4.14307 15.2537 4.1731ZM24.6263 1.33765C24.827 1.27954 25.0337 1.25 25.241 1.25C26.23 1.25 27.1121 1.91113 27.3865 2.85791L28.2845 5.95728L25.7769 6.68359C25.7532 6.64941 25.7259 6.61719 25.6946 6.58716L21.2481 2.31641L24.6263 1.33765ZM4.06768 7.9751C4.35576 7.4519 4.82769 7.073 5.39653 6.9082L5.76372 6.80176C5.7874 6.83594 5.81475 6.86841 5.84575 6.89819L10.2925 11.1692L4.77422 12.7678L3.87627 9.66846C3.71148 9.09985 3.77959 8.49854 4.06768 7.9751ZM4.97271 14.1672H10.471L7.81572 18.7664H4.97271V14.1672ZM23.9512 18.7664L26.6065 14.1672H29.4495V18.7664H23.9512Z" fill="#888B96"/>
<path fill-rule="evenodd" clip-rule="evenodd" d="M21.5326 25.3195C21.5326 25.0961 21.4135 24.8898 21.2201 24.7783L15.7291 21.6081C15.5358 21.4965 15.2975 21.4965 15.1041 21.6081C14.9108 21.7197 14.7916 21.926 14.7916 22.1494V28.4897C14.7916 28.7128 14.9108 28.9191 15.1041 29.0307C15.2008 29.0866 15.3087 29.1147 15.4166 29.1147C15.5245 29.1147 15.6324 29.0866 15.7291 29.0307L21.2201 25.8608C21.4135 25.7492 21.5326 25.5429 21.5326 25.3195ZM16.0416 27.4072V23.2319L19.6576 25.3195L16.0416 27.4072Z" fill="#888B96"/>
<path fill-rule="evenodd" clip-rule="evenodd" d="M17.2108 30.75C16.8666 30.75 16.5858 31.0308 16.5858 31.375C16.5858 31.7192 16.8666 32 17.2108 32C17.5553 32 17.8358 31.7192 17.8358 31.375C17.8358 31.0308 17.5553 30.75 17.2108 30.75Z" fill="#888B96"/>
</svg>
