<svg width="32" height="32" viewBox="0 0 32 32" fill="none" xmlns="http://www.w3.org/2000/svg">
<path fill-rule="evenodd" clip-rule="evenodd" d="M22.6667 25.3337C24.8758 25.3337 26.6667 23.5428 26.6667 21.3337C26.6667 19.1245 24.8758 17.3337 22.6667 17.3337V25.3337ZM20.6667 29.3337C19.5621 29.3337 18.6667 28.4391 18.6667 27.3396V15.3277C18.6667 14.2264 19.5643 13.3337 20.6667 13.3337C21.5387 13.3337 22.393 13.8912 22.6667 14.667C24.1675 14.667 25.5524 15.1629 26.6667 15.9998C26.6666 14.0572 26.1471 12.2358 25.2396 10.667L6.76033 10.667C5.85284 12.2358 5.33341 14.0572 5.33332 15.9998C6.44754 15.1629 7.83252 14.667 9.33332 14.667C9.60727 13.8904 10.4628 13.3337 11.3333 13.3337C12.4379 13.3337 13.3333 14.2282 13.3333 15.3277V27.3396C13.3333 28.4409 12.4356 29.3337 11.3333 29.3337C10.4613 29.3337 9.60695 28.7761 9.33332 28.0003C5.65142 28.0003 2.66666 25.0156 2.66666 21.3337V16.0003C2.66666 8.63653 8.63619 2.66699 16 2.66699C23.3638 2.66699 29.3333 8.63653 29.3333 16.0003V21.3337C29.3333 25.0156 26.3486 28.0003 22.6667 28.0003C22.3927 28.7769 21.5372 29.3337 20.6667 29.3337ZM23.0555 8.00033C21.1752 6.34069 18.7052 5.33366 16 5.33366C13.2948 5.33366 10.8248 6.34069 8.94446 8.00033H23.0555ZM5.33332 21.3337C5.33332 23.5428 7.12418 25.3337 9.33332 25.3337V17.3337C7.12418 17.3337 5.33332 19.1245 5.33332 21.3337Z" fill="#E94040"/>
</svg>
