<svg width="32" height="32" viewBox="0 0 32 32" fill="none" xmlns="http://www.w3.org/2000/svg">
<g clip-path="url(#clip0)">
<path d="M6.68774 11.875C6.68774 17.0444 10.8933 21.25 16.0628 21.25C21.2322 21.25 25.4378 17.0444 25.4378 11.875C25.4378 6.70557 21.2322 2.5 16.0628 2.5C10.8933 2.5 6.68774 6.70557 6.68774 11.875ZM16.0628 3.75C20.543 3.75 24.1878 7.39478 24.1878 11.875C24.1878 16.3552 20.543 20 16.0628 20C11.5825 20 7.93775 16.3552 7.93775 11.875C7.93775 7.39478 11.5825 3.75 16.0628 3.75Z" fill="#3080EA"/>
<path d="M10.2746 10.7608L12.6973 13.1477L12.1399 16.5025C12.1011 16.7361 12.1975 16.9715 12.3892 17.1106C12.5806 17.2498 12.8342 17.2686 13.0444 17.1597L16.0627 15.5923L19.0808 17.1597C19.2893 17.2679 19.543 17.251 19.7361 17.1106C19.9278 16.9715 20.0242 16.7361 19.9854 16.5025L19.428 13.1477L21.8506 10.7608C22.0193 10.5947 22.0796 10.3477 22.0064 10.1223C21.9331 9.89723 21.739 9.73293 21.5049 9.69753L18.1428 9.19142L16.6216 6.14917C16.5159 5.9375 16.2993 5.80371 16.0627 5.80371C15.8259 5.80371 15.6096 5.9375 15.5037 6.14917L13.9824 9.19142L10.6203 9.69753C10.3862 9.73268 10.1921 9.89723 10.1189 10.1223C10.0456 10.3477 10.1062 10.5947 10.2746 10.7608ZM14.4895 10.3792C14.6907 10.3489 14.8645 10.2227 14.9556 10.0408L16.0627 7.82618L17.1699 10.0408C17.261 10.2227 17.4348 10.3489 17.636 10.3792L20.083 10.7476L18.3196 12.4846C18.1748 12.6275 18.1084 12.8318 18.1416 13.0325L18.5474 15.4742L16.3506 14.3335C16.2605 14.2867 16.1616 14.2632 16.0627 14.2632C15.9639 14.2632 15.865 14.2867 15.7747 14.3335L13.5779 15.4742L13.9836 13.0325C14.0171 12.8318 13.9507 12.6275 13.8057 12.4846L12.0425 10.7476L14.4895 10.3792Z" fill="#3080EA"/>
<path d="M16.6875 0.625001C16.6875 0.970216 16.4077 1.25 16.0625 1.25C15.7173 1.25 15.4375 0.970216 15.4375 0.625001C15.4375 0.279786 15.7173 0 16.0625 0C16.4077 0 16.6875 0.279786 16.6875 0.625001Z" fill="#3080EA"/>
<path d="M13.1171 0.368232C7.85956 1.71028 4.18768 6.44197 4.18768 11.8748C4.18768 15.2491 5.60639 18.4286 8.09687 20.6803L4.33148 27.3163C4.21039 27.5299 4.22552 27.7946 4.37006 27.9928C4.51459 28.1913 4.76166 28.2867 5.00214 28.2367L9.27827 27.3487L10.7812 31.5839C10.8627 31.8143 11.0715 31.9757 11.3151 31.9974C11.5588 32.0192 11.7924 31.8964 11.9133 31.6837L16.0627 24.3888L20.2119 31.6837C20.3237 31.8803 20.5317 31.9996 20.7548 31.9996C20.7732 31.9996 20.7917 31.9989 20.81 31.9974C21.0537 31.9757 21.2624 31.8141 21.3442 31.5839L22.8469 27.3487L27.123 28.2367C27.3633 28.2865 27.6106 28.191 27.7551 27.9928C27.8999 27.7946 27.9148 27.5299 27.7937 27.3163L24.0283 20.6803C26.5188 18.4286 27.9375 15.2491 27.9375 11.8748C27.9375 6.44197 24.2656 1.71028 19.0083 0.368232C18.6735 0.282783 18.3335 0.484687 18.248 0.819161C18.1626 1.15363 18.3645 1.49397 18.6989 1.57942C23.4026 2.7801 26.6877 7.01375 26.6877 11.8748C26.6877 17.7911 21.8828 22.4999 16.0627 22.4999C10.2385 22.4999 5.43769 17.7872 5.43769 11.8748C5.43769 7.01375 8.7226 2.7801 13.4262 1.57942C13.7607 1.49397 13.9626 1.15363 13.8774 0.819161C13.7919 0.484687 13.4519 0.282783 13.1171 0.368232ZM11.5024 29.8783L10.2741 26.4171C10.1696 26.1227 9.86396 25.9506 9.55805 26.014L6.10028 26.732L9.08027 21.4801C10.8178 22.7433 12.8752 23.5128 15.0146 23.7032L11.5024 29.8783ZM22.5671 26.014C22.2614 25.9506 21.9555 26.1227 21.851 26.4171L20.623 29.8783L17.1106 23.7032C19.2502 23.5128 21.3073 22.7433 23.0451 21.4801L26.0251 26.732L22.5671 26.014Z" fill="#3080EA"/>
</g>
<defs>
<clipPath id="clip0">
<rect width="32" height="32" fill="white"/>
</clipPath>
</defs>
</svg>
