<svg width="32" height="32" viewBox="0 0 32 32" fill="none" xmlns="http://www.w3.org/2000/svg">
<path d="M3.99998 20.0003V21.3337H28V20.0003H3.99998ZM3.99998 17.3337H28V5.33366H3.99998V17.3337ZM13.3333 25.4299C14.2373 25.3671 15.1287 25.3337 16 25.3337C16.8713 25.3337 17.7626 25.3671 18.6666 25.4299V24.0003H13.3333V25.4299ZM10.6666 25.6928V24.0003H3.33916C2.23479 24.0003 1.33331 23.1137 1.33331 22.0026V4.66468C1.33331 3.55767 2.23343 2.66699 3.33916 2.66699H28.6608C29.7652 2.66699 30.6666 3.55361 30.6666 4.66468V22.0026C30.6666 23.1096 29.7665 24.0003 28.6608 24.0003H21.3333V25.6928C22.0708 25.7858 22.8118 25.895 23.5525 26.0185C24.4485 26.1678 25.281 26.3279 26.0294 26.4883C26.2926 26.5447 26.527 26.5972 26.73 26.6446C26.8542 26.6735 26.9417 26.6947 26.99 26.7068C27.7044 26.8854 28.1388 27.6093 27.9602 28.3237C27.7816 29.0381 27.0577 29.4724 26.3433 29.2938C26.3083 29.2851 26.2343 29.2672 26.1241 29.2415C25.9365 29.1977 25.7178 29.1487 25.4706 29.0957C24.7607 28.9436 23.9681 28.7912 23.1141 28.6488C20.681 28.2433 18.2509 28.0003 16 28.0003C13.749 28.0003 11.319 28.2433 8.88584 28.6488C8.03187 28.7912 7.23929 28.9436 6.52935 29.0957C6.28217 29.1487 6.06347 29.1977 5.87587 29.2415C5.76562 29.2672 5.69168 29.2851 5.65669 29.2938C4.9423 29.4724 4.21839 29.0381 4.03979 28.3237C3.86119 27.6093 4.29554 26.8854 5.00993 26.7068C5.05828 26.6947 5.1458 26.6735 5.26992 26.6446C5.47295 26.5972 5.70737 26.5447 5.97061 26.4883C6.719 26.3279 7.55142 26.1678 8.44745 26.0185C9.18818 25.895 9.92918 25.7858 10.6666 25.6928Z" fill="#EB2F96"/>
</svg>
