<svg width="32" height="32" viewBox="0 0 32 32" fill="none" xmlns="http://www.w3.org/2000/svg">
<path fill-rule="evenodd" clip-rule="evenodd" d="M8.00002 6.66667H24V18.6667H8.00002V6.66667ZM5.34266 18.891C5.3365 18.817 5.33335 18.7422 5.33335 18.6667V6.66667C5.33335 5.19391 6.52726 4 8.00002 4H24C25.4728 4 26.6667 5.19391 26.6667 6.66667V18.6667C26.6667 18.7422 26.6635 18.817 26.6574 18.891C28.2158 19.4375 29.3334 20.9216 29.3334 22.6667C29.3334 24.8758 27.5425 26.6667 25.3334 26.6667H6.66669C4.45755 26.6667 2.66669 24.8758 2.66669 22.6667C2.66669 20.9216 3.78421 19.4375 5.34266 18.891ZM24 21.3333H8.00002H6.66668C5.9303 21.3333 5.33335 21.9303 5.33335 22.6667C5.33335 23.403 5.9303 24 6.66668 24H25.3334C26.0697 24 26.6667 23.403 26.6667 22.6667C26.6667 21.9303 26.0697 21.3333 25.3334 21.3333H24Z" fill="#1890FF"/>
</svg>
