<svg width="48" height="48" viewBox="0 0 48 48" fill="none" xmlns="http://www.w3.org/2000/svg">
<path d="M34 16H40L46 24.112V36H41.93C41.6922 37.6686 40.8604 39.1954 39.5874 40.2999C38.3143 41.4044 36.6854 42.0125 35 42.0125C33.3146 42.0125 31.6857 41.4044 30.4126 40.2999C29.1396 39.1954 28.3078 37.6686 28.07 36H17.93C17.6922 37.6686 16.8604 39.1954 15.5874 40.2999C14.3143 41.4044 12.6854 42.0125 11 42.0125C9.31456 42.0125 7.68571 41.4044 6.41264 40.2999C5.13957 39.1954 4.30776 37.6686 4.07 36H2V12C2 11.4696 2.21071 10.9609 2.58579 10.5858C2.96086 10.2107 3.46957 10 4 10H32C32.5304 10 33.0391 10.2107 33.4142 10.5858C33.7893 10.9609 34 11.4696 34 12V16ZM34 20V26H42V25.43L37.984 20H34Z" fill="#E62E24"/>
</svg>
