<svg width="49" height="48" viewBox="0 0 49 48" fill="none" xmlns="http://www.w3.org/2000/svg">
<g clip-path="url(#clip0)">
<path d="M1.91344 42.7067H47.7486C48.3451 42.7067 48.8286 42.2233 48.8286 41.6268V40.6547C48.8293 40.6385 48.8335 40.6234 48.8335 40.607C48.8335 40.4307 48.7912 40.2643 48.7162 40.1174L44.0293 28.3191V6.37298C44.0293 5.77648 43.5459 5.29303 42.9494 5.29303H6.71293C6.11643 5.29303 5.63298 5.77648 5.63298 6.37298V28.3191L0.909645 40.2084C0.888492 40.2615 0.873686 40.3158 0.861229 40.3706C0.858174 40.3844 0.855824 40.3983 0.853238 40.4124C0.841487 40.4754 0.834201 40.5391 0.833966 40.6028C0.833966 40.6042 0.833496 40.6056 0.833496 40.607V41.6268C0.833496 42.2233 1.31695 42.7067 1.91344 42.7067ZM20.1863 39.2215L21.1744 36.1662H28.4877L29.4757 39.2215H20.1863ZM8.80796 8.04825H40.8543V26.8504H8.80796V8.04825Z" fill="white"/>
</g>
<defs>
<clipPath id="clip0">
<rect width="48" height="48" fill="white" transform="translate(0.833496)"/>
</clipPath>
</defs>
</svg>
