<svg width="68" height="31" viewBox="0 0 68 31" fill="none" xmlns="http://www.w3.org/2000/svg">
<path d="M6.125 30H0.460938V8.86719H6.125V30ZM0.128906 3.39844C0.128906 2.55208 0.408854 1.85547 0.96875 1.30859C1.54167 0.761719 2.31641 0.488281 3.29297 0.488281C4.25651 0.488281 5.02474 0.761719 5.59766 1.30859C6.17057 1.85547 6.45703 2.55208 6.45703 3.39844C6.45703 4.25781 6.16406 4.96094 5.57812 5.50781C5.00521 6.05469 4.24349 6.32812 3.29297 6.32812C2.34245 6.32812 1.57422 6.05469 0.988281 5.50781C0.415365 4.96094 0.128906 4.25781 0.128906 3.39844ZM17.582 25.8398C18.6237 25.8398 19.4701 25.5534 20.1211 24.9805C20.7721 24.4076 21.1107 23.6458 21.1367 22.6953H26.4297C26.4167 24.1276 26.026 25.4427 25.2578 26.6406C24.4896 27.8255 23.4349 28.75 22.0938 29.4141C20.7656 30.0651 19.2943 30.3906 17.6797 30.3906C14.6589 30.3906 12.276 29.4336 10.5312 27.5195C8.78646 25.5924 7.91406 22.9362 7.91406 19.5508V19.1797C7.91406 15.9245 8.77995 13.3268 10.5117 11.3867C12.2435 9.44661 14.6198 8.47656 17.6406 8.47656C20.2839 8.47656 22.3997 9.23177 23.9883 10.7422C25.5898 12.2396 26.4036 14.2383 26.4297 16.7383H21.1367C21.1107 15.6445 20.7721 14.7591 20.1211 14.082C19.4701 13.3919 18.6107 13.0469 17.543 13.0469C16.2279 13.0469 15.2318 13.5286 14.5547 14.4922C13.8906 15.4427 13.5586 16.9922 13.5586 19.1406V19.7266C13.5586 21.901 13.8906 23.4635 14.5547 24.4141C15.2188 25.3646 16.2279 25.8398 17.582 25.8398ZM44.1172 19.2969H47.3398V23.8477H44.1172V30H38.4727V23.8477H26.8125L26.5586 20.293L38.4141 1.5625H44.1172V19.2969ZM32.1836 19.2969H38.4727V9.25781L38.1016 9.90234L32.1836 19.2969ZM66.9219 9.12109C66.9219 10.5013 66.5768 11.7253 65.8867 12.793C65.1966 13.8607 64.2461 14.7135 63.0352 15.3516C64.4154 16.0156 65.5091 16.9336 66.3164 18.1055C67.1237 19.2643 67.5273 20.6315 67.5273 22.207C67.5273 24.7331 66.668 26.7318 64.9492 28.2031C63.2305 29.6615 60.8932 30.3906 57.9375 30.3906C54.9818 30.3906 52.638 29.6549 50.9062 28.1836C49.1745 26.7122 48.3086 24.7201 48.3086 22.207C48.3086 20.6315 48.7122 19.2578 49.5195 18.0859C50.3268 16.9141 51.4141 16.0026 52.7812 15.3516C51.5703 14.7135 50.6198 13.8607 49.9297 12.793C49.2526 11.7253 48.9141 10.5013 48.9141 9.12109C48.9141 6.69922 49.7214 4.77214 51.3359 3.33984C52.9505 1.89453 55.1445 1.17188 57.918 1.17188C60.6784 1.17188 62.8659 1.88802 64.4805 3.32031C66.1081 4.73958 66.9219 6.67318 66.9219 9.12109ZM61.8633 21.7969C61.8633 20.5599 61.5052 19.5703 60.7891 18.8281C60.0729 18.0859 59.1094 17.7148 57.8984 17.7148C56.7005 17.7148 55.7435 18.0859 55.0273 18.8281C54.3112 19.5573 53.9531 20.5469 53.9531 21.7969C53.9531 23.0078 54.3047 23.9844 55.0078 24.7266C55.7109 25.4688 56.6875 25.8398 57.9375 25.8398C59.1615 25.8398 60.1185 25.4818 60.8086 24.7656C61.5117 24.0495 61.8633 23.0599 61.8633 21.7969ZM61.2773 9.39453C61.2773 8.28776 60.9844 7.40234 60.3984 6.73828C59.8125 6.0612 58.9857 5.72266 57.918 5.72266C56.8633 5.72266 56.043 6.04818 55.457 6.69922C54.8711 7.35026 54.5781 8.2487 54.5781 9.39453C54.5781 10.5273 54.8711 11.4388 55.457 12.1289C56.043 12.819 56.8698 13.1641 57.9375 13.1641C59.0052 13.1641 59.8255 12.819 60.3984 12.1289C60.9844 11.4388 61.2773 10.5273 61.2773 9.39453Z" fill="black"/>
</svg>
