<svg width="40" height="24" viewBox="0 0 40 24" fill="none" xmlns="http://www.w3.org/2000/svg">
<g clip-path="url(#clip0)">
<path d="M11.7604 10.1799V16.0571H9.69783V8.66982L13.9557 8.67348C15.7642 8.67348 16.3802 9.83042 16.3802 10.8813V16.0571H14.3216V10.891C14.3216 10.4508 14.0704 10.1799 13.4645 10.1799H11.7604ZM25.7841 10.0917C25.0791 10.0917 24.5336 10.4204 24.3058 10.8667C24.1706 11.1346 24.1243 11.3399 24.1084 11.668H27.2813C27.2405 10.8667 26.84 10.0917 25.7841 10.0917ZM24.1084 12.9413C24.1084 13.8982 24.7641 14.6025 25.935 14.6025C26.8459 14.6025 27.2987 14.3735 27.8253 13.8982L29.0991 15.0015C28.2835 15.7318 27.4276 16.1755 25.9198 16.1755C23.9455 16.1755 22.0563 15.199 22.0563 12.3529C22.0563 9.92128 23.7058 8.54452 25.8734 8.54452C28.0706 8.54452 29.3399 10.1563 29.3399 12.2674V12.9413H24.1084ZM20.3154 16.0478C18.6352 16.0478 17.9223 14.9868 17.9223 13.939V6.65701H19.9815V8.6697H21.5338V10.1799H19.9815V13.8218C19.9815 14.251 20.205 14.4893 20.6961 14.4893H21.5338V16.0478H20.3154ZM7.86295 7.64894H5.78641V5.8595H7.86295V7.64894ZM7.8682 16.1347C6.31322 15.9992 5.78412 15.1435 5.78412 14.1562L5.78654 8.66982H7.8682V16.1347ZM32.6172 15.9768C31.0655 15.8411 30.5389 14.9868 30.5389 14.0008V5.60498H32.6172V15.9768ZM39.8826 6.81834C37.9991 -1.51161 20.1745 -2.03897 8.68554 4.30577V5.00631C20.1628 -0.344424 36.4406 -0.312793 37.9237 7.35937C38.4198 9.89624 36.844 12.5412 34.0295 14.0615V16.0505C37.4171 14.9263 40.8912 11.2807 39.8826 6.81822V6.81834ZM18.9981 21.3922C11.0688 22.0572 2.80609 21.0131 1.64988 15.3923C1.08389 12.6216 2.47543 9.68435 4.32135 7.85986V6.88429C0.998128 9.52766 -0.80525 12.8741 0.233022 16.8284C1.55819 21.899 8.64973 24.7726 19.4739 23.8183C23.7565 23.4392 29.3617 22.1899 33.2586 20.2496V17.4933C29.7227 19.4034 23.8714 20.9829 18.9981 21.3922Z" fill="#737373"/>
<path d="M35.0197 6.16238C35.0197 6.07103 34.9609 6.04196 34.8264 6.04196H34.6964V6.30063C34.7153 6.30063 34.8097 6.30381 34.8264 6.30381C34.9609 6.30381 35.0197 6.26301 35.0197 6.17752V6.16238ZM35.2222 6.80393H35.0683C35.0616 6.80379 35.0551 6.80198 35.0494 6.79871C35.0438 6.79544 35.0392 6.79082 35.0363 6.78536L34.8262 6.46257C34.8226 6.45598 34.8044 6.44816 34.7973 6.44816H34.703V6.76826C34.703 6.78536 34.69 6.80393 34.6652 6.80393H34.526C34.5085 6.80393 34.4913 6.78536 34.4913 6.76826V5.95842C34.4913 5.91153 34.5113 5.89198 34.5549 5.88588C34.6041 5.88002 34.7376 5.87611 34.8097 5.87611C35.0653 5.87611 35.22 5.9445 35.22 6.16238V6.17752C35.22 6.31235 35.146 6.38356 35.0313 6.41836L35.249 6.75226C35.2503 6.7591 35.2554 6.76826 35.2554 6.7762C35.2554 6.78927 35.2468 6.80393 35.2222 6.80393ZM34.8568 5.72992C34.4781 5.72992 34.1718 6.0135 34.1718 6.35522C34.1719 6.51996 34.2442 6.67792 34.3726 6.79438C34.501 6.91085 34.6752 6.97631 34.8568 6.97637C35.2336 6.97637 35.5429 6.69718 35.5429 6.3551C35.5429 6.0135 35.2336 5.7298 34.8568 5.7298V5.72992ZM34.8568 7.1051C34.7481 7.10529 34.6405 7.08603 34.5401 7.04842C34.4397 7.01081 34.3484 6.95559 34.2716 6.88593C34.1947 6.81627 34.1338 6.73353 34.0922 6.64246C34.0507 6.55139 34.0294 6.45378 34.0295 6.35522C34.0294 6.25665 34.0507 6.15902 34.0922 6.06793C34.1338 5.97684 34.1947 5.89408 34.2716 5.82438C34.3484 5.75468 34.4397 5.69941 34.5401 5.66175C34.6405 5.62408 34.7481 5.60475 34.8568 5.60486C35.312 5.60486 35.6861 5.94267 35.6861 6.3551C35.6861 6.76826 35.312 7.1051 34.8568 7.1051Z" fill="#737373"/>
</g>
<defs>
<clipPath id="clip0">
<rect width="40" height="24" fill="white"/>
</clipPath>
</defs>
</svg>
