<svg width="95" height="24" viewBox="0 0 95 24" fill="none" xmlns="http://www.w3.org/2000/svg">
<path d="M92 18.489V20.8135H91.7313V19.0221H91.7143L91.2687 20.8135H91.0373L90.5951 19.0221V20.8135H90.3229V18.489H90.7278L91.1734 20.31L91.5951 18.489H92ZM90.1495 18.489V18.8245H89.629V20.8132H89.3602V18.8245H88.84V18.489H90.1495ZM83.421 15.0196C83.8256 13.1195 83.8256 11.9994 83.438 11.2689C83.1487 10.7655 82.7269 10.5139 82.0875 10.5139C80.6622 10.5139 79.8729 11.6884 79.2367 14.6296C78.8286 16.5592 78.8286 17.6793 79.2163 18.4051C79.485 18.8836 79.9305 19.1354 80.5668 19.1354C81.9717 19.1354 82.7847 17.9856 83.421 15.0196ZM88.9929 10.7655C89.5507 11.7773 89.6699 13.0605 89.3399 14.6298C88.4146 18.9677 84.9245 21.4549 79.7537 21.4549C76.6684 21.4549 74.5696 20.5864 73.6408 18.9084C73.083 17.9018 72.9877 16.5889 73.3143 15.0196C74.2395 10.6817 77.7297 8.19449 82.9003 8.19449C85.9653 8.19449 88.088 9.08774 88.9929 10.7655H88.9929ZM69.7084 8.61378H75.1852C74.8553 9.25548 68.8988 20.8676 68.8002 21.0651H60.3944C60.3536 20.6999 59.3502 9.06296 59.3127 8.61378H64.4631C64.5003 8.97903 65.2148 17.3441 65.2148 17.3441C65.2148 17.3441 69.6301 8.78165 69.7084 8.61378ZM52.7167 15.0196C53.1215 13.1195 53.142 11.9994 52.737 11.2689C52.4649 10.7655 52.0229 10.5139 51.407 10.5139C49.9784 10.5139 49.1687 11.6884 48.5528 14.6296C48.1277 16.5592 48.1277 17.6793 48.5324 18.4051C48.8012 18.8836 49.2468 19.1354 49.8625 19.1354C51.2913 19.1354 52.101 17.9856 52.7167 15.0196ZM58.3091 10.7655C58.8704 11.7773 58.9862 13.0605 58.6391 14.6298C57.7139 18.9677 54.2203 21.4549 49.0734 21.4549C45.9881 21.4549 43.8858 20.5864 42.9571 18.9084C42.3993 17.9018 42.2836 16.5889 42.6102 15.0196C43.5559 10.6817 47.046 8.19449 52.1962 8.19449C55.2815 8.19449 57.3839 9.08774 58.3091 10.7655ZM42.1883 10.1538C42.3992 10.5437 42.5149 10.9334 42.457 11.496L40.3173 21.0899H34.6467L36.6538 12.1378C36.7286 11.7479 36.6334 11.4123 36.4803 11.1607C36.2081 10.682 35.6299 10.376 33.6433 10.5733C33.6433 10.5733 31.2928 20.9518 31.2518 21.0899H25.5845C25.639 20.8678 28.2447 9.31488 28.2821 9.20131C30.2518 8.69796 32.854 8.22412 35.555 8.22412C39.2185 8.22425 41.4535 8.86582 42.1883 10.1538ZM21.4955 12.7843C21.6112 11.9996 21.4378 11.4123 21.2437 11.0767C21.0329 10.682 20.5668 10.1785 19.6042 10.1785C18.2367 10.1785 17.2127 11.131 16.8657 12.725L16.1921 16.3918L21.4955 12.7843ZM26.2579 12.7545C26.2579 13.3418 26.1627 13.8453 26.0845 14.0673C25.911 14.1266 16.0188 17.3147 16.0188 17.3147C16.0188 17.3147 15.92 18.0155 16.2875 18.3805C16.7706 18.884 17.291 19.0222 18.1755 19.0765C20.356 19.2147 23.3085 17.369 24.1354 16.8408C24.0027 17.4528 23.1522 20.1425 23.1148 20.2806C22.7473 20.478 20.7029 21.4255 16.6922 21.4552C15.1681 21.4848 12.4502 21.2035 11.3311 19.1603C10.7732 18.1538 10.6747 16.7274 11.059 14.936C11.9672 10.6572 15.3622 8.19473 20.3355 8.19473C23.1148 8.19473 24.9279 8.94976 25.7579 10.4303C26.0845 11.0471 26.2579 11.8317 26.2579 12.7545ZM6.95306 2.5437H12.566C12.4504 3.07183 8.67111 20.7542 8.60982 21.0651H3.00037C3.11591 20.5322 6.8952 2.84979 6.95306 2.5437Z" fill="#737373"/>
</svg>
