<svg width="78" height="32" viewBox="0 0 78 32" fill="none" xmlns="http://www.w3.org/2000/svg">
<g clip-path="url(#clip0)">
<path d="M30.7946 30.0875C30.7387 30.4018 30.5849 30.6614 30.3473 30.839C30.1097 31.0167 29.8301 31.1123 29.5086 31.0986C29.3129 31.0986 29.1452 31.044 29.0054 30.962C28.8656 30.88 28.7538 30.7434 28.6699 30.5794C28.586 30.4155 28.5441 30.2242 28.5301 30.0192C28.5301 29.9099 28.5301 29.7869 28.5441 29.6776L28.586 29.418C28.6559 28.9535 28.8237 28.5982 29.0892 28.325C29.3548 28.0517 29.6763 27.9287 30.0538 27.9287C30.3473 27.9287 30.5849 28.0244 30.7527 28.202C30.9204 28.3796 31.0183 28.6392 31.0323 28.9535H30.6129C30.5989 28.5162 30.4172 28.284 30.0957 28.2566H30.0258C29.7602 28.243 29.5226 28.3523 29.3409 28.5572C29.1591 28.7622 29.0473 29.0355 28.9914 29.3907L28.9495 29.705L28.9355 29.8963C28.9215 30.1559 28.9774 30.3608 29.0753 30.5111C29.1731 30.6614 29.3269 30.7434 29.5366 30.7434C29.7602 30.7571 29.9419 30.7024 30.0817 30.5931C30.2215 30.4838 30.3333 30.3062 30.4032 30.0602L30.7946 30.0875Z" fill="black"/>
<path d="M31.885 29.0627C32.0946 28.8441 32.3183 28.7348 32.5979 28.7485C32.8215 28.7485 32.9753 28.8304 33.0871 28.9671C33.1989 29.1174 33.2269 29.3087 33.1989 29.5683L32.9473 31.0713H32.5559L32.8075 29.5683C32.8215 29.5 32.8215 29.4316 32.8075 29.377C32.7796 29.1857 32.6677 29.0764 32.4441 29.0764C32.2065 29.0764 31.9968 29.1994 31.829 29.4453L31.5355 31.0713H31.1441L31.7172 27.833H32.1086L31.885 29.0627Z" fill="black"/>
<path d="M35.0161 30.8386C34.8344 31.0299 34.5968 31.1119 34.3172 31.1119C34.0936 31.1119 33.9258 31.0299 33.828 30.8796C33.7161 30.7293 33.6742 30.5243 33.7022 30.2647L33.9538 28.7891H34.3452L34.0936 30.2784C34.0796 30.3467 34.0796 30.4014 34.0936 30.456C34.1075 30.5517 34.1355 30.6336 34.1914 30.6883C34.2473 30.7429 34.3172 30.7703 34.4151 30.7839C34.6946 30.7976 34.9043 30.6883 35.0581 30.456L35.3516 28.7891H35.743L35.3376 31.0709H34.9742L35.0161 30.8386Z" fill="black"/>
<path d="M36.7634 30.497L37.6021 28.7891H38.0355L36.6516 31.4534C36.4559 31.8224 36.2043 32.0137 35.9107 32C35.8548 32 35.7849 31.9863 35.6731 31.959L35.7011 31.6447L35.7989 31.6584C35.9247 31.6584 36.0366 31.6311 36.1204 31.5764C36.2043 31.5218 36.2882 31.4261 36.3581 31.2895L36.4978 31.0299L36.0925 28.7891H36.4978L36.7634 30.497Z" fill="black"/>
<path d="M38.958 31.1123C38.6645 31.1123 38.4408 31.0029 38.2731 30.798C38.1054 30.593 38.0355 30.3334 38.0634 30.0192L38.0774 29.9235C38.1054 29.6912 38.1753 29.4863 38.2871 29.3087C38.3989 29.1174 38.5387 28.9807 38.7064 28.8851C38.8742 28.7895 39.0419 28.7485 39.2376 28.7485C39.4752 28.7485 39.6709 28.8304 39.7968 28.9807C39.9365 29.131 40.0064 29.336 40.0204 29.5956C40.0204 29.6913 40.0204 29.7732 40.0064 29.8689L39.9785 30.0465H38.4548C38.4269 30.2515 38.4688 30.4291 38.5527 30.5794C38.6505 30.7297 38.7903 30.798 38.986 30.8117C39.2097 30.8117 39.4333 30.716 39.629 30.5111L39.8527 30.7024C39.7548 30.839 39.629 30.9483 39.4752 31.0303C39.3215 31.0849 39.1537 31.1123 38.958 31.1123ZM39.2097 29.0627C39.0419 29.0627 38.9021 29.1174 38.7903 29.2267C38.6785 29.336 38.5806 29.5 38.5107 29.7186H39.643L39.657 29.6912C39.6849 29.5136 39.657 29.3633 39.5731 29.254C39.4892 29.1447 39.3634 29.0627 39.2097 29.0627ZM39.9226 28.4069V28.4342H39.6011L39.3634 28.079L38.986 28.4342H38.6505V28.4069L39.2516 27.833H39.4752L39.9226 28.4069Z" fill="black"/>
<path d="M41.0129 28.7891L40.957 29.076C41.1667 28.8574 41.4043 28.7344 41.6699 28.7481C41.8935 28.7481 42.0473 28.8301 42.1591 28.9667C42.271 29.117 42.2989 29.3083 42.271 29.5679L42.0193 31.0709H41.6279L41.8796 29.5679C41.8935 29.4996 41.8935 29.4313 41.8796 29.3766C41.8516 29.1853 41.7398 29.076 41.5161 29.076C41.2785 29.076 41.0688 29.199 40.9011 29.4449L40.6075 31.0709H40.2161L40.6215 28.7891H41.0129Z" fill="black"/>
<path d="M44.2419 30.7434H45.6957L45.6398 31.0714H43.7806L44.3258 27.9971H44.7312L44.2419 30.7434Z" fill="black"/>
<path d="M47.4849 31.0708C47.471 31.0298 47.471 30.9888 47.471 30.9479V30.8249C47.2613 31.0162 47.0237 31.1118 46.786 31.1118C46.5763 31.1118 46.4086 31.0435 46.2828 30.9205C46.157 30.7976 46.1011 30.6336 46.1011 30.456C46.1151 30.21 46.2269 30.0187 46.4226 29.8821C46.6183 29.7455 46.8978 29.6771 47.2193 29.6771H47.6247L47.6527 29.4995C47.6667 29.3629 47.6387 29.2536 47.5688 29.1716C47.4989 29.0896 47.4011 29.0486 47.2613 29.0486C47.1215 29.0486 47.0097 29.076 46.9118 29.1443C46.814 29.2126 46.7441 29.2946 46.7161 29.4039H46.3247C46.3387 29.2672 46.3946 29.1579 46.4785 29.0486C46.5763 28.9393 46.6882 28.871 46.8419 28.8027C46.9957 28.748 47.1355 28.7207 47.3032 28.7207C47.5409 28.7207 47.7366 28.8027 47.8763 28.9393C48.0161 29.076 48.072 29.2672 48.0441 29.4859L47.8484 30.6199L47.8344 30.7839C47.8344 30.8659 47.8344 30.9342 47.8624 31.0162V31.0572H47.4849V31.0708ZM46.8699 30.7702C46.9957 30.7702 47.1075 30.7429 47.2193 30.6883C47.3312 30.6336 47.429 30.538 47.5129 30.4286L47.5968 29.9641H47.3032C47.0516 29.9641 46.8699 30.0051 46.7441 30.0734C46.6183 30.1417 46.5344 30.251 46.5204 30.4013C46.5064 30.5106 46.5344 30.5926 46.5903 30.6746C46.6462 30.7292 46.7441 30.7702 46.8699 30.7702Z" fill="black"/>
<path d="M50.5183 29.9368C50.4903 30.1691 50.4204 30.374 50.3226 30.5653C50.2247 30.7566 50.0989 30.8932 49.9591 30.9889C49.8054 31.0845 49.6516 31.1255 49.4699 31.1255C49.2043 31.1255 48.9946 31.0299 48.8409 30.8522L48.6312 31.959H48.2398L48.7989 28.789H49.1484L49.1064 29.0486C49.3021 28.8437 49.5258 28.748 49.8054 28.748C50.029 28.748 50.2108 28.83 50.3366 28.994C50.4624 29.1443 50.5323 29.3629 50.5323 29.6362C50.5323 29.7318 50.5323 29.8138 50.5183 29.8958V29.9368ZM50.1409 29.8958L50.1548 29.7182C50.1548 29.5132 50.1129 29.3492 50.029 29.2399C49.9452 29.1306 49.8333 29.076 49.6796 29.0623C49.4559 29.0623 49.2602 29.158 49.0925 29.3766L48.8968 30.4697C48.9806 30.6746 49.1484 30.7702 49.372 30.7839C49.5677 30.7839 49.7355 30.7156 49.8613 30.5653C50.0011 30.415 50.0989 30.1964 50.1409 29.8958Z" fill="black"/>
<path d="M51.8742 28.2295L51.7763 28.776H52.1957L52.1398 29.0766H51.7204L51.4828 30.4976C51.4828 30.5386 51.4828 30.5659 51.4828 30.5933C51.4968 30.7026 51.5527 30.7572 51.6645 30.7572C51.7064 30.7572 51.7763 30.7436 51.8602 30.7299L51.8322 31.0442C51.7344 31.0715 51.6365 31.0852 51.5527 31.0852C51.3989 31.0852 51.2871 31.0305 51.2032 30.9212C51.1193 30.8119 51.0914 30.6616 51.1193 30.484L51.357 29.063H50.9376L50.9935 28.7624H51.4129L51.5107 28.2158H51.8742V28.2295Z" fill="black"/>
<path d="M53.5097 28.7482C53.7054 28.7482 53.8731 28.8028 54.0129 28.8985C54.1527 28.9941 54.2505 29.1444 54.3204 29.322C54.3903 29.4997 54.4043 29.6909 54.3903 29.9096V29.9506C54.3624 30.1692 54.2925 30.3741 54.1806 30.5517C54.0688 30.7294 53.929 30.866 53.7613 30.9753C53.5935 31.0846 53.3978 31.1256 53.2022 31.112C53.0065 31.112 52.8387 31.0573 52.6989 30.9617C52.5591 30.866 52.4613 30.7157 52.3914 30.5517C52.3215 30.3741 52.3075 30.1828 52.3215 29.9779C52.3495 29.7456 52.4054 29.527 52.5172 29.3357C52.629 29.1444 52.7688 28.9941 52.9366 28.8985C53.1183 28.7891 53.314 28.7345 53.5097 28.7482ZM52.7269 29.9642C52.7129 30.0462 52.7129 30.1418 52.7269 30.2375C52.7409 30.4014 52.7968 30.5381 52.8806 30.6337C52.9645 30.7294 53.0903 30.784 53.2301 30.784C53.3559 30.784 53.4817 30.7567 53.5935 30.6884C53.7054 30.6201 53.7892 30.5244 53.8731 30.3878C53.943 30.2511 53.9989 30.1009 54.0129 29.9369C54.0269 29.8139 54.0269 29.7046 54.0129 29.609C53.9989 29.445 53.943 29.3084 53.8591 29.1991C53.7753 29.1034 53.6495 29.0488 53.5097 29.0488C53.314 29.0488 53.1323 29.1171 52.9925 29.281C52.8527 29.445 52.7688 29.65 52.7269 29.9096V29.9642Z" fill="black"/>
<path d="M56.8086 29.9368C56.7806 30.1691 56.7107 30.374 56.6129 30.5653C56.515 30.7566 56.3892 30.8932 56.2495 30.9889C56.0957 31.0845 55.9419 31.1255 55.7602 31.1255C55.4946 31.1255 55.2849 31.0299 55.1312 30.8522L54.9215 31.959H54.5301L55.0892 28.789H55.4387L55.3968 29.0486C55.5925 28.8437 55.8161 28.748 56.0957 28.748C56.3193 28.748 56.5011 28.83 56.6269 28.994C56.7527 29.1443 56.8226 29.3629 56.8226 29.6362C56.8226 29.7318 56.8226 29.8138 56.8086 29.8958V29.9368ZM56.4172 29.8958L56.4312 29.7182C56.4312 29.5132 56.3892 29.3492 56.3054 29.2399C56.2215 29.1306 56.1097 29.076 55.9559 29.0623C55.7323 29.0623 55.5366 29.158 55.3688 29.3766L55.1731 30.4697C55.257 30.6746 55.4247 30.7702 55.6484 30.7839C55.8441 30.7839 56.0118 30.7156 56.1376 30.5653C56.2914 30.415 56.3753 30.1964 56.4172 29.8958Z" fill="black"/>
<path d="M58.9753 28.7891L58.9194 29.076C59.129 28.8574 59.3667 28.7344 59.6323 28.7481C59.8559 28.7481 60.0097 28.8301 60.1215 28.9667C60.2333 29.117 60.2613 29.3083 60.2333 29.5679L59.9817 31.0709H59.5903L59.8419 29.5679C59.8559 29.4996 59.8559 29.4313 59.8419 29.3766C59.814 29.1853 59.7021 29.076 59.4785 29.076C59.2409 29.076 59.0312 29.199 58.8634 29.4449L58.5699 31.0709H58.1785L58.5839 28.7891H58.9753Z" fill="black"/>
<path d="M61.3237 29.0627C61.5333 28.8441 61.757 28.7348 62.0366 28.7485C62.2602 28.7485 62.414 28.8304 62.5258 28.9671C62.6376 29.1174 62.6656 29.3087 62.6376 29.5683L62.386 31.0713H61.9946L62.2462 29.5683C62.2602 29.5 62.2602 29.4316 62.2462 29.377C62.2183 29.1857 62.1065 29.0764 61.8828 29.0764C61.6452 29.0764 61.4355 29.1994 61.2677 29.4453L60.9742 31.0713H60.5828L61.1559 27.833H61.5473L61.3237 29.0627Z" fill="black"/>
<path d="M64.4129 31.0713C64.3989 31.0303 64.3989 30.9893 64.3989 30.9483V30.8253C64.1892 31.0166 63.9516 31.1123 63.714 31.1123C63.5043 31.1123 63.3365 31.0439 63.2107 30.921C63.0849 30.798 63.029 30.634 63.029 30.4564C63.043 30.2105 63.1548 30.0192 63.3505 29.8825C63.5462 29.7459 63.8258 29.6776 64.1473 29.6776H64.5527L64.5806 29.5C64.5946 29.3633 64.5666 29.254 64.4968 29.172C64.4269 29.0901 64.329 29.0491 64.1892 29.0491C64.0494 29.0491 63.9376 29.0764 63.8398 29.1447C63.7419 29.213 63.672 29.295 63.6441 29.4043H63.2527C63.2667 29.2677 63.3226 29.1584 63.4064 29.0491C63.5043 28.9398 63.6161 28.8714 63.7699 28.8031C63.9236 28.7485 64.0634 28.7211 64.2312 28.7211C64.4688 28.7211 64.6645 28.8031 64.8043 28.9398C64.9441 29.0764 65 29.2677 64.972 29.4863L64.7763 30.6204L64.7623 30.7843C64.7623 30.8663 64.7623 30.9346 64.7903 31.0166V31.0576H64.4129V31.0713ZM63.4064 31.5905C63.4064 31.5222 63.4344 31.4675 63.4763 31.4265C63.5183 31.3855 63.5742 31.3582 63.6441 31.3582C63.714 31.3582 63.7699 31.3719 63.8118 31.4129C63.8537 31.4538 63.8817 31.5085 63.8817 31.5768C63.8817 31.6451 63.8537 31.6998 63.8118 31.7408C63.7699 31.7818 63.714 31.8091 63.6441 31.8091C63.5742 31.8091 63.5322 31.7954 63.4763 31.7544C63.4204 31.7135 63.4064 31.6588 63.4064 31.5905ZM63.7978 30.7707C63.9236 30.7707 64.0355 30.7433 64.1473 30.6887C64.2591 30.634 64.357 30.5384 64.4408 30.4291L64.5247 29.9645H64.2312C63.9796 29.9645 63.7978 30.0055 63.672 30.0738C63.5462 30.1421 63.4624 30.2515 63.4484 30.4018C63.4344 30.5111 63.4624 30.593 63.5183 30.675C63.5742 30.7297 63.672 30.7707 63.7978 30.7707ZM65.014 28.4069V28.4342H64.6925L64.4548 28.079L64.0774 28.4342H63.7419V28.4069L64.343 27.833H64.5666L65.014 28.4069Z" fill="black"/>
<path d="M67.4602 29.9368C67.4323 30.1691 67.3624 30.374 67.2645 30.5653C67.1667 30.7566 67.0409 30.8932 66.9011 30.9889C66.7473 31.0845 66.5935 31.1255 66.4118 31.1255C66.1462 31.1255 65.9366 31.0299 65.7828 30.8522L65.5731 31.959H65.1817L65.7409 28.789H66.0903L66.0484 29.0486C66.2441 28.8437 66.4677 28.748 66.7473 28.748C66.971 28.748 67.1527 28.83 67.2785 28.994C67.4043 29.1443 67.4742 29.3629 67.4742 29.6362C67.4742 29.7318 67.4742 29.8138 67.4602 29.8958V29.9368ZM67.0688 29.8958L67.0828 29.7182C67.0828 29.5132 67.0409 29.3492 66.957 29.2399C66.8731 29.1306 66.7613 29.076 66.6075 29.0623C66.3839 29.0623 66.1882 29.158 66.0204 29.3766L65.8247 30.4697C65.9086 30.6746 66.0763 30.7702 66.3 30.7839C66.4957 30.7839 66.6634 30.7156 66.7892 30.5653C66.943 30.415 67.0269 30.1964 67.0688 29.8958Z" fill="black"/>
<path d="M69.6968 30.0192L69.3892 30.2925L69.2495 31.0849H68.8581L69.4312 27.8467H69.8226L69.4731 29.7869L69.7108 29.5546L70.5355 28.8168H71.0387L69.9624 29.7869L70.7032 31.0986H70.2699L69.6968 30.0192Z" fill="black"/>
<path d="M71.7796 29.0627C71.9892 28.8441 72.2129 28.7348 72.4925 28.7485C72.7161 28.7485 72.8699 28.8304 72.9817 28.9671C73.0935 29.1174 73.1215 29.3087 73.0935 29.5683L72.8419 31.0713H72.4505L72.7021 29.5683C72.7161 29.5 72.7161 29.4316 72.7021 29.377C72.6742 29.1857 72.5624 29.0764 72.3387 29.0764C72.1011 29.0764 71.8914 29.1994 71.7236 29.4453L71.4301 31.0713H71.0387L71.6118 27.833H72.0032L71.7796 29.0627Z" fill="black"/>
<path d="M74.8688 31.071C74.8548 31.03 74.8548 30.9891 74.8548 30.9481V30.8251C74.6452 31.0164 74.4075 31.112 74.1699 31.112C73.9602 31.112 73.7925 31.0437 73.6667 30.9207C73.5409 30.7978 73.4849 30.6338 73.4849 30.4562C73.4989 30.2102 73.6107 30.0189 73.8064 29.8823C74.0021 29.7457 74.2817 29.6774 74.6032 29.6774H75.0086L75.0366 29.4997C75.0505 29.3631 75.0226 29.2538 74.9527 29.1718C74.8828 29.0898 74.7849 29.0488 74.6452 29.0488C74.5054 29.0488 74.3935 29.0762 74.2957 29.1445C74.1978 29.2128 74.1279 29.2948 74.1 29.4041H73.7086C73.7226 29.2674 73.7785 29.1581 73.8624 29.0488C73.9602 28.9395 74.072 28.8712 74.2258 28.8029C74.3796 28.7482 74.5194 28.7209 74.6871 28.7209C74.9247 28.7209 75.1204 28.8029 75.2602 28.9395C75.4 29.0762 75.4559 29.2674 75.428 29.4861L75.2323 30.6201L75.2183 30.7841C75.2183 30.8661 75.2183 30.9344 75.2462 31.0164V31.0574H74.8688V31.071ZM74.2538 30.7704C74.3796 30.7704 74.4914 30.7431 74.6032 30.6885C74.7151 30.6338 74.8129 30.5382 74.8968 30.4289L74.9807 29.9643H74.6871C74.4355 29.9643 74.2538 30.0053 74.128 30.0736C74.0021 30.1419 73.9183 30.2512 73.9043 30.4015C73.8903 30.5108 73.9183 30.5928 73.9742 30.6748C74.0301 30.7294 74.128 30.7704 74.2538 30.7704ZM75.5677 28.475H75.2462L74.8968 28.0787L74.4215 28.4613H74.0301L74.7011 27.9148H75.0925L75.5677 28.475ZM75.4559 28.188L75.4979 27.9148L75.5957 27.9011C75.7215 27.8874 75.7914 27.8464 75.7914 27.7645C75.8054 27.6961 75.7355 27.6551 75.5957 27.6415H75.5258L75.5538 27.4502C75.7215 27.4639 75.8473 27.4912 75.9312 27.5458C76.0151 27.6005 76.057 27.6825 76.043 27.7781C76.043 27.8601 76.0151 27.9148 75.9592 27.9694C75.9032 28.0241 75.8333 28.0514 75.7215 28.0787L75.6936 28.2017L75.4559 28.188Z" fill="black"/>
<path d="M77.2731 30.8386C77.0914 31.0299 76.8538 31.1119 76.5742 31.1119C76.3505 31.1119 76.1828 31.0299 76.0849 30.8796C75.9731 30.7293 75.9312 30.5243 75.9591 30.2647L76.2107 28.7891H76.6021L76.3505 30.2784C76.3366 30.3467 76.3366 30.4014 76.3505 30.456C76.3645 30.5517 76.3925 30.6336 76.4484 30.6883C76.5043 30.7429 76.5742 30.7703 76.672 30.7839C76.9516 30.7976 77.1613 30.6883 77.315 30.456L77.6086 28.7891H78L77.5946 31.0709H77.2312L77.2731 30.8386Z" fill="black"/>
<path d="M0.629028 4.67285H5.7172C8.91828 4.67285 10.5118 6.32614 10.5118 9.63271V19.7574C10.5118 23.0503 8.91828 24.7036 5.7172 24.7036H0.629028V4.67285ZM3.84408 7.54219V21.8342H5.66129C6.75161 21.8342 7.29677 21.1921 7.29677 19.894V9.48241C7.29677 8.18438 6.75161 7.54219 5.66129 7.54219H3.84408Z" fill="#303030"/>
<path d="M16.4946 4.67285V20.1126C16.4946 21.4107 17.0538 22.0665 18.172 22.0665C19.2903 22.0665 19.8495 21.4107 19.8495 20.1126V4.67285H22.8968V19.9214C22.8968 23.2689 21.3032 24.9495 18.1022 24.9495C14.9011 24.9495 13.3075 23.2689 13.3075 19.9214V4.67285H16.4946Z" fill="#303030"/>
<path d="M35.2817 17.2295V19.8939C35.2817 23.2415 33.6882 24.9221 30.4871 24.9221C27.286 24.9221 25.6925 23.2415 25.6925 19.8939V9.48228C25.6925 6.13472 27.286 4.4541 30.4871 4.4541C33.6882 4.4541 35.2817 6.13472 35.2817 9.48228V11.4362H32.2344V9.29099C32.2344 7.97929 31.6753 7.32344 30.557 7.32344C29.4387 7.32344 28.8796 7.97929 28.8796 9.29099V20.0852C28.8796 21.3832 29.4387 22.0391 30.557 22.0391C31.6753 22.0391 32.2344 21.3832 32.2344 20.0852V17.2295H35.2817Z" fill="#303030"/>
<path d="M42.9559 21.0144L45.4161 4.68651H48.3656L45.2064 24.7036H40.4118L37.2667 4.67285H40.5097L42.9559 21.0144Z" fill="#303030"/>
<path d="M50.728 4.67285H53.943V24.6899H50.728V4.67285Z" fill="#303030"/>
<path d="M60.3731 13.1306H64.8043V15.9726H60.3731V21.8343H65.9226V24.6899H57.172V4.67285H65.9365V7.52853H60.3871V13.1306H60.3731Z" fill="#303030"/>
<path d="M67.9215 4.67285H77.8602V7.52853H74.5054V24.6899H71.2903V7.54219H67.9215V4.67285Z" fill="#303030"/>
<path d="M52.1258 3.14261C53.0136 3.14261 53.7333 2.43912 53.7333 1.57131C53.7333 0.703498 53.0136 0 52.1258 0C51.238 0 50.5183 0.703498 50.5183 1.57131C50.5183 2.43912 51.238 3.14261 52.1258 3.14261Z" fill="#CC0000"/>
<path d="M0 4.67285H5.08817C8.28925 4.67285 9.8828 6.32614 9.8828 9.63271V19.7574C9.8828 23.0503 8.28925 24.7036 5.08817 24.7036H0V4.67285ZM3.21505 7.54219V21.8342H5.03226C6.12258 21.8342 6.66774 21.1921 6.66774 19.894V9.48241C6.66774 8.18438 6.12258 7.54219 5.03226 7.54219H3.21505Z" fill="black"/>
<path d="M15.8656 4.67285V20.1126C15.8656 21.4107 16.4247 22.0665 17.543 22.0665C18.6613 22.0665 19.2204 21.4107 19.2204 20.1126V4.67285H22.2677V19.9214C22.2677 23.2689 20.6742 24.9495 17.4731 24.9495C14.272 24.9495 12.6785 23.2689 12.6785 19.9214V4.67285H15.8656Z" fill="black"/>
<path d="M34.6527 17.2295V19.8939C34.6527 23.2415 33.0591 24.9221 29.8581 24.9221C26.657 24.9221 25.0634 23.2415 25.0634 19.8939V9.48228C25.0634 6.13472 26.657 4.4541 29.8581 4.4541C33.0591 4.4541 34.6527 6.13472 34.6527 9.48228V11.4362H31.6054V9.29099C31.6054 7.97929 31.0462 7.32344 29.928 7.32344C28.8097 7.32344 28.2505 7.97929 28.2505 9.29099V20.0852C28.2505 21.3832 28.8097 22.0391 29.928 22.0391C31.0462 22.0391 31.6054 21.3832 31.6054 20.0852V17.2295H34.6527Z" fill="black"/>
<path d="M42.3269 21.0144L44.7871 4.68651H47.7366L44.5914 24.6899H39.7968L36.6376 4.67285H39.8806L42.3269 21.0144Z" fill="black"/>
<path d="M50.0989 4.67285H53.314V24.6899H50.0989V4.67285Z" fill="black"/>
<path d="M59.7441 13.1169H64.1753V15.9589H59.7441V21.8206H65.2936V24.6763H56.529V4.67285H65.2936V7.52853H59.7441V13.1169Z" fill="black"/>
<path d="M67.2924 4.67285H77.2312V7.52853H73.8763V24.6899H70.6613V7.54219H67.2924V4.67285Z" fill="black"/>
<path d="M51.6086 3.14261C52.4964 3.14261 53.2161 2.43912 53.2161 1.57131C53.2161 0.703498 52.4964 0 51.6086 0C50.7208 0 50.0011 0.703498 50.0011 1.57131C50.0011 2.43912 50.7208 3.14261 51.6086 3.14261Z" fill="#FF0000"/>
</g>
<defs>
<clipPath id="clip0">
<rect width="78" height="32" fill="white"/>
</clipPath>
</defs>
</svg>
