<svg width="128" height="54" viewBox="0 0 128 54" fill="none" xmlns="http://www.w3.org/2000/svg">
<g clip-path="url(#clip0)">
<path d="M50.5347 50.7719C50.443 51.3022 50.1906 51.7403 49.8007 52.04C49.4107 52.3398 48.9519 52.5012 48.4243 52.4781C48.1032 52.4781 47.8279 52.3859 47.5985 52.2475C47.3691 52.1092 47.1856 51.8786 47.048 51.6019C46.9104 51.3253 46.8415 51.0025 46.8186 50.6566C46.8186 50.4721 46.8186 50.2646 46.8415 50.0802L46.9104 49.6421C47.0251 48.8581 47.3003 48.2587 47.7362 47.7975C48.172 47.3364 48.6996 47.1288 49.319 47.1288C49.8007 47.1288 50.1906 47.2902 50.4659 47.59C50.7412 47.8897 50.9018 48.3278 50.9247 48.8581H50.2365C50.2136 48.1203 49.9154 47.7283 49.3878 47.6822H49.2731C48.8372 47.6592 48.4473 47.8436 48.1491 48.1895C47.8509 48.5353 47.6673 48.9965 47.5756 49.596L47.5068 50.1263L47.4838 50.4491C47.4609 50.8872 47.5527 51.233 47.7132 51.4867C47.8738 51.7403 48.1261 51.8786 48.4702 51.8786C48.8372 51.9017 49.1354 51.8095 49.3648 51.625C49.5942 51.4405 49.7777 51.1408 49.8924 50.7258L50.5347 50.7719Z" fill="white"/>
<path d="M52.324 49.0419C52.6681 48.673 53.0352 48.4886 53.4939 48.5116C53.861 48.5116 54.1133 48.65 54.2968 48.8805C54.4803 49.1342 54.5262 49.457 54.4803 49.8951L54.0674 52.4314H53.4251L53.838 49.8951C53.861 49.7798 53.861 49.6645 53.838 49.5723C53.7921 49.2495 53.6086 49.065 53.2416 49.065C52.8516 49.065 52.5076 49.2725 52.2323 49.6875L51.7506 52.4314H51.1083L52.0488 46.9668H52.6911L52.324 49.0419Z" fill="white"/>
<path d="M57.4624 52.0399C57.1642 52.3627 56.7742 52.501 56.3154 52.501C55.9484 52.501 55.6731 52.3627 55.5126 52.1091C55.3291 51.8554 55.2602 51.5096 55.3061 51.0715L55.719 48.5813H56.3613L55.9484 51.0945C55.9255 51.2098 55.9255 51.302 55.9484 51.3943C55.9714 51.5557 56.0172 51.694 56.109 51.7863C56.2007 51.8785 56.3154 51.9246 56.476 51.9477C56.9348 51.9707 57.2789 51.7862 57.5312 51.3943L58.0129 48.5813H58.6552L57.99 52.4318H57.3936L57.4624 52.0399Z" fill="white"/>
<path d="M60.3298 51.4635L61.7061 48.5813H62.4172L60.1463 53.0775C59.8251 53.7 59.4122 54.0228 58.9305 53.9998C58.8387 53.9998 58.724 53.9767 58.5405 53.9306L58.5864 53.4003L58.747 53.4233C58.9534 53.4233 59.1369 53.3772 59.2746 53.285C59.4122 53.1928 59.5499 53.0314 59.6645 52.8008L59.8939 52.3627L59.2287 48.5813H59.8939L60.3298 51.4635Z" fill="white"/>
<path d="M63.9312 52.5005C63.4495 52.5005 63.0824 52.3161 62.8072 51.9702C62.5319 51.6244 62.4172 51.1863 62.4631 50.6559L62.486 50.4945C62.5319 50.1026 62.6466 49.7567 62.8301 49.457C63.0136 49.1342 63.243 48.9036 63.5183 48.7422C63.7935 48.5808 64.0688 48.5116 64.39 48.5116C64.7799 48.5116 65.1011 48.65 65.3075 48.9036C65.5369 49.1572 65.6516 49.5031 65.6746 49.9412C65.6746 50.1026 65.6746 50.2409 65.6516 50.4023L65.6057 50.7021H63.1054C63.0595 51.0479 63.1283 51.3477 63.2659 51.6013C63.4265 51.8549 63.6559 51.9702 63.9771 51.9933C64.3441 51.9933 64.7111 51.8319 65.0323 51.486L65.3993 51.8088C65.2387 52.0394 65.0323 52.2238 64.7799 52.3622C64.5276 52.4544 64.2523 52.5005 63.9312 52.5005ZM64.3441 49.0419C64.0688 49.0419 63.8394 49.1342 63.6559 49.3186C63.4724 49.5031 63.3118 49.7798 63.1971 50.1487H65.0552L65.0781 50.1026C65.124 49.8028 65.0781 49.5492 64.9405 49.3647C64.8029 49.1803 64.5964 49.0419 64.3441 49.0419ZM65.514 47.9352V47.9813H64.9864L64.5964 47.3818L63.9771 47.9813H63.4265V47.9352L64.4129 46.9668H64.7799L65.514 47.9352Z" fill="white"/>
<path d="M67.3032 48.5809L67.2115 49.0651C67.5556 48.6961 67.9455 48.4886 68.3814 48.5117C68.7484 48.5117 69.0007 48.65 69.1842 48.8806C69.3678 49.1342 69.4136 49.457 69.3678 49.8951L68.9549 52.4314H68.3126L68.7255 49.8951C68.7484 49.7798 68.7484 49.6645 68.7255 49.5723C68.6796 49.2495 68.4961 49.0651 68.129 49.0651C67.7391 49.0651 67.395 49.2726 67.1197 49.6876L66.638 52.4314H65.9957L66.661 48.5809H67.3032Z" fill="white"/>
<path d="M72.6021 51.8785H74.9878L74.896 52.4319H71.8451L72.7397 47.244H73.405L72.6021 51.8785Z" fill="white"/>
<path d="M77.9241 52.432C77.9011 52.3628 77.9011 52.2936 77.9011 52.2245V52.0169C77.557 52.3397 77.1671 52.5011 76.7771 52.5011C76.433 52.5011 76.1577 52.3859 75.9513 52.1783C75.7448 51.9708 75.6531 51.6941 75.6531 51.3944C75.676 50.9794 75.8595 50.6566 76.1807 50.426C76.5018 50.1954 76.9606 50.0801 77.4882 50.0801H78.1534L78.1993 49.7804C78.2223 49.5498 78.1764 49.3654 78.0617 49.227C77.947 49.0887 77.7864 49.0195 77.557 49.0195C77.3276 49.0195 77.1441 49.0656 76.9835 49.1809C76.823 49.2962 76.7083 49.4345 76.6624 49.619H76.0201C76.043 49.3884 76.1348 49.204 76.2724 49.0195C76.433 48.835 76.6165 48.7198 76.8689 48.6045C77.1212 48.5122 77.3506 48.4661 77.6258 48.4661C78.0158 48.4661 78.337 48.6045 78.5663 48.835C78.7957 49.0656 78.8875 49.3884 78.8416 49.7573L78.5205 51.6711L78.4975 51.9478C78.4975 52.0861 78.4975 52.2014 78.5434 52.3397V52.4089H77.9241V52.432ZM76.9147 51.9247C77.1212 51.9247 77.3047 51.8786 77.4882 51.7864C77.6717 51.6941 77.8323 51.5327 77.9699 51.3483L78.1076 50.5643H77.6258C77.2129 50.5643 76.9147 50.6335 76.7083 50.7488C76.5018 50.8641 76.3642 51.0485 76.3412 51.3022C76.3183 51.4866 76.3642 51.625 76.4559 51.7633C76.5477 51.8555 76.7083 51.9247 76.9147 51.9247Z" fill="white"/>
<path d="M82.9018 50.518C82.8559 50.91 82.7412 51.2558 82.5806 51.5786C82.4201 51.9014 82.2136 52.132 81.9842 52.2934C81.7319 52.4548 81.4796 52.524 81.1814 52.524C80.7455 52.524 80.4014 52.3626 80.1491 52.0628L79.805 53.9305H79.1627L80.0803 48.5812H80.6538L80.5849 49.0193C80.9061 48.6734 81.2731 48.512 81.7319 48.512C82.0989 48.512 82.3971 48.6504 82.6036 48.9271C82.81 49.1807 82.9247 49.5496 82.9247 50.0107C82.9247 50.1721 82.9247 50.3105 82.9018 50.4488V50.518ZM82.2824 50.4488L82.3054 50.1491C82.3054 49.8032 82.2365 49.5265 82.0989 49.3421C81.9613 49.1576 81.7778 49.0654 81.5254 49.0423C81.1584 49.0423 80.8373 49.2037 80.562 49.5727L80.2409 51.4172C80.3785 51.7631 80.6538 51.9245 81.0208 51.9476C81.3419 51.9476 81.6172 51.8323 81.8236 51.5786C82.053 51.325 82.2136 50.9561 82.2824 50.4488Z" fill="white"/>
<path d="M85.1268 47.6361L84.9662 48.5584H85.6544L85.5626 49.0656H84.8744L84.4845 51.4636C84.4845 51.5328 84.4845 51.5789 84.4845 51.625C84.5074 51.8094 84.5992 51.9017 84.7827 51.9017C84.8515 51.9017 84.9662 51.8786 85.1038 51.8556L85.0579 52.3859C84.8974 52.432 84.7368 52.455 84.5992 52.455C84.3468 52.455 84.1633 52.3628 84.0257 52.1784C83.888 51.9939 83.8422 51.7403 83.8881 51.4405L84.278 49.0426H83.5898L83.6816 48.5353H84.3698L84.5303 47.613H85.1268V47.6361Z" fill="white"/>
<path d="M87.8107 48.5122C88.1319 48.5122 88.4071 48.6044 88.6365 48.7658C88.8659 48.9272 89.0265 49.1809 89.1412 49.4806C89.2559 49.7804 89.2788 50.1032 89.2559 50.4721V50.5412C89.21 50.9102 89.0953 51.256 88.9118 51.5558C88.7283 51.8555 88.4989 52.0861 88.2236 52.2705C87.9484 52.455 87.6272 52.5242 87.3061 52.5011C86.9849 52.5011 86.7096 52.4089 86.4803 52.2475C86.2509 52.0861 86.0903 51.8325 85.9756 51.5558C85.8609 51.256 85.838 50.9332 85.8609 50.5874C85.9068 50.1954 85.9985 49.8265 86.1821 49.5037C86.3656 49.1809 86.595 48.9272 86.8702 48.7658C87.1684 48.5814 87.4896 48.4892 87.8107 48.5122ZM86.5261 50.5643C86.5032 50.7027 86.5032 50.8641 86.5261 51.0255C86.5491 51.3021 86.6408 51.5327 86.7785 51.6941C86.9161 51.8555 87.1226 51.9477 87.3519 51.9477C87.5584 51.9477 87.7648 51.9016 87.9484 51.7863C88.1319 51.6711 88.2695 51.5097 88.4071 51.2791C88.5218 51.0485 88.6136 50.7949 88.6365 50.5182C88.6595 50.3107 88.6595 50.1262 88.6365 49.9648C88.6136 49.6881 88.5218 49.4576 88.3842 49.2731C88.2466 49.1117 88.0401 49.0195 87.8107 49.0195C87.4896 49.0195 87.1914 49.1348 86.962 49.4114C86.7326 49.6881 86.595 50.034 86.5261 50.4721V50.5643Z" fill="white"/>
<path d="M93.2243 50.518C93.1784 50.91 93.0637 51.2558 92.9032 51.5786C92.7426 51.9014 92.5361 52.132 92.3067 52.2934C92.0544 52.4548 91.8021 52.524 91.5039 52.524C91.068 52.524 90.7239 52.3626 90.4716 52.0628L90.1275 53.9305H89.4852L90.4028 48.5812H90.9763L90.9074 49.0193C91.2286 48.6734 91.5956 48.512 92.0544 48.512C92.4214 48.512 92.7196 48.6504 92.9261 48.9271C93.1325 49.1807 93.2472 49.5496 93.2472 50.0107C93.2472 50.1721 93.2472 50.3105 93.2243 50.4488V50.518ZM92.582 50.4488L92.6049 50.1491C92.6049 49.8032 92.5361 49.5265 92.3985 49.3421C92.2609 49.1576 92.0773 49.0654 91.825 49.0423C91.458 49.0423 91.1368 49.2037 90.8616 49.5727L90.5404 51.4172C90.6781 51.7631 90.9533 51.9245 91.3204 51.9476C91.6415 51.9476 91.9168 51.8323 92.1232 51.5786C92.3756 51.325 92.5132 50.9561 92.582 50.4488Z" fill="white"/>
<path d="M96.7798 48.5809L96.6881 49.0651C97.0321 48.6961 97.4221 48.4886 97.858 48.5117C98.225 48.5117 98.4773 48.65 98.6608 48.8806C98.8443 49.1342 98.8902 49.457 98.8443 49.8951L98.4314 52.4314H97.7891L98.202 49.8951C98.225 49.7798 98.225 49.6645 98.202 49.5723C98.1562 49.2495 97.9726 49.0651 97.6056 49.0651C97.2157 49.0651 96.8716 49.2726 96.5963 49.6876L96.1146 52.4314H95.4723L96.1375 48.5809H96.7798Z" fill="white"/>
<path d="M100.634 49.0419C100.978 48.673 101.345 48.4886 101.804 48.5116C102.171 48.5116 102.423 48.65 102.606 48.8805C102.79 49.1342 102.836 49.457 102.79 49.8951L102.377 52.4314H101.735L102.148 49.8951C102.171 49.7798 102.171 49.6645 102.148 49.5723C102.102 49.2495 101.918 49.065 101.551 49.065C101.161 49.065 100.817 49.2725 100.542 49.6875L100.06 52.4314H99.4178L100.358 46.9668H101.001L100.634 49.0419Z" fill="white"/>
<path d="M105.703 52.4314C105.68 52.3622 105.68 52.293 105.68 52.2238V52.0163C105.336 52.3391 104.946 52.5005 104.556 52.5005C104.212 52.5005 103.937 52.3852 103.73 52.1777C103.524 51.9702 103.432 51.6935 103.432 51.3938C103.455 50.9788 103.639 50.656 103.96 50.4254C104.281 50.1948 104.74 50.0795 105.267 50.0795H105.933L105.978 49.7798C106.001 49.5492 105.956 49.3647 105.841 49.2264C105.726 49.0881 105.566 49.0189 105.336 49.0189C105.107 49.0189 104.923 49.065 104.763 49.1803C104.602 49.2956 104.487 49.4339 104.442 49.6184H103.799C103.822 49.3878 103.914 49.2034 104.052 49.0189C104.212 48.8344 104.396 48.7191 104.648 48.6039C104.9 48.5116 105.13 48.4655 105.405 48.4655C105.795 48.4655 106.116 48.6039 106.346 48.8344C106.575 49.065 106.667 49.3878 106.621 49.7567L106.3 51.6705L106.277 51.9472C106.277 52.0855 106.277 52.2008 106.323 52.3391V52.4083H105.703V52.4314ZM104.052 53.3075C104.052 53.1922 104.097 53.1 104.166 53.0308C104.235 52.9617 104.327 52.9156 104.442 52.9156C104.556 52.9156 104.648 52.9386 104.717 53.0078C104.786 53.077 104.832 53.1692 104.832 53.2845C104.832 53.3998 104.786 53.492 104.717 53.5612C104.648 53.6303 104.556 53.6765 104.442 53.6765C104.327 53.6765 104.258 53.6534 104.166 53.5842C104.075 53.515 104.052 53.4228 104.052 53.3075ZM104.694 51.9241C104.9 51.9241 105.084 51.878 105.267 51.7858C105.451 51.6935 105.611 51.5321 105.749 51.3477L105.887 50.5637H105.405C104.992 50.5637 104.694 50.6329 104.487 50.7482C104.281 50.8635 104.143 51.0479 104.12 51.3016C104.097 51.486 104.143 51.6244 104.235 51.7627C104.327 51.8549 104.487 51.9241 104.694 51.9241ZM106.69 47.9352V47.9813H106.162L105.772 47.3818L105.153 47.9813H104.602V47.9352L105.589 46.9668H105.956L106.69 47.9352Z" fill="white"/>
<path d="M110.704 50.518C110.658 50.91 110.543 51.2558 110.383 51.5786C110.222 51.9014 110.016 52.132 109.786 52.2934C109.534 52.4548 109.282 52.524 108.983 52.524C108.548 52.524 108.204 52.3626 107.951 52.0628L107.607 53.9305H106.965L107.882 48.5812H108.456L108.387 49.0193C108.708 48.6734 109.075 48.512 109.534 48.512C109.901 48.512 110.199 48.6504 110.406 48.9271C110.612 49.1807 110.727 49.5496 110.727 50.0107C110.727 50.1721 110.727 50.3105 110.704 50.4488V50.518ZM110.062 50.4488L110.085 50.1491C110.085 49.8032 110.016 49.5265 109.878 49.3421C109.74 49.1576 109.557 49.0654 109.305 49.0423C108.938 49.0423 108.616 49.2037 108.341 49.5727L108.02 51.4172C108.158 51.7631 108.433 51.9245 108.8 51.9476C109.121 51.9476 109.396 51.8323 109.603 51.5786C109.855 51.325 109.993 50.9561 110.062 50.4488Z" fill="white"/>
<path d="M114.374 50.6563L113.869 51.1175L113.64 52.4548H112.998L113.938 46.9902H114.581L114.007 50.2644L114.397 49.8724L115.75 48.6273H116.576L114.81 50.2644L116.026 52.4779H115.315L114.374 50.6563Z" fill="white"/>
<path d="M117.792 49.0419C118.136 48.673 118.503 48.4886 118.962 48.5116C119.329 48.5116 119.581 48.65 119.765 48.8805C119.948 49.1342 119.994 49.457 119.948 49.8951L119.535 52.4314H118.893L119.306 49.8951C119.329 49.7798 119.329 49.6645 119.306 49.5723C119.26 49.2495 119.077 49.065 118.71 49.065C118.32 49.065 117.976 49.2725 117.7 49.6875L117.219 52.4314H116.576L117.517 46.9668H118.159L117.792 49.0419Z" fill="white"/>
<path d="M122.862 52.4318C122.839 52.3626 122.839 52.2934 122.839 52.2242V52.0167C122.495 52.3395 122.105 52.5009 121.715 52.5009C121.371 52.5009 121.095 52.3856 120.889 52.1781C120.682 51.9706 120.591 51.6939 120.591 51.3942C120.614 50.9792 120.797 50.6564 121.118 50.4258C121.439 50.1952 121.898 50.0799 122.426 50.0799H123.091L123.137 49.7802C123.16 49.5496 123.114 49.3651 122.999 49.2268C122.885 49.0885 122.724 49.0193 122.495 49.0193C122.265 49.0193 122.082 49.0654 121.921 49.1807C121.761 49.296 121.646 49.4343 121.6 49.6188H120.958C120.981 49.3882 121.072 49.2037 121.21 49.0193C121.371 48.8348 121.554 48.7195 121.806 48.6043C122.059 48.512 122.288 48.4659 122.563 48.4659C122.953 48.4659 123.275 48.6043 123.504 48.8348C123.733 49.0654 123.825 49.3882 123.779 49.7571L123.458 51.6709L123.435 51.9476C123.435 52.0859 123.435 52.2012 123.481 52.3395V52.4087H122.862V52.4318ZM121.852 51.9245C122.059 51.9245 122.242 51.8784 122.426 51.7862C122.609 51.6939 122.77 51.5325 122.908 51.3481L123.045 50.5641H122.563C122.151 50.5641 121.852 50.6333 121.646 50.7486C121.439 50.8639 121.302 51.0483 121.279 51.302C121.256 51.4864 121.302 51.6248 121.394 51.7631C121.485 51.8553 121.646 51.9245 121.852 51.9245ZM124.009 48.0509H123.481L122.908 47.3822L122.128 48.0278H121.485L122.586 47.1055H123.229L124.009 48.0509ZM123.825 47.5667L123.894 47.1055L124.054 47.0825C124.261 47.0594 124.376 46.9903 124.376 46.8519C124.399 46.7366 124.284 46.6675 124.054 46.6444H123.94L123.986 46.3216C124.261 46.3447 124.467 46.3908 124.605 46.483C124.743 46.5752 124.811 46.7136 124.789 46.875C124.789 47.0133 124.743 47.1055 124.651 47.1978C124.559 47.29 124.444 47.3361 124.261 47.3822L124.215 47.5897L123.825 47.5667Z" fill="white"/>
<path d="M126.807 52.0399C126.509 52.3627 126.119 52.501 125.66 52.501C125.293 52.501 125.018 52.3627 124.857 52.1091C124.674 51.8554 124.605 51.5096 124.651 51.0715L125.064 48.5813H125.706L125.293 51.0945C125.27 51.2098 125.27 51.302 125.293 51.3943C125.316 51.5557 125.362 51.694 125.454 51.7863C125.545 51.8785 125.66 51.9246 125.821 51.9477C126.28 51.9707 126.624 51.7862 126.876 51.3943L127.358 48.5813H128L127.335 52.4318H126.738L126.807 52.0399Z" fill="white"/>
<path d="M1.03223 7.88617H9.38205C14.6351 7.88617 17.2501 10.6761 17.2501 16.2559V33.3413C17.2501 38.8981 14.6351 41.688 9.38205 41.688H1.03223V7.88617ZM6.30821 12.7282V36.846H9.29029C11.0795 36.846 11.9742 35.7623 11.9742 33.5719V16.0023C11.9742 13.8119 11.0795 12.7282 9.29029 12.7282H6.30821Z" fill="#F1F1F1"/>
<path d="M27.0681 7.88617V33.9408C27.0681 36.1313 27.9857 37.238 29.8208 37.238C31.6559 37.238 32.5735 36.1313 32.5735 33.9408V7.88617H37.5742V33.618C37.5742 39.267 34.9592 42.1031 29.7061 42.1031C24.4531 42.1031 21.838 39.267 21.838 33.618V7.88617H27.0681Z" fill="#F1F1F1"/>
<path d="M57.8982 29.0756V33.5718C57.8982 39.2208 55.2831 42.0569 50.0301 42.0569C44.777 42.0569 42.162 39.2208 42.162 33.5718V16.0022C42.162 10.3532 44.777 7.51715 50.0301 7.51715C55.2831 7.51715 57.8982 10.3532 57.8982 16.0022V19.2994H52.8975V15.6794C52.8975 13.4659 51.9799 12.3592 50.1448 12.3592C48.3097 12.3592 47.3921 13.4659 47.3921 15.6794V33.8946C47.3921 36.085 48.3097 37.1918 50.1448 37.1918C51.9799 37.1918 52.8975 36.085 52.8975 33.8946V29.0756H57.8982Z" fill="#F1F1F1"/>
<path d="M70.4917 35.4626L74.529 7.90923H79.3691L74.1849 41.688H66.3168L61.1555 7.88617H66.4774L70.4917 35.4626Z" fill="#F1F1F1"/>
<path d="M83.2458 7.88617H88.5218V41.665H83.2458V7.88617Z" fill="#F1F1F1"/>
<path d="M99.0738 22.1586H106.346V26.9545H99.0738V36.846H108.181V41.665H93.8208V7.88617H108.204V12.7051H99.0968V22.1586H99.0738Z" fill="#F1F1F1"/>
<path d="M111.461 7.88617H127.771V12.7051H122.265V41.665H116.989V12.7282H111.461V7.88617Z" fill="#F1F1F1"/>
<path d="M85.5397 5.30316C86.9967 5.30316 88.1777 4.11601 88.1777 2.65158C88.1777 1.18715 86.9967 0 85.5397 0C84.0828 0 82.9017 1.18715 82.9017 2.65158C82.9017 4.11601 84.0828 5.30316 85.5397 5.30316Z" fill="#CC0000"/>
<path d="M0 7.88617H8.34982C13.6029 7.88617 16.2179 10.6761 16.2179 16.2559V33.3413C16.2179 38.8981 13.6029 41.688 8.34982 41.688H0V7.88617ZM5.27599 12.7282V36.846H8.25806C10.0473 36.846 10.9419 35.7623 10.9419 33.5719V16.0023C10.9419 13.8119 10.0473 12.7282 8.25806 12.7282H5.27599Z" fill="white"/>
<path d="M26.0359 7.88617V33.9408C26.0359 36.1313 26.9535 37.238 28.7886 37.238C30.6237 37.238 31.5413 36.1313 31.5413 33.9408V7.88617H36.542V33.618C36.542 39.267 33.9269 42.1031 28.6739 42.1031C23.4208 42.1031 20.8058 39.267 20.8058 33.618V7.88617H26.0359Z" fill="white"/>
<path d="M56.866 29.0756V33.5718C56.866 39.2208 54.2509 42.0569 48.9979 42.0569C43.7448 42.0569 41.1298 39.2208 41.1298 33.5718V16.0022C41.1298 10.3532 43.7448 7.51715 48.9979 7.51715C54.2509 7.51715 56.866 10.3532 56.866 16.0022V19.2994H51.8652V15.6794C51.8652 13.4659 50.9477 12.3592 49.1126 12.3592C47.2774 12.3592 46.3599 13.4659 46.3599 15.6794V33.8946C46.3599 36.085 47.2774 37.1918 49.1126 37.1918C50.9477 37.1918 51.8652 36.085 51.8652 33.8946V29.0756H56.866Z" fill="white"/>
<path d="M69.4595 35.4626L73.4967 7.90923H78.3369L73.1756 41.665H65.3075L60.1233 7.88617H65.4451L69.4595 35.4626Z" fill="white"/>
<path d="M82.2136 7.88617H87.4896V41.665H82.2136V7.88617Z" fill="white"/>
<path d="M98.0416 22.1355H105.313V26.9314H98.0416V36.823H107.148V41.6419H92.7656V7.88617H107.148V12.7051H98.0416V22.1355Z" fill="white"/>
<path d="M110.429 7.88617H126.738V12.7051H121.233V41.665H115.957V12.7282H110.429V7.88617Z" fill="white"/>
<path d="M84.6911 5.30316C86.148 5.30316 87.3291 4.11601 87.3291 2.65158C87.3291 1.18715 86.148 0 84.6911 0C83.2342 0 82.0531 1.18715 82.0531 2.65158C82.0531 4.11601 83.2342 5.30316 84.6911 5.30316Z" fill="#FF0000"/>
</g>
<defs>
<clipPath id="clip0">
<rect width="128" height="54" fill="white"/>
</clipPath>
</defs>
</svg>
