<svg width="128" height="54" viewBox="0 0 128 54" fill="none" xmlns="http://www.w3.org/2000/svg">
<g clip-path="url(#clip0)">
<path d="M50.5348 50.7719C50.443 51.3023 50.1907 51.7403 49.8007 52.0401C49.4107 52.3398 48.952 52.5012 48.4244 52.4782C48.1032 52.4782 47.8279 52.386 47.5986 52.2476C47.3692 52.1093 47.1856 51.8787 47.048 51.602C46.9104 51.3253 46.8416 51.0025 46.8186 50.6567C46.8186 50.4722 46.8186 50.2647 46.8416 50.0802L46.9104 49.6421C47.0251 48.8582 47.3003 48.2587 47.7362 47.7976C48.172 47.3364 48.6996 47.1289 49.319 47.1289C49.8007 47.1289 50.1907 47.2903 50.4659 47.5901C50.7412 47.8898 50.9018 48.3279 50.9247 48.8582H50.2365C50.2136 48.1204 49.9154 47.7284 49.3878 47.6823H49.2731C48.8373 47.6592 48.4473 47.8437 48.1491 48.1895C47.8509 48.5354 47.6674 48.9965 47.5756 49.596L47.5068 50.1263L47.4839 50.4491C47.4609 50.8872 47.5527 51.2331 47.7132 51.4867C47.8738 51.7403 48.1261 51.8787 48.4702 51.8787C48.8373 51.9017 49.1355 51.8095 49.3649 51.6251C49.5942 51.4406 49.7778 51.1409 49.8925 50.7258L50.5348 50.7719Z" fill="white"/>
<path d="M52.324 49.0419C52.6681 48.673 53.0351 48.4886 53.4939 48.5116C53.8609 48.5116 54.1133 48.65 54.2968 48.8805C54.4803 49.1342 54.5262 49.457 54.4803 49.8951L54.0674 52.4314H53.4251L53.838 49.8951C53.8609 49.7798 53.8609 49.6645 53.838 49.5723C53.7921 49.2495 53.6086 49.065 53.2416 49.065C52.8516 49.065 52.5075 49.2725 52.2323 49.6875L51.7505 52.4314H51.1082L52.0487 46.9668H52.691L52.324 49.0419Z" fill="white"/>
<path d="M57.4624 52.0396C57.1642 52.3624 56.7742 52.5008 56.3154 52.5008C55.9484 52.5008 55.6731 52.3624 55.5126 52.1088C55.329 51.8552 55.2602 51.5093 55.3061 51.0712L55.719 48.5811H56.3613L55.9484 51.0943C55.9255 51.2096 55.9255 51.3018 55.9484 51.394C55.9713 51.5554 56.0172 51.6938 56.109 51.786C56.2007 51.8782 56.3154 51.9243 56.476 51.9474C56.9348 51.9705 57.2789 51.786 57.5312 51.394L58.0129 48.5811H58.6552L57.99 52.4316H57.3936L57.4624 52.0396Z" fill="white"/>
<path d="M60.3297 51.4632L61.7061 48.5811H62.4172L60.1462 53.0772C59.8251 53.6998 59.4122 54.0226 58.9305 53.9995C58.8387 53.9995 58.724 53.9765 58.5405 53.9303L58.5864 53.4L58.7469 53.4231C58.9534 53.4231 59.1369 53.377 59.2745 53.2847C59.4122 53.1925 59.5498 53.0311 59.6645 52.8005L59.8939 52.3625L59.2287 48.5811H59.8939L60.3297 51.4632Z" fill="white"/>
<path d="M63.9312 52.5005C63.4495 52.5005 63.0824 52.3161 62.8072 51.9702C62.5319 51.6244 62.4172 51.1863 62.4631 50.6559L62.486 50.4945C62.5319 50.1026 62.6466 49.7567 62.8301 49.457C63.0136 49.1342 63.243 48.9036 63.5183 48.7422C63.7935 48.5808 64.0688 48.5116 64.39 48.5116C64.7799 48.5116 65.1011 48.65 65.3075 48.9036C65.5369 49.1572 65.6516 49.5031 65.6746 49.9412C65.6746 50.1026 65.6746 50.2409 65.6516 50.4023L65.6057 50.7021H63.1054C63.0595 51.0479 63.1283 51.3477 63.2659 51.6013C63.4265 51.8549 63.6559 51.9702 63.9771 51.9933C64.3441 51.9933 64.7111 51.8319 65.0323 51.486L65.3993 51.8088C65.2387 52.0394 65.0323 52.2238 64.7799 52.3622C64.5276 52.4544 64.2523 52.5005 63.9312 52.5005ZM64.3441 49.0419C64.0688 49.0419 63.8394 49.1342 63.6559 49.3186C63.4724 49.5031 63.3118 49.7798 63.1971 50.1487H65.0552L65.0781 50.1026C65.124 49.8028 65.0781 49.5492 64.9405 49.3647C64.8029 49.1803 64.5964 49.0419 64.3441 49.0419ZM65.514 47.9352V47.9813H64.9864L64.5964 47.3818L63.9771 47.9813H63.4265V47.9352L64.4129 46.9668H64.7799L65.514 47.9352Z" fill="white"/>
<path d="M67.3033 48.5807L67.2115 49.0649C67.5556 48.696 67.9456 48.4884 68.3814 48.5115C68.7484 48.5115 69.0007 48.6498 69.1843 48.8804C69.3678 49.1341 69.4136 49.4568 69.3678 49.8949L68.9549 52.4312H68.3126L68.7255 49.8949C68.7484 49.7797 68.7484 49.6644 68.7255 49.5721C68.6796 49.2493 68.4961 49.0649 68.1291 49.0649C67.7391 49.0649 67.395 49.2724 67.1198 49.6874L66.638 52.4312H65.9957L66.661 48.5807H67.3033Z" fill="white"/>
<path d="M72.6021 51.8786H74.9878L74.8961 52.432H71.8451L72.7398 47.2441H73.405L72.6021 51.8786Z" fill="white"/>
<path d="M77.924 52.4317C77.9011 52.3625 77.9011 52.2933 77.9011 52.2241V52.0166C77.557 52.3394 77.167 52.5008 76.7771 52.5008C76.433 52.5008 76.1577 52.3855 75.9513 52.178C75.7448 51.9705 75.6531 51.6938 75.6531 51.3941C75.676 50.9791 75.8595 50.6563 76.1807 50.4257C76.5018 50.1951 76.9606 50.0798 77.4882 50.0798H78.1534L78.1993 49.7801C78.2222 49.5495 78.1764 49.3651 78.0617 49.2267C77.947 49.0884 77.7864 49.0192 77.557 49.0192C77.3276 49.0192 77.1441 49.0653 76.9835 49.1806C76.823 49.2959 76.7083 49.4342 76.6624 49.6187H76.0201C76.043 49.3881 76.1348 49.2037 76.2724 49.0192C76.433 48.8347 76.6165 48.7195 76.8688 48.6042C77.1212 48.5119 77.3506 48.4658 77.6258 48.4658C78.0158 48.4658 78.3369 48.6042 78.5663 48.8347C78.7957 49.0653 78.8875 49.3881 78.8416 49.757L78.5205 51.6708L78.4975 51.9475C78.4975 52.0858 78.4975 52.2011 78.5434 52.3394V52.4086H77.924V52.4317ZM76.9147 51.9244C77.1212 51.9244 77.3047 51.8783 77.4882 51.7861C77.6717 51.6938 77.8323 51.5324 77.9699 51.348L78.1075 50.564H77.6258C77.2129 50.564 76.9147 50.6332 76.7083 50.7485C76.5018 50.8638 76.3642 51.0482 76.3412 51.3019C76.3183 51.4863 76.3642 51.6247 76.4559 51.763C76.5477 51.8552 76.7083 51.9244 76.9147 51.9244Z" fill="white"/>
<path d="M82.9018 50.5177C82.8559 50.9097 82.7412 51.2555 82.5806 51.5783C82.4201 51.9011 82.2136 52.1317 81.9842 52.2931C81.7319 52.4545 81.4796 52.5237 81.1814 52.5237C80.7455 52.5237 80.4014 52.3623 80.1491 52.0625L79.805 53.9302H79.1627L80.0803 48.5809H80.6538L80.5849 49.019C80.9061 48.6731 81.2731 48.5117 81.7319 48.5117C82.0989 48.5117 82.3971 48.6501 82.6036 48.9267C82.81 49.1804 82.9247 49.5493 82.9247 50.0104C82.9247 50.1718 82.9247 50.3102 82.9018 50.4485V50.5177ZM82.2824 50.4485L82.3054 50.1488C82.3054 49.8029 82.2366 49.5262 82.0989 49.3418C81.9613 49.1573 81.7778 49.0651 81.5254 49.042C81.1584 49.042 80.8373 49.2034 80.562 49.5724L80.2409 51.4169C80.3785 51.7628 80.6538 51.9242 81.0208 51.9472C81.3419 51.9472 81.6172 51.832 81.8237 51.5783C82.053 51.3247 82.2136 50.9558 82.2824 50.4485Z" fill="white"/>
<path d="M85.1268 47.6354L84.9663 48.5577H85.6544L85.5627 49.0649H84.8745L84.4845 51.4629C84.4845 51.532 84.4845 51.5781 84.4845 51.6243C84.5075 51.8087 84.5992 51.9009 84.7827 51.9009C84.8516 51.9009 84.9663 51.8779 85.1039 51.8548L85.058 52.3851C84.8974 52.4313 84.7369 52.4543 84.5992 52.4543C84.3469 52.4543 84.1634 52.3621 84.0258 52.1776C83.8881 51.9932 83.8422 51.7395 83.8881 51.4398L84.2781 49.0418H83.5899L83.6817 48.5346H84.3698L84.5304 47.6123H85.1268V47.6354Z" fill="white"/>
<path d="M87.8107 48.5123C88.1319 48.5123 88.4071 48.6045 88.6365 48.7659C88.8659 48.9273 89.0265 49.1809 89.1412 49.4807C89.2559 49.7804 89.2788 50.1032 89.2559 50.4721V50.5413C89.21 50.9102 89.0953 51.2561 88.9118 51.5558C88.7283 51.8556 88.4989 52.0861 88.2236 52.2706C87.9483 52.4551 87.6272 52.5242 87.3061 52.5012C86.9849 52.5012 86.7096 52.4089 86.4802 52.2475C86.2509 52.0861 86.0903 51.8325 85.9756 51.5558C85.8609 51.2561 85.8379 50.9333 85.8609 50.5874C85.9068 50.1955 85.9985 49.8265 86.182 49.5037C86.3655 49.1809 86.5949 48.9273 86.8702 48.7659C87.1684 48.5814 87.4896 48.4892 87.8107 48.5123ZM86.5261 50.5644C86.5032 50.7027 86.5032 50.8641 86.5261 51.0255C86.5491 51.3022 86.6408 51.5328 86.7784 51.6942C86.9161 51.8556 87.1225 51.9478 87.3519 51.9478C87.5584 51.9478 87.7648 51.9017 87.9483 51.7864C88.1319 51.6711 88.2695 51.5097 88.4071 51.2791C88.5218 51.0486 88.6136 50.7949 88.6365 50.5183C88.6595 50.3107 88.6595 50.1263 88.6365 49.9649C88.6136 49.6882 88.5218 49.4576 88.3842 49.2732C88.2466 49.1118 88.0401 49.0195 87.8107 49.0195C87.4896 49.0195 87.1914 49.1348 86.962 49.4115C86.7326 49.6882 86.5949 50.034 86.5261 50.4721V50.5644Z" fill="white"/>
<path d="M93.2244 50.5177C93.1785 50.9097 93.0638 51.2555 92.9032 51.5783C92.7427 51.9011 92.5362 52.1317 92.3068 52.2931C92.0545 52.4545 91.8022 52.5237 91.5039 52.5237C91.0681 52.5237 90.724 52.3623 90.4717 52.0625L90.1276 53.9302H89.4853L90.4029 48.5809H90.9763L90.9075 49.019C91.2287 48.6731 91.5957 48.5117 92.0545 48.5117C92.4215 48.5117 92.7197 48.6501 92.9262 48.9267C93.1326 49.1804 93.2473 49.5493 93.2473 50.0104C93.2473 50.1718 93.2473 50.3102 93.2244 50.4485V50.5177ZM92.5821 50.4485L92.605 50.1488C92.605 49.8029 92.5362 49.5262 92.3986 49.3418C92.2609 49.1573 92.0774 49.0651 91.8251 49.042C91.4581 49.042 91.1369 49.2034 90.8617 49.5724L90.5405 51.4169C90.6781 51.7628 90.9534 51.9242 91.3204 51.9472C91.6416 51.9472 91.9168 51.832 92.1233 51.5783C92.3756 51.3247 92.5133 50.9558 92.5821 50.4485Z" fill="white"/>
<path d="M96.7799 48.5807L96.6881 49.0649C97.0322 48.696 97.4222 48.4884 97.858 48.5115C98.2251 48.5115 98.4774 48.6498 98.6609 48.8804C98.8444 49.1341 98.8903 49.4568 98.8444 49.8949L98.4315 52.4312H97.7892L98.2021 49.8949C98.2251 49.7797 98.2251 49.6644 98.2021 49.5721C98.1562 49.2493 97.9727 49.0649 97.6057 49.0649C97.2157 49.0649 96.8716 49.2724 96.5964 49.6874L96.1147 52.4312H95.4724L96.1376 48.5807H96.7799Z" fill="white"/>
<path d="M100.634 49.0419C100.978 48.673 101.345 48.4886 101.804 48.5116C102.171 48.5116 102.423 48.65 102.606 48.8805C102.79 49.1342 102.836 49.457 102.79 49.8951L102.377 52.4314H101.735L102.148 49.8951C102.171 49.7798 102.171 49.6645 102.148 49.5723C102.102 49.2495 101.918 49.065 101.551 49.065C101.161 49.065 100.817 49.2725 100.542 49.6875L100.06 52.4314H99.4179L100.358 46.9668H101.001L100.634 49.0419Z" fill="white"/>
<path d="M105.703 52.4314C105.68 52.3622 105.68 52.293 105.68 52.2238V52.0163C105.336 52.3391 104.946 52.5005 104.556 52.5005C104.212 52.5005 103.937 52.3852 103.73 52.1777C103.524 51.9702 103.432 51.6935 103.432 51.3938C103.455 50.9788 103.639 50.656 103.96 50.4254C104.281 50.1948 104.74 50.0795 105.267 50.0795H105.933L105.978 49.7798C106.001 49.5492 105.956 49.3647 105.841 49.2264C105.726 49.0881 105.566 49.0189 105.336 49.0189C105.107 49.0189 104.923 49.065 104.763 49.1803C104.602 49.2956 104.487 49.4339 104.442 49.6184H103.799C103.822 49.3878 103.914 49.2034 104.052 49.0189C104.212 48.8344 104.396 48.7191 104.648 48.6039C104.9 48.5116 105.13 48.4655 105.405 48.4655C105.795 48.4655 106.116 48.6039 106.346 48.8344C106.575 49.065 106.667 49.3878 106.621 49.7567L106.3 51.6705L106.277 51.9472C106.277 52.0855 106.277 52.2008 106.323 52.3391V52.4083H105.703V52.4314ZM104.052 53.3075C104.052 53.1922 104.097 53.1 104.166 53.0308C104.235 52.9617 104.327 52.9156 104.442 52.9156C104.556 52.9156 104.648 52.9386 104.717 53.0078C104.786 53.077 104.832 53.1692 104.832 53.2845C104.832 53.3998 104.786 53.492 104.717 53.5612C104.648 53.6303 104.556 53.6765 104.442 53.6765C104.327 53.6765 104.258 53.6534 104.166 53.5842C104.075 53.515 104.052 53.4228 104.052 53.3075ZM104.694 51.9241C104.9 51.9241 105.084 51.878 105.267 51.7858C105.451 51.6935 105.611 51.5321 105.749 51.3477L105.887 50.5637H105.405C104.992 50.5637 104.694 50.6329 104.487 50.7482C104.281 50.8635 104.143 51.0479 104.12 51.3016C104.097 51.486 104.143 51.6244 104.235 51.7627C104.327 51.8549 104.487 51.9241 104.694 51.9241ZM106.69 47.9352V47.9813H106.162L105.772 47.3818L105.153 47.9813H104.602V47.9352L105.589 46.9668H105.956L106.69 47.9352Z" fill="white"/>
<path d="M110.704 50.5177C110.658 50.9097 110.543 51.2555 110.383 51.5783C110.222 51.9011 110.016 52.1317 109.786 52.2931C109.534 52.4545 109.282 52.5237 108.984 52.5237C108.548 52.5237 108.204 52.3623 107.951 52.0625L107.607 53.9302H106.965L107.882 48.5809H108.456L108.387 49.019C108.708 48.6731 109.075 48.5117 109.534 48.5117C109.901 48.5117 110.199 48.6501 110.406 48.9267C110.612 49.1804 110.727 49.5493 110.727 50.0104C110.727 50.1718 110.727 50.3102 110.704 50.4485V50.5177ZM110.062 50.4485L110.085 50.1488C110.085 49.8029 110.016 49.5262 109.878 49.3418C109.74 49.1573 109.557 49.0651 109.305 49.042C108.938 49.042 108.616 49.2034 108.341 49.5724L108.02 51.4169C108.158 51.7628 108.433 51.9242 108.8 51.9472C109.121 51.9472 109.396 51.832 109.603 51.5783C109.855 51.3247 109.993 50.9558 110.062 50.4485Z" fill="white"/>
<path d="M114.374 50.6563L113.87 51.1175L113.64 52.4548H112.998L113.938 46.9902H114.581L114.007 50.2644L114.397 49.8724L115.751 48.6273H116.576L114.81 50.2644L116.026 52.4779H115.315L114.374 50.6563Z" fill="white"/>
<path d="M117.792 49.0419C118.136 48.673 118.503 48.4886 118.962 48.5116C119.329 48.5116 119.581 48.65 119.765 48.8805C119.948 49.1342 119.994 49.457 119.948 49.8951L119.535 52.4314H118.893L119.306 49.8951C119.329 49.7798 119.329 49.6645 119.306 49.5723C119.26 49.2495 119.077 49.065 118.71 49.065C118.32 49.065 117.976 49.2725 117.7 49.6875L117.219 52.4314H116.576L117.517 46.9668H118.159L117.792 49.0419Z" fill="white"/>
<path d="M122.862 52.4314C122.839 52.3623 122.839 52.2931 122.839 52.2239V52.0164C122.495 52.3392 122.105 52.5006 121.715 52.5006C121.371 52.5006 121.095 52.3853 120.889 52.1778C120.682 51.9703 120.591 51.6936 120.591 51.3939C120.614 50.9788 120.797 50.656 121.118 50.4255C121.439 50.1949 121.898 50.0796 122.426 50.0796H123.091L123.137 49.7799C123.16 49.5493 123.114 49.3648 122.999 49.2265C122.885 49.0882 122.724 49.019 122.495 49.019C122.265 49.019 122.082 49.0651 121.921 49.1804C121.761 49.2957 121.646 49.434 121.6 49.6185H120.958C120.981 49.3879 121.072 49.2034 121.21 49.019C121.371 48.8345 121.554 48.7192 121.806 48.604C122.059 48.5117 122.288 48.4656 122.563 48.4656C122.953 48.4656 123.275 48.604 123.504 48.8345C123.733 49.0651 123.825 49.3879 123.779 49.7568L123.458 51.6706L123.435 51.9473C123.435 52.0856 123.435 52.2009 123.481 52.3392V52.4084H122.862V52.4314ZM121.852 51.9242C122.059 51.9242 122.242 51.8781 122.426 51.7859C122.609 51.6936 122.77 51.5322 122.907 51.3478L123.045 50.5638H122.563C122.151 50.5638 121.852 50.633 121.646 50.7483C121.439 50.8636 121.302 51.048 121.279 51.3016C121.256 51.4861 121.302 51.6244 121.394 51.7628C121.485 51.855 121.646 51.9242 121.852 51.9242ZM124.009 48.0506H123.481L122.907 47.3819L122.128 48.0275H121.485L122.586 47.1052H123.229L124.009 48.0506ZM123.825 47.5664L123.894 47.1052L124.054 47.0822C124.261 47.0591 124.376 46.9899 124.376 46.8516C124.399 46.7363 124.284 46.6671 124.054 46.6441H123.94L123.986 46.3213C124.261 46.3443 124.467 46.3905 124.605 46.4827C124.743 46.5749 124.811 46.7133 124.788 46.8747C124.788 47.013 124.743 47.1052 124.651 47.1975C124.559 47.2897 124.444 47.3358 124.261 47.3819L124.215 47.5894L123.825 47.5664Z" fill="white"/>
<path d="M126.807 52.0396C126.509 52.3624 126.119 52.5008 125.66 52.5008C125.293 52.5008 125.018 52.3624 124.857 52.1088C124.674 51.8552 124.605 51.5093 124.651 51.0712L125.064 48.5811H125.706L125.293 51.0943C125.27 51.2096 125.27 51.3018 125.293 51.394C125.316 51.5554 125.362 51.6938 125.454 51.786C125.546 51.8782 125.66 51.9243 125.821 51.9474C126.28 51.9705 126.624 51.786 126.876 51.394L127.358 48.5811H128L127.335 52.4316H126.738L126.807 52.0396Z" fill="white"/>
<path d="M1.03223 7.88672H9.38205C14.6351 7.88672 17.2501 10.6766 17.2501 16.2565V33.3419C17.2501 38.8987 14.6351 41.6886 9.38205 41.6886H1.03223V7.88672ZM6.30821 12.7287V36.8466H9.29029C11.0795 36.8466 11.9742 35.7629 11.9742 33.5725V16.0029C11.9742 13.8124 11.0795 12.7287 9.29029 12.7287H6.30821Z" fill="#F1F1F1"/>
<path d="M27.0681 7.88672V33.9414C27.0681 36.1318 27.9857 37.2386 29.8208 37.2386C31.6559 37.2386 32.5735 36.1318 32.5735 33.9414V7.88672H37.5742V33.6186C37.5742 39.2676 34.9591 42.1036 29.7061 42.1036C24.453 42.1036 21.838 39.2676 21.838 33.6186V7.88672H27.0681Z" fill="#F1F1F1"/>
<path d="M57.8982 29.0761V33.5722C57.8982 39.2213 55.2831 42.0573 50.0301 42.0573C44.777 42.0573 42.162 39.2213 42.162 33.5722V16.0026C42.162 10.3536 44.777 7.51758 50.0301 7.51758C55.2831 7.51758 57.8982 10.3536 57.8982 16.0026V19.2998H52.8975V15.6798C52.8975 13.4663 51.9799 12.3596 50.1448 12.3596C48.3097 12.3596 47.3921 13.4663 47.3921 15.6798V33.895C47.3921 36.0855 48.3097 37.1922 50.1448 37.1922C51.9799 37.1922 52.8975 36.0855 52.8975 33.895V29.0761H57.8982Z" fill="#F1F1F1"/>
<path d="M70.4917 35.4632L74.529 7.90978H79.3692L74.1849 41.6886H66.3168L61.1555 7.88672H66.4774L70.4917 35.4632Z" fill="#F1F1F1"/>
<path d="M83.2459 7.88672H88.5219V41.6655H83.2459V7.88672Z" fill="#F1F1F1"/>
<path d="M99.0738 22.1591H106.345V26.955H99.0738V36.8466H108.181V41.6655H93.8208V7.88672H108.204V12.7057H99.0968V22.1591H99.0738Z" fill="#F1F1F1"/>
<path d="M111.461 7.88672H127.771V12.7057H122.265V41.6655H116.989V12.7287H111.461V7.88672Z" fill="#F1F1F1"/>
<path d="M85.5398 5.30316C86.9967 5.30316 88.1778 4.11601 88.1778 2.65158C88.1778 1.18715 86.9967 0 85.5398 0C84.0829 0 82.9018 1.18715 82.9018 2.65158C82.9018 4.11601 84.0829 5.30316 85.5398 5.30316Z" fill="#CC0000"/>
<path d="M0 7.88672H8.34982C13.6029 7.88672 16.2179 10.6766 16.2179 16.2565V33.3419C16.2179 38.8987 13.6029 41.6886 8.34982 41.6886H0V7.88672ZM5.27599 12.7287V36.8466H8.25806C10.0473 36.8466 10.9419 35.7629 10.9419 33.5725V16.0029C10.9419 13.8124 10.0473 12.7287 8.25806 12.7287H5.27599Z" fill="white"/>
<path d="M26.0358 7.88672V33.9414C26.0358 36.1318 26.9534 37.2386 28.7885 37.2386C30.6237 37.2386 31.5412 36.1318 31.5412 33.9414V7.88672H36.5419V33.6186C36.5419 39.2676 33.9269 42.1036 28.6738 42.1036C23.4208 42.1036 20.8057 39.2676 20.8057 33.6186V7.88672H26.0358Z" fill="white"/>
<path d="M56.8659 29.0761V33.5722C56.8659 39.2213 54.2509 42.0573 48.9978 42.0573C43.7448 42.0573 41.1297 39.2213 41.1297 33.5722V16.0026C41.1297 10.3536 43.7448 7.51758 48.9978 7.51758C54.2509 7.51758 56.8659 10.3536 56.8659 16.0026V19.2998H51.8652V15.6798C51.8652 13.4663 50.9477 12.3596 49.1125 12.3596C47.2774 12.3596 46.3598 13.4663 46.3598 15.6798V33.895C46.3598 36.0855 47.2774 37.1922 49.1125 37.1922C50.9477 37.1922 51.8652 36.0855 51.8652 33.895V29.0761H56.8659Z" fill="white"/>
<path d="M69.4595 35.4631L73.4968 7.90978H78.3369L73.1756 41.6655H65.3075L60.1233 7.88672H65.4452L69.4595 35.4631Z" fill="white"/>
<path d="M82.2136 7.88672H87.4896V41.6655H82.2136V7.88672Z" fill="white"/>
<path d="M98.0416 22.1361H105.313V26.932H98.0416V36.8235H107.148V41.6425H92.7656V7.88672H107.148V12.7057H98.0416V22.1361Z" fill="white"/>
<path d="M110.429 7.88672H126.738V12.7057H121.233V41.6655H115.957V12.7287H110.429V7.88672Z" fill="white"/>
<path d="M84.691 5.30316C86.1479 5.30316 87.329 4.11601 87.329 2.65158C87.329 1.18715 86.1479 0 84.691 0C83.2341 0 82.0531 1.18715 82.0531 2.65158C82.0531 4.11601 83.2341 5.30316 84.691 5.30316Z" fill="#FF0000"/>
</g>
<defs>
<clipPath id="clip0">
<rect width="128" height="54" fill="white"/>
</clipPath>
</defs>
</svg>
