<svg width="76" height="32" viewBox="0 0 76 32" fill="none" xmlns="http://www.w3.org/2000/svg">
<g clip-path="url(#clip0)">
<path d="M30.005 30.0875C29.9505 30.4018 29.8007 30.6614 29.5692 30.839C29.3376 31.0167 29.0652 31.1123 28.752 31.0987C28.5613 31.0987 28.3978 31.044 28.2616 30.962C28.1254 30.88 28.0165 30.7434 27.9348 30.5794C27.853 30.4155 27.8122 30.2242 27.7986 30.0192C27.7986 29.9099 27.7986 29.787 27.8122 29.6776L27.853 29.418C27.9211 28.9535 28.0846 28.5982 28.3434 28.325C28.6021 28.0517 28.9154 27.9287 29.2831 27.9287C29.5692 27.9287 29.8007 28.0244 29.9641 28.202C30.1276 28.3796 30.2229 28.6392 30.2365 28.9535H29.8279C29.8143 28.5162 29.6373 28.284 29.324 28.2566H29.2559C28.9971 28.243 28.7656 28.3523 28.5885 28.5572C28.4115 28.7622 28.3025 29.0355 28.248 29.3907L28.2072 29.705L28.1935 29.8963C28.1799 30.1559 28.2344 30.3608 28.3297 30.5111C28.4251 30.6614 28.5749 30.7434 28.7792 30.7434C28.9971 30.7571 29.1742 30.7024 29.3104 30.5931C29.4466 30.4838 29.5555 30.3062 29.6236 30.0602L30.005 30.0875Z" fill="white"/>
<path d="M31.0674 29.0627C31.2717 28.8441 31.4896 28.7348 31.762 28.7485C31.9799 28.7485 32.1297 28.8304 32.2387 28.9671C32.3477 29.1174 32.3749 29.3087 32.3477 29.5683L32.1025 31.0713H31.7211L31.9663 29.5683C31.9799 29.5 31.9799 29.4316 31.9663 29.377C31.9391 29.1857 31.8301 29.0764 31.6122 29.0764C31.3806 29.0764 31.1763 29.1994 31.0129 29.4453L30.7269 31.0713H30.3455L30.9039 27.833H31.2853L31.0674 29.0627Z" fill="white"/>
<path d="M34.1183 30.8386C33.9412 31.0299 33.7097 31.1119 33.4373 31.1119C33.2194 31.1119 33.0559 31.0299 32.9606 30.8796C32.8516 30.7293 32.8108 30.5243 32.838 30.2647L33.0832 28.7891H33.4645L33.2194 30.2784C33.2057 30.3467 33.2057 30.4014 33.2194 30.456C33.233 30.5517 33.2602 30.6336 33.3147 30.6883C33.3692 30.7429 33.4373 30.7703 33.5326 30.7839C33.805 30.7976 34.0093 30.6883 34.1592 30.456L34.4452 28.7891H34.8265L34.4316 31.0709H34.0774L34.1183 30.8386Z" fill="white"/>
<path d="M35.8208 30.497L36.638 28.7891H37.0602L35.7118 31.4535C35.5212 31.8224 35.276 32.0137 34.99 32C34.9355 32 34.8674 31.9863 34.7584 31.959L34.7857 31.6448L34.881 31.6584C35.0036 31.6584 35.1125 31.6311 35.1943 31.5764C35.276 31.5218 35.3577 31.4261 35.4258 31.2895L35.562 31.0299L35.167 28.7891H35.562L35.8208 30.497Z" fill="white"/>
<path d="M37.9591 31.1123C37.6731 31.1123 37.4552 31.0029 37.2917 30.798C37.1283 30.593 37.0602 30.3334 37.0874 30.0192L37.1011 29.9235C37.1283 29.6912 37.1964 29.4863 37.3054 29.3087C37.4143 29.1174 37.5505 28.9807 37.714 28.8851C37.8774 28.7895 38.0409 28.7485 38.2315 28.7485C38.4631 28.7485 38.6538 28.8304 38.7763 28.9807C38.9125 29.131 38.9806 29.336 38.9943 29.5956C38.9943 29.6912 38.9943 29.7732 38.9806 29.8689L38.9534 30.0465H37.4688C37.4416 30.2515 37.4824 30.4291 37.5641 30.5794C37.6595 30.7297 37.7957 30.798 37.9864 30.8117C38.2043 30.8117 38.4222 30.716 38.6129 30.5111L38.8308 30.7023C38.7355 30.839 38.6129 30.9483 38.4631 31.0303C38.3133 31.0849 38.1498 31.1123 37.9591 31.1123ZM38.2043 29.0627C38.0409 29.0627 37.9047 29.1174 37.7957 29.2267C37.6867 29.336 37.5914 29.5 37.5233 29.7186H38.6265L38.6401 29.6912C38.6674 29.5136 38.6401 29.3633 38.5584 29.254C38.4767 29.1447 38.3541 29.0627 38.2043 29.0627ZM38.8989 28.4069V28.4342H38.5857L38.3541 28.079L37.9864 28.4342H37.6595V28.4069L38.2452 27.833H38.4631L38.8989 28.4069Z" fill="white"/>
<path d="M39.9613 28.7891L39.9068 29.076C40.1111 28.8574 40.3427 28.7344 40.6014 28.7481C40.8194 28.7481 40.9692 28.8301 41.0782 28.9667C41.1871 29.117 41.2143 29.3083 41.1871 29.5679L40.9419 31.0709H40.5606L40.8057 29.5679C40.8194 29.4996 40.8194 29.4313 40.8057 29.3766C40.7785 29.1853 40.6695 29.076 40.4516 29.076C40.2201 29.076 40.0158 29.199 39.8523 29.4449L39.5663 31.0709H39.185L39.5799 28.7891H39.9613Z" fill="white"/>
<path d="M43.1075 30.7434H44.524L44.4695 31.0714H42.6581L43.1892 27.9971H43.5842L43.1075 30.7434Z" fill="white"/>
<path d="M46.2674 31.0708C46.2538 31.0298 46.2538 30.9888 46.2538 30.9479V30.8249C46.0495 31.0162 45.8179 31.1118 45.5864 31.1118C45.3821 31.1118 45.2187 31.0435 45.0961 30.9205C44.9735 30.7976 44.919 30.6336 44.919 30.456C44.9326 30.21 45.0416 30.0187 45.2323 29.8821C45.423 29.7455 45.6954 29.6771 46.0086 29.6771H46.4036L46.4308 29.4995C46.4445 29.3629 46.4172 29.2536 46.3491 29.1716C46.281 29.0896 46.1857 29.0486 46.0495 29.0486C45.9133 29.0486 45.8043 29.076 45.709 29.1443C45.6136 29.2126 45.5455 29.2946 45.5183 29.4039H45.1369C45.1505 29.2672 45.205 29.1579 45.2868 29.0486C45.3821 28.9393 45.4911 28.871 45.6409 28.8027C45.7907 28.748 45.9269 28.7207 46.0903 28.7207C46.3219 28.7207 46.5126 28.8027 46.6488 28.9393C46.785 29.076 46.8394 29.2672 46.8122 29.4859L46.6215 30.6199L46.6079 30.7839C46.6079 30.8659 46.6079 30.9342 46.6351 31.0162V31.0572H46.2674V31.0708ZM45.6681 30.7702C45.7907 30.7702 45.8997 30.7429 46.0086 30.6883C46.1176 30.6336 46.2129 30.538 46.2946 30.4286L46.3764 29.9641H46.0903C45.8452 29.9641 45.6681 30.0051 45.5455 30.0734C45.423 30.1417 45.3412 30.251 45.3276 30.4013C45.314 30.5106 45.3412 30.5926 45.3957 30.6746C45.4502 30.7292 45.5455 30.7702 45.6681 30.7702Z" fill="white"/>
<path d="M49.2229 29.9368C49.1957 30.1691 49.1276 30.374 49.0323 30.5653C48.9369 30.7566 48.8143 30.8932 48.6781 30.9889C48.5283 31.0845 48.3785 31.1255 48.2014 31.1255C47.9427 31.1255 47.7384 31.0299 47.5885 30.8522L47.3842 31.959H47.0029L47.5477 28.789H47.8882L47.8473 29.0486C48.038 28.8437 48.2559 28.748 48.5283 28.748C48.7462 28.748 48.9233 28.83 49.0459 28.994C49.1685 29.1443 49.2366 29.3629 49.2366 29.6362C49.2366 29.7318 49.2366 29.8138 49.2229 29.8958V29.9368ZM48.8552 29.8958L48.8688 29.7182C48.8688 29.5132 48.828 29.3492 48.7462 29.2399C48.6645 29.1306 48.5556 29.076 48.4057 29.0623C48.1878 29.0623 47.9971 29.158 47.8337 29.3766L47.643 30.4697C47.7247 30.6746 47.8882 30.7703 48.1061 30.7839C48.2968 30.7839 48.4602 30.7156 48.5828 30.5653C48.719 30.415 48.8143 30.1964 48.8552 29.8958Z" fill="white"/>
<path d="M50.544 28.2295L50.4487 28.776H50.8573L50.8028 29.0766H50.3942L50.1627 30.4976C50.1627 30.5386 50.1627 30.5659 50.1627 30.5933C50.1763 30.7026 50.2308 30.7572 50.3397 30.7572C50.3806 30.7572 50.4487 30.7436 50.5304 30.7299L50.5032 31.0442C50.4078 31.0715 50.3125 31.0852 50.2308 31.0852C50.081 31.0852 49.972 31.0305 49.8903 30.9212C49.8086 30.8119 49.7813 30.6616 49.8086 30.484L50.0401 29.063H49.6315L49.686 28.7624H50.0946L50.1899 28.2158H50.544V28.2295Z" fill="white"/>
<path d="M52.1376 28.7482C52.3283 28.7482 52.4917 28.8028 52.6279 28.8985C52.7641 28.9941 52.8595 29.1444 52.9276 29.322C52.9957 29.4997 53.0093 29.6909 52.9957 29.9096V29.9505C52.9684 30.1692 52.9003 30.3741 52.7914 30.5517C52.6824 30.7294 52.5462 30.866 52.3828 30.9753C52.2193 31.0846 52.0287 31.1256 51.838 31.112C51.6473 31.112 51.4839 31.0573 51.3476 30.9617C51.2114 30.866 51.1161 30.7157 51.048 30.5517C50.9799 30.3741 50.9663 30.1828 50.9799 29.9779C51.0071 29.7456 51.0616 29.527 51.1706 29.3357C51.2796 29.1444 51.4158 28.9941 51.5792 28.8985C51.7563 28.7891 51.9469 28.7345 52.1376 28.7482ZM51.3749 29.9642C51.3613 30.0462 51.3613 30.1418 51.3749 30.2375C51.3885 30.4014 51.443 30.5381 51.5247 30.6337C51.6064 30.7294 51.729 30.784 51.8652 30.784C51.9878 30.784 52.1104 30.7567 52.2193 30.6884C52.3283 30.6201 52.41 30.5244 52.4917 30.3878C52.5598 30.2511 52.6143 30.1008 52.6279 29.9369C52.6416 29.8139 52.6416 29.7046 52.6279 29.609C52.6143 29.445 52.5598 29.3084 52.4781 29.1991C52.3964 29.1034 52.2738 29.0488 52.1376 29.0488C51.9469 29.0488 51.7699 29.1171 51.6337 29.281C51.4975 29.445 51.4158 29.65 51.3749 29.9096V29.9642Z" fill="white"/>
<path d="M55.352 29.9368C55.3247 30.1691 55.2566 30.374 55.1613 30.5653C55.0659 30.7566 54.9434 30.8932 54.8072 30.9889C54.6573 31.0845 54.5075 31.1255 54.3305 31.1255C54.0717 31.1255 53.8674 31.0299 53.7176 30.8522L53.5133 31.959H53.1319L53.6767 28.789H54.0172L53.9763 29.0486C54.167 28.8437 54.3849 28.748 54.6573 28.748C54.8753 28.748 55.0523 28.83 55.1749 28.994C55.2975 29.1443 55.3656 29.3629 55.3656 29.6362C55.3656 29.7318 55.3656 29.8138 55.352 29.8958V29.9368ZM54.9706 29.8958L54.9842 29.7182C54.9842 29.5132 54.9434 29.3492 54.8616 29.2399C54.7799 29.1306 54.671 29.076 54.5211 29.0623C54.3032 29.0623 54.1125 29.158 53.9491 29.3766L53.7584 30.4697C53.8401 30.6746 54.0036 30.7703 54.2215 30.7839C54.4122 30.7839 54.5756 30.7156 54.6982 30.5653C54.848 30.415 54.9297 30.1964 54.9706 29.8958Z" fill="white"/>
<path d="M57.463 28.7891L57.4086 29.076C57.6129 28.8574 57.8444 28.7344 58.1032 28.7481C58.3211 28.7481 58.4709 28.8301 58.5799 28.9667C58.6889 29.117 58.7161 29.3083 58.6889 29.5679L58.4437 31.0709H58.0623L58.3075 29.5679C58.3211 29.4996 58.3211 29.4313 58.3075 29.3766C58.2803 29.1853 58.1713 29.076 57.9534 29.076C57.7218 29.076 57.5175 29.199 57.3541 29.4449L57.0681 31.0709H56.6867L57.0817 28.7891H57.463Z" fill="white"/>
<path d="M59.7512 29.0627C59.9555 28.8441 60.1734 28.7348 60.4458 28.7485C60.6638 28.7485 60.8136 28.8304 60.9226 28.9671C61.0315 29.1174 61.0588 29.3087 61.0315 29.5683L60.7864 31.0713H60.405L60.6501 29.5683C60.6638 29.5 60.6638 29.4316 60.6501 29.377C60.6229 29.1857 60.514 29.0764 60.296 29.0764C60.0645 29.0764 59.8602 29.1994 59.6967 29.4453L59.4107 31.0713H59.0294L59.5878 27.833H59.9691L59.7512 29.0627Z" fill="white"/>
<path d="M62.7613 31.0713C62.7477 31.0303 62.7477 30.9893 62.7477 30.9483V30.8253C62.5434 31.0166 62.3118 31.1123 62.0803 31.1123C61.876 31.1123 61.7125 31.0439 61.59 30.921C61.4674 30.798 61.4129 30.634 61.4129 30.4564C61.4265 30.2105 61.5355 30.0192 61.7262 29.8825C61.9168 29.7459 62.1892 29.6776 62.5025 29.6776H62.8975L62.9247 29.5C62.9383 29.3633 62.9111 29.254 62.843 29.172C62.7749 29.0901 62.6796 29.0491 62.5434 29.0491C62.4072 29.0491 62.2982 29.0764 62.2029 29.1447C62.1075 29.213 62.0394 29.295 62.0122 29.4043H61.6308C61.6444 29.2677 61.6989 29.1584 61.7806 29.0491C61.876 28.9398 61.9849 28.8714 62.1348 28.8031C62.2846 28.7485 62.4208 28.7211 62.5842 28.7211C62.8158 28.7211 63.0064 28.8031 63.1426 28.9398C63.2789 29.0764 63.3333 29.2677 63.3061 29.4863L63.1154 30.6204L63.1018 30.7843C63.1018 30.8663 63.1018 30.9346 63.129 31.0166V31.0576H62.7613V31.0713ZM61.7806 31.5905C61.7806 31.5222 61.8079 31.4675 61.8487 31.4265C61.8896 31.3855 61.9441 31.3582 62.0122 31.3582C62.0803 31.3582 62.1348 31.3719 62.1756 31.4129C62.2165 31.4538 62.2437 31.5085 62.2437 31.5768C62.2437 31.6451 62.2165 31.6998 62.1756 31.7408C62.1348 31.7818 62.0803 31.8091 62.0122 31.8091C61.9441 31.8091 61.9032 31.7954 61.8487 31.7544C61.7943 31.7135 61.7806 31.6588 61.7806 31.5905ZM62.162 30.7707C62.2846 30.7707 62.3935 30.7433 62.5025 30.6887C62.6115 30.634 62.7068 30.5384 62.7885 30.4291L62.8702 29.9645H62.5842C62.3391 29.9645 62.162 30.0055 62.0394 30.0738C61.9168 30.1421 61.8351 30.2515 61.8215 30.4018C61.8079 30.5111 61.8351 30.593 61.8896 30.675C61.9441 30.7297 62.0394 30.7707 62.162 30.7707ZM63.347 28.4069V28.4342H63.0337L62.8021 28.079L62.4344 28.4342H62.1075V28.4069L62.6932 27.833H62.9111L63.347 28.4069Z" fill="white"/>
<path d="M65.7305 29.9368C65.7032 30.1691 65.6351 30.374 65.5398 30.5653C65.4444 30.7566 65.3218 30.8932 65.1856 30.9889C65.0358 31.0845 64.886 31.1255 64.7089 31.1255C64.4502 31.1255 64.2459 31.0299 64.096 30.8522L63.8917 31.959H63.5104L64.0552 28.789H64.3957L64.3548 29.0486C64.5455 28.8437 64.7634 28.748 65.0358 28.748C65.2537 28.748 65.4308 28.83 65.5534 28.994C65.676 29.1443 65.7441 29.3629 65.7441 29.6362C65.7441 29.7318 65.7441 29.8138 65.7305 29.8958V29.9368ZM65.3491 29.8958L65.3627 29.7182C65.3627 29.5132 65.3218 29.3492 65.2401 29.2399C65.1584 29.1306 65.0494 29.076 64.8996 29.0623C64.6817 29.0623 64.491 29.158 64.3276 29.3766L64.1369 30.4697C64.2186 30.6746 64.3821 30.7703 64.6 30.7839C64.7907 30.7839 64.9541 30.7156 65.0767 30.5653C65.2265 30.415 65.3082 30.1964 65.3491 29.8958Z" fill="white"/>
<path d="M67.9097 30.0192L67.61 30.2925L67.4738 31.0849H67.0925L67.6509 27.8467H68.0322L67.6917 29.7869L67.9233 29.5546L68.7269 28.8168H69.2172L68.1684 29.7869L68.8903 31.0986H68.4681L67.9097 30.0192Z" fill="white"/>
<path d="M69.9391 29.0627C70.1434 28.8441 70.3613 28.7348 70.6337 28.7485C70.8516 28.7485 71.0014 28.8304 71.1104 28.9671C71.2193 29.1174 71.2466 29.3087 71.2194 29.5683L70.9742 31.0713H70.5928L70.838 29.5683C70.8516 29.5 70.8516 29.4316 70.838 29.377C70.8107 29.1857 70.7018 29.0764 70.4839 29.0764C70.2523 29.0764 70.048 29.1994 69.8846 29.4453L69.5986 31.0713H69.2172L69.7756 27.833H70.157L69.9391 29.0627Z" fill="white"/>
<path d="M72.9491 31.071C72.9355 31.03 72.9355 30.9891 72.9355 30.9481V30.8251C72.7312 31.0164 72.4996 31.112 72.2681 31.112C72.0638 31.112 71.9003 31.0437 71.7778 30.9207C71.6552 30.7978 71.6007 30.6338 71.6007 30.4562C71.6143 30.2102 71.7233 30.0189 71.914 29.8823C72.1046 29.7457 72.377 29.6774 72.6903 29.6774H73.0853L73.1125 29.4997C73.1261 29.3631 73.0989 29.2538 73.0308 29.1718C72.9627 29.0898 72.8674 29.0488 72.7312 29.0488C72.595 29.0488 72.486 29.0762 72.3907 29.1445C72.2953 29.2128 72.2272 29.2948 72.2 29.4041H71.8186C71.8322 29.2674 71.8867 29.1581 71.9684 29.0488C72.0638 28.9395 72.1727 28.8712 72.3226 28.8029C72.4724 28.7482 72.6086 28.7209 72.772 28.7209C73.0036 28.7209 73.1942 28.8029 73.3304 28.9395C73.4666 29.0762 73.5211 29.2674 73.4939 29.4861L73.3032 30.6201L73.2896 30.7841C73.2896 30.8661 73.2896 30.9344 73.3168 31.0164V31.0574H72.9491V31.071ZM72.3498 30.7704C72.4724 30.7704 72.5813 30.7431 72.6903 30.6885C72.7993 30.6338 72.8946 30.5382 72.9763 30.4288L73.058 29.9643H72.772C72.5269 29.9643 72.3498 30.0053 72.2272 30.0736C72.1046 30.1419 72.0229 30.2512 72.0093 30.4015C71.9957 30.5108 72.0229 30.5928 72.0774 30.6748C72.1319 30.7294 72.2272 30.7704 72.3498 30.7704ZM73.6301 28.475H73.3168L72.9763 28.0787L72.5132 28.4613H72.1319L72.7856 27.9148H73.167L73.6301 28.475ZM73.5211 28.188L73.562 27.9148L73.6573 27.9011C73.7799 27.8874 73.848 27.8464 73.848 27.7645C73.8616 27.6961 73.7935 27.6551 73.6573 27.6415H73.5892L73.6165 27.4502C73.7799 27.4639 73.9025 27.4912 73.9842 27.5458C74.0659 27.6005 74.1068 27.6825 74.0932 27.7781C74.0932 27.8601 74.0659 27.9148 74.0114 27.9694C73.957 28.0241 73.8889 28.0514 73.7799 28.0787L73.7527 28.2017L73.5211 28.188Z" fill="white"/>
<path d="M75.2917 30.8386C75.1147 31.0299 74.8831 31.1119 74.6107 31.1119C74.3928 31.1119 74.2294 31.0299 74.134 30.8796C74.0251 30.7293 73.9842 30.5243 74.0115 30.2647L74.2566 28.7891H74.638L74.3928 30.2784C74.3792 30.3467 74.3792 30.4014 74.3928 30.456C74.4064 30.5517 74.4337 30.6336 74.4882 30.6883C74.5427 30.7429 74.6107 30.7703 74.7061 30.7839C74.9785 30.7976 75.1828 30.6883 75.3326 30.456L75.6186 28.7891H76L75.605 31.0709H75.2509L75.2917 30.8386Z" fill="white"/>
<path d="M0.612885 4.67383H5.57059C8.68959 4.67383 10.2423 6.32712 10.2423 9.63369V19.7584C10.2423 23.0513 8.68959 24.7046 5.57059 24.7046H0.612885V4.67383ZM3.7455 7.54317V21.8352H5.51611C6.57848 21.8352 7.10966 21.193 7.10966 19.895V9.48339C7.10966 8.18536 6.57848 7.54317 5.51611 7.54317H3.7455Z" fill="#F1F1F1"/>
<path d="M16.0717 4.67383V20.1136C16.0717 21.4117 16.6165 22.0675 17.7061 22.0675C18.7957 22.0675 19.3405 21.4117 19.3405 20.1136V4.67383H22.3097V19.9223C22.3097 23.2699 20.757 24.9505 17.638 24.9505C14.519 24.9505 12.9663 23.2699 12.9663 19.9223V4.67383H16.0717Z" fill="#F1F1F1"/>
<path d="M34.377 17.2305V19.8949C34.377 23.2424 32.8244 24.9231 29.7054 24.9231C26.5864 24.9231 25.0337 23.2424 25.0337 19.8949V9.48326C25.0337 6.13569 26.5864 4.45508 29.7054 4.45508C32.8244 4.45508 34.377 6.13569 34.377 9.48326V11.4371H31.4079V9.29197C31.4079 7.98027 30.8631 7.32442 29.7735 7.32442C28.6839 7.32442 28.1391 7.98027 28.1391 9.29197V20.0862C28.1391 21.3842 28.6839 22.0401 29.7735 22.0401C30.8631 22.0401 31.4079 21.3842 31.4079 20.0862V17.2305H34.377Z" fill="#F1F1F1"/>
<path d="M41.8545 21.0154L44.2516 4.68749H47.1254L44.0473 24.7046H39.3756L36.3111 4.67383H39.471L41.8545 21.0154Z" fill="#F1F1F1"/>
<path d="M49.4272 4.67383H52.5599V24.6909H49.4272V4.67383Z" fill="#F1F1F1"/>
<path d="M58.8251 13.1316H63.1426V15.9736H58.8251V21.8352H64.2322V24.6909H55.7061V4.67383H64.2459V7.52951H58.8387V13.1316H58.8251Z" fill="#F1F1F1"/>
<path d="M66.1799 4.67383H75.8638V7.52951H72.595V24.6909H69.4624V7.54317H66.1799V4.67383Z" fill="#F1F1F1"/>
<path d="M50.7892 3.14261C51.6543 3.14261 52.3556 2.43912 52.3556 1.57131C52.3556 0.703498 51.6543 0 50.7892 0C49.9242 0 49.2229 0.703498 49.2229 1.57131C49.2229 2.43912 49.9242 3.14261 50.7892 3.14261Z" fill="#CC0000"/>
<path d="M0 4.67383H4.95771C8.0767 4.67383 9.62939 6.32712 9.62939 9.63369V19.7584C9.62939 23.0513 8.0767 24.7046 4.95771 24.7046H0V4.67383ZM3.13262 7.54317V21.8352H4.90323C5.96559 21.8352 6.49677 21.193 6.49677 19.895V9.48339C6.49677 8.18536 5.96559 7.54317 4.90323 7.54317H3.13262Z" fill="white"/>
<path d="M15.4588 4.67383V20.1136C15.4588 21.4117 16.0036 22.0675 17.0932 22.0675C18.1828 22.0675 18.7276 21.4117 18.7276 20.1136V4.67383H21.6968V19.9223C21.6968 23.2699 20.1441 24.9505 17.0251 24.9505C13.9061 24.9505 12.3534 23.2699 12.3534 19.9223V4.67383H15.4588Z" fill="white"/>
<path d="M33.7641 17.2305V19.8949C33.7641 23.2424 32.2115 24.9231 29.0925 24.9231C25.9735 24.9231 24.4208 23.2424 24.4208 19.8949V9.48326C24.4208 6.13569 25.9735 4.45508 29.0925 4.45508C32.2115 4.45508 33.7641 6.13569 33.7641 9.48326V11.4371H30.795V9.29197C30.795 7.98027 30.2502 7.32442 29.1606 7.32442C28.071 7.32442 27.5262 7.98027 27.5262 9.29197V20.0862C27.5262 21.3842 28.071 22.0401 29.1606 22.0401C30.2502 22.0401 30.795 21.3842 30.795 20.0862V17.2305H33.7641Z" fill="white"/>
<path d="M41.2416 21.0154L43.6387 4.68749H46.5125L43.448 24.6909H38.7763L35.6982 4.67383H38.8581L41.2416 21.0154Z" fill="white"/>
<path d="M48.8143 4.67383H51.9469V24.6909H48.8143V4.67383Z" fill="white"/>
<path d="M58.2122 13.1179H62.5297V15.9599H58.2122V21.8216H63.6194V24.6772H55.0796V4.67383H63.6194V7.52951H58.2122V13.1179Z" fill="white"/>
<path d="M65.567 4.67383H75.2509V7.52951H71.9821V24.6909H68.8495V7.54317H65.567V4.67383Z" fill="white"/>
<path d="M50.2853 3.14261C51.1503 3.14261 51.8516 2.43912 51.8516 1.57131C51.8516 0.703498 51.1503 0 50.2853 0C49.4203 0 48.719 0.703498 48.719 1.57131C48.719 2.43912 49.4203 3.14261 50.2853 3.14261Z" fill="#FF0000"/>
</g>
<defs>
<clipPath id="clip0">
<rect width="76" height="32" fill="white"/>
</clipPath>
</defs>
</svg>
