<svg width="24" height="24" viewBox="0 0 24 24" fill="none" xmlns="http://www.w3.org/2000/svg">
<path d="M12 9.104C11.456 9.104 10.984 8.912 10.584 8.52801C10.2 8.12801 10.008 7.648 10.008 7.088C10.008 6.528 10.2 6.05601 10.584 5.67201C10.984 5.288 11.456 5.096 12 5.096C12.56 5.096 13.032 5.288 13.416 5.67201C13.8 6.05601 13.992 6.528 13.992 7.088C13.992 7.648 13.792 8.12801 13.392 8.52801C13.008 8.912 12.544 9.104 12 9.104ZM12 11.096C12.72 11.096 13.384 10.92 13.992 10.568C14.616 10.2 15.104 9.712 15.456 9.104C15.824 8.48 16.008 7.808 16.008 7.088C16.008 6.368 15.824 5.704 15.456 5.096C15.104 4.488 14.616 4.008 13.992 3.656C13.384 3.288 12.72 3.104 12 3.104C11.28 3.104 10.608 3.288 9.984 3.656C9.376 4.008 8.888 4.488 8.52 5.096C8.168 5.704 7.992 6.368 7.992 7.088C7.992 7.808 8.168 8.48 8.52 9.104C8.888 9.712 9.376 10.2 9.984 10.568C10.608 10.92 11.28 11.096 12 11.096ZM17.952 18.488C17.952 18.488 17.952 18.48 17.952 18.464C17.984 18.352 18 18.232 18 18.104C18 17.496 17.888 17.024 17.664 16.688C17.488 16.368 17.176 16.096 16.728 15.872C15.768 15.36 14.192 15.104 12 15.104C9.824 15.104 8.248 15.36 7.272 15.872C6.824 16.096 6.512 16.368 6.336 16.688C6.112 17.024 6 17.496 6 18.104C6 18.232 6.016 18.352 6.048 18.464V18.488L6.12 18.56C6.296 18.72 6.536 18.848 6.84 18.944C7.144 19.04 7.48 19.088 7.848 19.088H16.152C16.52 19.088 16.856 19.04 17.16 18.944C17.464 18.848 17.704 18.72 17.88 18.56L17.952 18.488ZM19.224 20.048C18.84 20.4 18.368 20.672 17.808 20.864C17.28 21.024 16.728 21.104 16.152 21.104H7.848C7.272 21.104 6.728 21.024 6.216 20.864C5.64 20.672 5.16 20.4 4.776 20.048C4.264 19.6 4.008 18.952 4.008 18.104C4.008 16.248 4.792 14.912 6.36 14.096C7.64 13.424 9.52 13.088 12 13.088C14.48 13.088 16.368 13.424 17.664 14.096C19.216 14.912 19.992 16.248 19.992 18.104C19.992 18.952 19.736 19.6 19.224 20.048Z" fill="#2F3136"/>
</svg>
