<svg width="24" height="24" viewBox="0 0 24 24" fill="none" xmlns="http://www.w3.org/2000/svg">
<path d="M18 22.112C17.088 22.112 16.248 21.888 15.48 21.44C14.728 20.992 14.128 20.384 13.68 19.616C13.232 18.848 13.008 18.008 13.008 17.096C13.008 16.184 13.232 15.352 13.68 14.6C14.128 13.832 14.728 13.224 15.48 12.776C16.248 12.328 17.088 12.104 18 12.104C18.912 12.104 19.744 12.328 20.496 12.776C21.264 13.224 21.872 13.832 22.32 14.6C22.768 15.352 22.992 16.184 22.992 17.096C22.992 18.008 22.768 18.848 22.32 19.616C21.872 20.384 21.264 20.992 20.496 21.44C19.744 21.888 18.912 22.112 18 22.112ZM18 14.096C17.728 14.096 17.488 14.2 17.28 14.408C17.088 14.6 16.992 14.832 16.992 15.104V16.088H16.008C15.736 16.088 15.496 16.192 15.288 16.4C15.096 16.592 15 16.824 15 17.096C15 17.368 15.096 17.608 15.288 17.816C15.496 18.008 15.736 18.104 16.008 18.104H16.992V19.088C16.992 19.36 17.088 19.6 17.28 19.808C17.488 20 17.728 20.096 18 20.096C18.272 20.096 18.504 20 18.696 19.808C18.904 19.6 19.008 19.36 19.008 19.088V18.104H19.992C20.264 18.104 20.496 18.008 20.688 17.816C20.896 17.608 21 17.368 21 17.096C21 16.824 20.896 16.592 20.688 16.4C20.496 16.192 20.264 16.088 19.992 16.088H19.008V15.104C19.008 14.832 18.904 14.6 18.696 14.408C18.504 14.2 18.272 14.096 18 14.096ZM1.008 12.104C1.008 10.296 1.464 8.61599 2.376 7.06399C3.256 5.54399 4.448 4.34399 5.952 3.46399C7.504 2.55199 9.184 2.09599 10.992 2.09599C12.56 2.09599 14.048 2.44799 15.456 3.15199C16.8 3.82399 17.944 4.76799 18.888 5.98399C19.832 7.18399 20.464 8.52799 20.784 10.016C20.816 10.176 20.768 10.304 20.64 10.4C20.512 10.496 20.376 10.52 20.232 10.472C19.496 10.216 18.752 10.088 18 10.088C16.624 10.088 15.36 10.464 14.208 11.216C13.088 11.936 12.24 12.896 11.664 14.096H10.992C10 14.096 9.232 14.128 8.688 14.192C8.144 14.24 7.72 14.32 7.416 14.432C7.16 14.528 6.92 14.68 6.696 14.888C6.504 15.064 6.4 15.28 6.384 15.536C6.368 15.776 6.44 15.992 6.6 16.184C7.16 16.792 7.816 17.264 8.568 17.6C9.336 17.936 10.144 18.104 10.992 18.104H11.064C11.256 19.336 11.72 20.424 12.456 21.368C12.552 21.496 12.568 21.632 12.504 21.776C12.456 21.936 12.352 22.024 12.192 22.04C11.808 22.088 11.408 22.112 10.992 22.112C9.184 22.112 7.504 21.656 5.952 20.744C4.448 19.848 3.256 18.648 2.376 17.144C1.464 15.592 1.008 13.912 1.008 12.104ZM10.992 12.104C11.536 12.104 12.032 11.968 12.48 11.696C12.944 11.424 13.312 11.064 13.584 10.616C13.856 10.152 13.992 9.64799 13.992 9.10399C13.992 8.55999 13.856 8.06399 13.584 7.61599C13.312 7.15199 12.944 6.78399 12.48 6.51199C12.032 6.23999 11.536 6.10399 10.992 6.10399C10.448 6.10399 9.944 6.23999 9.48 6.51199C9.032 6.78399 8.672 7.15199 8.4 7.61599C8.128 8.06399 7.992 8.55999 7.992 9.10399C7.992 9.64799 8.128 10.152 8.4 10.616C8.672 11.064 9.032 11.424 9.48 11.696C9.944 11.968 10.448 12.104 10.992 12.104Z" fill="#2F3136"/>
</svg>
