<svg width="24" height="24" viewBox="0 0 24 24" fill="none" xmlns="http://www.w3.org/2000/svg">
<path d="M12 6.104C11.728 6.104 11.488 6.2 11.28 6.392C11.088 6.584 10.992 6.816 10.992 7.088V10.904C10.992 10.952 10.976 11 10.944 11.048C10.912 11.08 10.864 11.096 10.8 11.096H7.008C6.736 11.096 6.496 11.2 6.288 11.408C6.096 11.6 6 11.832 6 12.104C6 12.376 6.096 12.608 6.288 12.8C6.496 12.992 6.736 13.088 7.008 13.088H10.8C10.864 13.088 10.912 13.112 10.944 13.16C10.976 13.192 10.992 13.24 10.992 13.304V17.096C10.992 17.368 11.088 17.608 11.28 17.816C11.488 18.008 11.728 18.104 12 18.104C12.272 18.104 12.504 18.008 12.696 17.816C12.904 17.608 13.008 17.368 13.008 17.096V13.304C13.008 13.24 13.024 13.192 13.056 13.16C13.088 13.112 13.136 13.088 13.2 13.088H16.992C17.264 13.088 17.496 12.992 17.688 12.8C17.896 12.608 18 12.376 18 12.104C18 11.832 17.896 11.6 17.688 11.408C17.496 11.2 17.264 11.096 16.992 11.096H13.2C13.136 11.096 13.088 11.08 13.056 11.048C13.024 11 13.008 10.952 13.008 10.904V7.088C13.008 6.816 12.904 6.584 12.696 6.392C12.504 6.2 12.272 6.104 12 6.104Z" fill="#2F3136"/>
</svg>
