<svg width="12" height="12" viewBox="0 0 12 12" fill="none" xmlns="http://www.w3.org/2000/svg">
<path d="M8.00409 6.54403H6.50409V8.04403C6.50409 8.18003 6.45209 8.30004 6.34809 8.40404C6.25209 8.50004 6.13609 8.54804 6.00009 8.54804C5.86409 8.54804 5.74409 8.50004 5.64009 8.40404C5.54409 8.30004 5.49609 8.18003 5.49609 8.04403V6.54403H3.99609C3.86009 6.54403 3.74409 6.49603 3.64809 6.40003C3.55209 6.30404 3.50409 6.18804 3.50409 6.05203C3.50409 5.91603 3.55209 5.80004 3.64809 5.70404C3.74409 5.60004 3.86009 5.54804 3.99609 5.54804H5.49609V4.04804C5.49609 3.91204 5.54409 3.79604 5.64009 3.70003C5.74409 3.59603 5.86409 3.54403 6.00009 3.54403C6.13609 3.54403 6.25209 3.59603 6.34809 3.70003C6.45209 3.79604 6.50409 3.91204 6.50409 4.04804V5.54804H8.00409C8.14009 5.54804 8.25609 5.60004 8.35209 5.70404C8.44809 5.80004 8.49609 5.91603 8.49609 6.05203C8.49609 6.18804 8.44809 6.30404 8.35209 6.40003C8.25609 6.49603 8.14009 6.54403 8.00409 6.54403ZM6.00009 11.056C5.09609 11.056 4.25609 10.828 3.48009 10.372C2.72009 9.93204 2.12009 9.33204 1.68009 8.57203C1.22409 7.79603 0.996094 6.95604 0.996094 6.05203C0.996094 5.14804 1.22409 4.30803 1.68009 3.53203C2.12009 2.77204 2.72009 2.17204 3.48009 1.73204C4.25609 1.27603 5.09609 1.04803 6.00009 1.04803C6.90409 1.04803 7.74409 1.27603 8.52009 1.73204C9.28009 2.17204 9.88009 2.77204 10.3201 3.53203C10.7761 4.30803 11.0041 5.14804 11.0041 6.05203C11.0041 6.95604 10.7761 7.79603 10.3201 8.57203C9.88009 9.33204 9.28009 9.93204 8.52009 10.372C7.74409 10.828 6.90409 11.056 6.00009 11.056ZM6.00009 10.048C6.72809 10.048 7.40009 9.86804 8.01609 9.50804C8.61609 9.14804 9.09609 8.66804 9.45609 8.06804C9.81609 7.45203 9.99609 6.78004 9.99609 6.05203C9.99609 5.32403 9.81609 4.65203 9.45609 4.03604C9.09609 3.42804 8.61609 2.94804 8.01609 2.59603C7.39209 2.22803 6.72009 2.04403 6.00009 2.04403C5.28009 2.04403 4.60809 2.22803 3.98409 2.59603C3.38409 2.94804 2.90409 3.42804 2.54409 4.03604C2.18409 4.65203 2.00409 5.32403 2.00409 6.05203C2.00409 6.78004 2.18409 7.45203 2.54409 8.06804C2.90409 8.66804 3.38409 9.14804 3.98409 9.50804C4.60009 9.86804 5.27209 10.048 6.00009 10.048Z" fill="#3080EA"/>
</svg>
