<svg width="24" height="24" viewBox="0 0 24 24" fill="none" xmlns="http://www.w3.org/2000/svg">
<path d="M7.992 5.096C8.264 5.096 8.496 5.2 8.688 5.408C8.896 5.6 9 5.832 9 6.104V8.096C9 8.368 8.896 8.60801 8.688 8.81601C8.496 9.00801 8.264 9.104 7.992 9.104H6C5.728 9.104 5.488 9.00801 5.28 8.81601C5.088 8.60801 4.992 8.368 4.992 8.096V6.104C4.992 5.832 5.088 5.6 5.28 5.408C5.488 5.2 5.728 5.096 6 5.096H7.992ZM6 3.104C5.456 3.104 4.952 3.24 4.488 3.512C4.04 3.784 3.68 4.152 3.408 4.616C3.136 5.064 3 5.56 3 6.104V8.096C3 8.64001 3.136 9.14401 3.408 9.60801C3.68 10.056 4.04 10.416 4.488 10.688C4.952 10.96 5.456 11.096 6 11.096H7.992C8.536 11.096 9.032 10.96 9.48 10.688C9.944 10.416 10.312 10.056 10.584 9.60801C10.856 9.14401 10.992 8.64001 10.992 8.096V6.104C10.992 5.56 10.856 5.064 10.584 4.616C10.312 4.152 9.944 3.784 9.48 3.512C9.032 3.24 8.536 3.104 7.992 3.104H6ZM7.992 15.104C8.264 15.104 8.496 15.2 8.688 15.392C8.896 15.584 9 15.816 9 16.088V18.104C9 18.376 8.896 18.608 8.688 18.8C8.496 18.992 8.264 19.088 7.992 19.088H6C5.728 19.088 5.488 18.992 5.28 18.8C5.088 18.608 4.992 18.376 4.992 18.104V16.088C4.992 15.816 5.088 15.584 5.28 15.392C5.488 15.2 5.728 15.104 6 15.104H7.992ZM6 13.088C5.456 13.088 4.952 13.224 4.488 13.496C4.04 13.768 3.68 14.136 3.408 14.6C3.136 15.048 3 15.544 3 16.088V18.104C3 18.648 3.136 19.152 3.408 19.616C3.68 20.064 4.04 20.424 4.488 20.696C4.952 20.968 5.456 21.104 6 21.104H7.992C8.536 21.104 9.032 20.968 9.48 20.696C9.944 20.424 10.312 20.064 10.584 19.616C10.856 19.152 10.992 18.648 10.992 18.104V16.088C10.992 15.544 10.856 15.048 10.584 14.6C10.312 14.136 9.944 13.768 9.48 13.496C9.032 13.224 8.536 13.088 7.992 13.088H6ZM18 5.096C18.272 5.096 18.504 5.2 18.696 5.408C18.904 5.6 19.008 5.832 19.008 6.104V8.096C19.008 8.368 18.904 8.60801 18.696 8.81601C18.504 9.00801 18.272 9.104 18 9.104H16.008C15.736 9.104 15.496 9.00801 15.288 8.81601C15.096 8.60801 15 8.368 15 8.096V6.104C15 5.832 15.096 5.6 15.288 5.408C15.496 5.2 15.736 5.096 16.008 5.096H18ZM16.008 3.104C15.464 3.104 14.96 3.24 14.496 3.512C14.048 3.784 13.688 4.152 13.416 4.616C13.144 5.064 13.008 5.56 13.008 6.104V8.096C13.008 8.64001 13.144 9.14401 13.416 9.60801C13.688 10.056 14.048 10.416 14.496 10.688C14.96 10.96 15.464 11.096 16.008 11.096H18C18.544 11.096 19.04 10.96 19.488 10.688C19.952 10.416 20.32 10.056 20.592 9.60801C20.864 9.14401 21 8.64001 21 8.096V6.104C21 5.56 20.864 5.064 20.592 4.616C20.32 4.152 19.952 3.784 19.488 3.512C19.04 3.24 18.544 3.104 18 3.104H16.008ZM18 15.104C18.272 15.104 18.504 15.2 18.696 15.392C18.904 15.584 19.008 15.816 19.008 16.088V18.104C19.008 18.376 18.904 18.608 18.696 18.8C18.504 18.992 18.272 19.088 18 19.088H16.008C15.736 19.088 15.496 18.992 15.288 18.8C15.096 18.608 15 18.376 15 18.104V16.088C15 15.816 15.096 15.584 15.288 15.392C15.496 15.2 15.736 15.104 16.008 15.104H18ZM16.008 13.088C15.464 13.088 14.96 13.224 14.496 13.496C14.048 13.768 13.688 14.136 13.416 14.6C13.144 15.048 13.008 15.544 13.008 16.088V18.104C13.008 18.648 13.144 19.152 13.416 19.616C13.688 20.064 14.048 20.424 14.496 20.696C14.96 20.968 15.464 21.104 16.008 21.104H18C18.544 21.104 19.04 20.968 19.488 20.696C19.952 20.424 20.32 20.064 20.592 19.616C20.864 19.152 21 18.648 21 18.104V16.088C21 15.544 20.864 15.048 20.592 14.6C20.32 14.136 19.952 13.768 19.488 13.496C19.04 13.224 18.544 13.088 18 13.088H16.008Z" fill="#2F3136"/>
</svg>
