<svg width="24" height="24" viewBox="0 0 24 24" fill="none" xmlns="http://www.w3.org/2000/svg">
<path fill-rule="evenodd" clip-rule="evenodd" d="M12 3.60001C12.3182 3.60007 12.6234 3.72655 12.8484 3.95161L16.4484 7.55161C16.667 7.77793 16.7879 8.08105 16.7852 8.39569C16.7825 8.71032 16.6563 9.0113 16.4338 9.23379C16.2113 9.45628 15.9103 9.58248 15.5957 9.58521C15.281 9.58795 14.9779 9.46699 14.7516 9.2484L12 6.49681L9.2484 9.2484C9.02208 9.46699 8.71895 9.58795 8.40432 9.58521C8.08968 9.58248 7.78871 9.45628 7.56622 9.23379C7.34373 9.0113 7.21753 8.71032 7.21479 8.39569C7.21206 8.08105 7.33301 7.77793 7.5516 7.55161L11.1516 3.95161C11.3766 3.72655 11.6818 3.60007 12 3.60001ZM7.5516 14.7516C7.77663 14.5266 8.0818 14.4003 8.4 14.4003C8.7182 14.4003 9.02337 14.5266 9.2484 14.7516L12 17.5032L14.7516 14.7516C14.9779 14.533 15.281 14.4121 15.5957 14.4148C15.9103 14.4175 16.2113 14.5437 16.4338 14.7662C16.6563 14.9887 16.7825 15.2897 16.7852 15.6043C16.7879 15.919 16.667 16.2221 16.4484 16.4484L12.8484 20.0484C12.6234 20.2734 12.3182 20.3997 12 20.3997C11.6818 20.3997 11.3766 20.2734 11.1516 20.0484L7.5516 16.4484C7.32663 16.2234 7.20026 15.9182 7.20026 15.6C7.20026 15.2818 7.32663 14.9766 7.5516 14.7516Z" fill="#2F3136"/>
</svg>
