<svg width="24" height="24" viewBox="0 0 24 24" fill="none" xmlns="http://www.w3.org/2000/svg">
<path d="M12 1.088C13.552 1.088 15.12 1.232 16.704 1.52C17.952 1.744 19.12 2.04 20.208 2.408C20.752 2.6 21.184 2.944 21.504 3.44C21.824 3.92 21.96 4.44 21.912 5V12.104C21.912 12.44 21.856 12.936 21.744 13.592L21.696 13.904C21.04 16.656 19.704 18.856 17.688 20.504C16.344 21.592 14.752 22.392 12.912 22.904C12.608 23 12.288 23.048 11.952 23.048C11.616 23.048 11.296 23 10.992 22.904C9.104 22.312 7.528 21.496 6.264 20.456C4.248 18.84 2.896 16.656 2.208 13.904C2.112 13.632 2.048 13.328 2.016 12.992C2 12.8 1.992 12.504 1.992 12.104V5C1.992 4.44 2.16 3.92 2.496 3.44C2.832 2.944 3.264 2.6 3.792 2.408C4.88 2.04 6.048 1.744 7.296 1.52C8.88 1.232 10.448 1.088 12 1.088ZM13.968 8.792C13.888 8.312 13.664 7.912 13.296 7.592C12.928 7.256 12.496 7.088 12 7.088C11.504 7.088 11.072 7.256 10.704 7.592C10.336 7.912 10.112 8.312 10.032 8.792C10.016 8.872 10.032 8.944 10.08 9.008C10.144 9.072 10.216 9.104 10.296 9.104H13.704C13.784 9.104 13.848 9.072 13.896 9.008C13.96 8.944 13.984 8.872 13.968 8.792ZM7.992 9.368C7.688 9.544 7.448 9.784 7.272 10.088C7.096 10.392 7.008 10.728 7.008 11.096V15.104C7.008 15.648 7.20001 16.12 7.584 16.52C7.984 16.904 8.45601 17.096 9.00001 17.096H15C15.56 17.096 16.032 16.904 16.416 16.52C16.8 16.12 16.992 15.648 16.992 15.104V11.096C16.992 10.728 16.904 10.392 16.728 10.088C16.552 9.784 16.312 9.544 16.008 9.368V9.104C16.008 8.384 15.824 7.72 15.456 7.112C15.104 6.488 14.616 6 13.992 5.648C13.384 5.28 12.72 5.096 12 5.096C11.28 5.096 10.608 5.28 9.984 5.648C9.376 6 8.888 6.488 8.52 7.112C8.168 7.72 7.992 8.384 7.992 9.104V9.368ZM13.008 13.088C13.008 13.36 12.904 13.6 12.696 13.808C12.504 14 12.272 14.096 12 14.096C11.728 14.096 11.488 14 11.28 13.808C11.088 13.6 10.992 13.36 10.992 13.088C10.992 12.816 11.088 12.584 11.28 12.392C11.488 12.2 11.728 12.104 12 12.104C12.272 12.104 12.504 12.2 12.696 12.392C12.904 12.584 13.008 12.816 13.008 13.088Z" fill="#2F3136"/>
</svg>
