<svg width="24" height="24" viewBox="0 0 24 24" fill="none" xmlns="http://www.w3.org/2000/svg">
<path fill-rule="evenodd" clip-rule="evenodd" d="M11 19.5C11 18.9477 11.4491 18.5 11.9954 18.5H20.0046C20.5543 18.5 21 18.9439 21 19.5C21 20.0523 20.5509 20.5 20.0046 20.5H11.9954C11.4457 20.5 11 20.0561 11 19.5ZM3 14.5C3 13.9477 3.44495 13.5 3.99985 13.5H20.0001C20.5524 13.5 21 13.9439 21 14.5C21 15.0523 20.5551 15.5 20.0001 15.5H3.99985C3.44765 15.5 3 15.0561 3 14.5ZM7 9.5C7 8.94772 7.44995 8.5 7.99562 8.5H20.0044C20.5542 8.5 21 8.94386 21 9.5C21 10.0523 20.5501 10.5 20.0044 10.5H7.99562C7.44576 10.5 7 10.0561 7 9.5ZM3 4.5C3 3.94772 3.44495 3.5 3.99985 3.5H20.0001C20.5524 3.5 21 3.94386 21 4.5C21 5.05228 20.5551 5.5 20.0001 5.5H3.99985C3.44765 5.5 3 5.05614 3 4.5Z" fill="#2F3136"/>
</svg>
