<svg width="24" height="24" viewBox="0 0 24 24" fill="none" xmlns="http://www.w3.org/2000/svg">
<path d="M4.128 5.09601C4.096 5.09601 4.064 5.09601 4.032 5.09601C4.016 5.08001 3.984 5.04801 3.936 5.00001L3.36 3.82401C3.28 3.64801 3.288 3.48801 3.384 3.34401C3.48 3.18401 3.624 3.10401 3.816 3.10401H8.376C8.568 3.10401 8.744 3.05601 8.904 2.96001C9.08 2.84801 9.208 2.71201 9.288 2.55201L9.456 2.21601C9.616 1.86401 9.856 1.59201 10.176 1.40001C10.512 1.19201 10.864 1.08801 11.232 1.08801H12.768C13.136 1.08801 13.48 1.19201 13.8 1.40001C14.136 1.59201 14.384 1.86401 14.544 2.21601L14.736 2.55201C14.816 2.72801 14.936 2.86401 15.096 2.96001C15.256 3.05601 15.432 3.10401 15.624 3.10401H20.184C20.376 3.10401 20.52 3.18401 20.616 3.34401C20.712 3.48801 20.72 3.64801 20.64 3.82401L20.064 5.00001C20.016 5.04801 19.984 5.08001 19.968 5.09601C19.952 5.09601 19.92 5.09601 19.872 5.09601H19.008L18.168 19.28C18.136 19.792 17.976 20.264 17.688 20.696C17.416 21.144 17.056 21.488 16.608 21.728C16.16 21.984 15.68 22.112 15.168 22.112H8.832C8.32 22.112 7.84 21.984 7.392 21.728C6.944 21.488 6.576 21.144 6.288 20.696C6.016 20.264 5.864 19.792 5.832 19.28L4.992 5.09601H4.128ZM7.008 5.09601L7.824 19.16C7.856 19.432 7.968 19.656 8.16 19.832C8.352 20.008 8.576 20.096 8.832 20.096H15.168C15.424 20.096 15.648 20.008 15.84 19.832C16.032 19.656 16.144 19.432 16.176 19.16L16.992 5.09601H7.008ZM7.008 7.08801H16.992V9.10401H7.008V7.08801Z" fill="#2F3136"/>
</svg>
