<svg width="16" height="16" viewBox="0 0 16 16" fill="none" xmlns="http://www.w3.org/2000/svg">
<path d="M2.75247 3.39734C2.73113 3.39734 2.7098 3.39734 2.68847 3.39734C2.6778 3.38668 2.65647 3.36534 2.62447 3.33334L2.24047 2.54934C2.18713 2.43201 2.19247 2.32534 2.25647 2.22934C2.32047 2.12268 2.41647 2.06934 2.54447 2.06934H5.58447C5.71247 2.06934 5.8298 2.03734 5.93647 1.97334C6.0538 1.89868 6.13913 1.80801 6.19247 1.70134L6.30447 1.47734C6.41113 1.24268 6.57113 1.06134 6.78447 0.933342C7.00847 0.794675 7.24313 0.725342 7.48847 0.725342H8.51247C8.7578 0.725342 8.98713 0.794675 9.20047 0.933342C9.42447 1.06134 9.5898 1.24268 9.69647 1.47734L9.82447 1.70134C9.8778 1.81868 9.9578 1.90934 10.0645 1.97334C10.1711 2.03734 10.2885 2.06934 10.4165 2.06934H13.4565C13.5845 2.06934 13.6805 2.12268 13.7445 2.22934C13.8085 2.32534 13.8138 2.43201 13.7605 2.54934L13.3765 3.33334C13.3445 3.36534 13.3231 3.38668 13.3125 3.39734C13.3018 3.39734 13.2805 3.39734 13.2485 3.39734H12.6725L12.1125 12.8533C12.0911 13.1947 11.9845 13.5093 11.7925 13.7973C11.6111 14.096 11.3711 14.3253 11.0725 14.4853C10.7738 14.656 10.4538 14.7413 10.1125 14.7413H5.88847C5.54713 14.7413 5.22713 14.656 4.92847 14.4853C4.6298 14.3253 4.38447 14.096 4.19247 13.7973C4.01113 13.5093 3.9098 13.1947 3.88847 12.8533L3.32847 3.39734H2.75247ZM4.67247 3.39734L5.21647 12.7733C5.2378 12.9547 5.31247 13.104 5.44046 13.2213C5.56847 13.3387 5.7178 13.3973 5.88847 13.3973H10.1125C10.2831 13.3973 10.4325 13.3387 10.5605 13.2213C10.6885 13.104 10.7631 12.9547 10.7845 12.7733L11.3285 3.39734H4.67247ZM4.67247 4.72534H11.3285V6.06934H4.67247V4.72534Z" fill="#E94040"/>
</svg>
