<svg width="24" height="24" viewBox="0 0 24 24" fill="none" xmlns="http://www.w3.org/2000/svg">
<path d="M3 6.10399C3 5.83199 3.096 5.59999 3.288 5.40799C3.496 5.19999 3.736 5.09599 4.008 5.09599H19.992C20.264 5.09599 20.496 5.19999 20.688 5.40799C20.896 5.59999 21 5.83199 21 6.10399C21 6.37599 20.896 6.60799 20.688 6.79999C20.496 6.99199 20.264 7.08799 19.992 7.08799H4.008C3.736 7.08799 3.496 6.99199 3.288 6.79999C3.096 6.60799 3 6.37599 3 6.10399ZM3 12.104C3 11.832 3.096 11.6 3.288 11.408C3.496 11.2 3.736 11.096 4.008 11.096H19.992C20.264 11.096 20.496 11.2 20.688 11.408C20.896 11.6 21 11.832 21 12.104C21 12.376 20.896 12.608 20.688 12.8C20.496 12.992 20.264 13.088 19.992 13.088H4.008C3.736 13.088 3.496 12.992 3.288 12.8C3.096 12.608 3 12.376 3 12.104ZM3 18.104C3 17.832 3.096 17.6 3.288 17.408C3.496 17.2 3.736 17.096 4.008 17.096H19.992C20.264 17.096 20.496 17.2 20.688 17.408C20.896 17.6 21 17.832 21 18.104C21 18.376 20.896 18.608 20.688 18.8C20.496 18.992 20.264 19.088 19.992 19.088H4.008C3.736 19.088 3.496 18.992 3.288 18.8C3.096 18.608 3 18.376 3 18.104Z" fill="#2F3136"/>
</svg>
